<svg width="20" height="22" viewBox="0 0 20 22" fill="none" xmlns="http://www.w3.org/2000/svg">
<path fill-rule="evenodd" clip-rule="evenodd" d="M15.843 0C18.002 0 19.755 1.753 19.755 3.912C19.755 4.307 19.702 5.616 18.56 6.725L10.095 15.19C9.499 15.861 7.975 16.469 6.796 15.289C5.618 14.112 6.21 12.604 6.884 11.999L11.293 7.59L12 8.297L8.836 11.46L8.85 11.463L7.439 12.876L7.443 12.879C6.473 14.03 8.061 15.809 9.42 14.451L17.803 6.067C18.459 5.415 18.743 4.674 18.743 3.912C18.743 2.311 17.444 1.012 15.843 1.012C15.06 1.012 14.348 1.323 13.825 1.83L13.822 1.827C13.249 2.4 2.32 13.321 2.288 13.354L2.286 13.352C1.491 14.164 1 15.275 1 16.5C1 18.983 3.017 21 5.5 21C6.15 21 7.34 21.007 9.02 19.332L19.293 9.065L20 9.772L9.523 20.249C8.519 21.326 7.088 22 5.5 22C2.465 22 0 19.535 0 16.5C0 14.923 0.666 13.5 1.731 12.496C12.399 1.829 12.566 1.657 13.026 1.199C13.303 0.921 14.241 0 15.843 0Z" fill="#1A1A1A"/>
</svg>
