<?xml version="1.0" standalone="no"?>
<!DOCTYPE svg PUBLIC "-//W3C//DTD SVG 20010904//EN"
 "http://www.w3.org/TR/2001/REC-SVG-20010904/DTD/svg10.dtd">
<svg version="1.0" xmlns="http://www.w3.org/2000/svg"
 width="700.000000pt" height="700.000000pt" viewBox="0 0 700.000000 700.000000"
 preserveAspectRatio="xMidYMid meet">
<metadata>
Created by potrace 1.14, written by Peter Selinger 2001-2017
</metadata>
<g transform="translate(0.000000,700.000000) scale(0.100000,-0.100000)"
fill="#000000" stroke="none">
<path d="M0 5727 l0 -1273 287 1 288 0 0 975 c0 536 3 980 7 985 4 7 326 10
975 10 532 -1 973 0 978 2 7 2 10 104 10 286 l0 282 -1273 3 -1272 2 0 -1273z"/>
<path d="M4454 6718 c0 -156 3 -285 7 -288 4 -3 446 -5 983 -5 644 0 977 -3
979 -10 2 -5 3 -448 3 -982 -1 -641 2 -974 9 -976 6 -2 134 -3 285 -3 l275 1
3 1273 2 1272 -1273 0 -1273 0 0 -282z"/>
<path d="M3927 5144 c-1 -1 -47 -4 -102 -8 -271 -16 -481 -65 -668 -157 -269
-133 -426 -342 -483 -642 -13 -70 -18 -111 -23 -228 -1 -13 -27 -15 -198 -16
-109 -1 -204 -2 -210 -2 -10 -1 -13 -57 -13 -246 l0 -245 210 0 c193 0 210 -1
210 -17 1 -10 1 -361 1 -780 0 -420 3 -763 7 -764 4 -1 139 -2 301 -3 285 -1
294 0 300 19 4 11 6 363 5 783 l-1 762 694 0 693 0 0 245 c0 226 -1 245 -17
246 -10 0 -322 2 -693 2 l-675 2 0 60 c0 124 29 225 90 309 106 147 321 206
725 201 232 -3 493 -23 660 -50 14 -2 48 -7 77 -10 51 -6 52 -6 58 22 3 15 10
44 16 63 15 57 89 354 89 361 0 3 -6 6 -12 6 -16 1 -76 11 -143 23 -27 5 -72
12 -100 15 -27 3 -66 8 -85 10 -19 3 -60 7 -90 10 -30 3 -68 7 -85 10 -66 9
-530 26 -538 19z"/>
<path d="M4 2541 c-2 -2 -4 -575 -4 -1273 l0 -1268 1273 2 1272 3 0 285 1 285
-986 0 -985 0 0 985 0 985 -283 0 c-156 0 -285 -2 -288 -4z"/>
<path d="M6426 2540 c-1 -3 -2 -445 -1 -982 0 -666 -3 -979 -10 -981 -5 -2
-449 -3 -985 -3 l-976 1 0 -287 1 -288 1272 0 1273 0 -2 1273 -3 1272 -283 0
c-156 1 -284 -2 -286 -5z"/>
</g>
</svg>
