<svg width="199" height="35" viewBox="0 0 199 35" fill="none" xmlns="http://www.w3.org/2000/svg">
<path fill-rule="evenodd" clip-rule="evenodd" d="M0 -5.14984e-05L2.90807 -5.16255e-05L12.8786 -5.20614e-05L12.8786 2.90802L2.90807 2.90802L2.90807 12.8785H0V2.90802V-5.14984e-05ZM198.197 2.90807V0H195.289H185.318V2.90807H195.289V12.8786H198.197V2.90807ZM19.4466 17.2042V27.259H15.5189V17.2042H12.7958V14.0359H15.5189V14.0097C15.5189 9.40124 18.6349 7.2803 24.3693 7.2803C26.7782 7.2803 28.8468 7.56833 30.4964 7.85636L29.7632 10.789C28.1398 10.5534 26.4902 10.3439 24.186 10.3439C20.6773 10.3439 19.4466 11.3913 19.4466 13.7479V14.0359H28.3493V17.2042H19.4466ZM34.2737 27.259H30.3722V14.0359H33.8024L34.1166 16.471C36.8136 14.9785 40.2176 13.6955 44.0143 13.6955V17.2304C40.4009 17.2304 37.5468 17.7802 34.2737 19.1418V27.259ZM66.3742 14.6643C63.5201 14.2192 59.7495 13.774 55.4291 13.774C49.4852 13.774 45.4528 15.4498 45.4528 20.7391C45.4528 25.5832 48.4378 27.5209 53.3081 27.5209C56.6597 27.5209 59.9066 26.4735 62.6298 25.269L62.944 27.259H66.3742V14.6643ZM49.3543 20.6082C49.3543 17.9374 51.3967 16.9423 55.0363 16.9423C57.4191 16.9423 60.1946 17.1256 62.4465 17.3875V22.6506C59.54 23.6194 56.6859 24.274 54.0413 24.274C50.7421 24.274 49.3543 23.2528 49.3543 20.6082ZM80.6293 27.547C72.6169 27.547 69.2653 25.4785 69.2653 20.6082C69.2653 15.7379 72.6169 13.6955 80.6293 13.6955C83.9286 13.6955 87.0969 14.1406 89.3749 14.6905L88.5632 17.8326C86.7303 17.4399 84.0857 17.0209 80.0795 17.0209C75.052 17.0209 73.1668 17.8326 73.1668 20.6082C73.1668 23.4099 75.052 24.2216 80.0795 24.2216C84.0857 24.2216 86.7303 23.8027 88.5632 23.4099L89.3749 26.5782C87.0969 27.1019 84.0595 27.547 80.6293 27.547ZM94.076 20.8438C94.076 25.8189 96.6945 27.5994 102.324 27.5994C105.047 27.5994 107.718 27.1281 109.708 26.6306L108.949 23.5146C107.09 23.9074 105.1 24.274 102.638 24.274C99.0511 24.274 98.0037 23.3575 98.0037 20.5034V17.2042H108.765V14.0359H98.0037V10.6319H94.8616L94.1808 14.0359H91.0387V17.2042H94.076V20.8438ZM121.548 13.774C125.868 13.774 129.639 14.2192 132.493 14.6643V27.259H129.063L128.748 25.269C126.025 26.4735 122.778 27.5209 119.427 27.5209C114.557 27.5209 111.572 25.5832 111.572 20.7391C111.572 15.4498 115.604 13.774 121.548 13.774ZM121.155 16.9423C117.515 16.9423 115.473 17.9374 115.473 20.6082C115.473 23.2528 116.861 24.274 120.16 24.274C122.805 24.274 125.659 23.6194 128.565 22.6506V17.3875C126.313 17.1256 123.538 16.9423 121.155 16.9423ZM139.809 7.6207H135.908V27.259H139.809V7.6207ZM146.706 21.577C147.125 23.9598 149.141 24.4835 153.959 24.4835C157.86 24.4835 160.95 23.986 162.39 23.7241L163.202 26.5782C160.845 27.1543 157.023 27.5994 153.619 27.5994C146.261 27.5994 142.857 25.6618 142.857 20.6343C142.857 15.6855 146.627 13.6955 153.252 13.6955C159.405 13.6955 163.569 15.2927 163.569 19.7964C163.569 20.3463 163.516 21.2628 163.464 21.577H146.706ZM159.72 19.4822C159.458 17.3351 157.991 16.3663 153.121 16.3663C148.905 16.3663 147.072 17.1518 146.706 19.4822H159.72ZM185.405 23.6456C185.405 20.582 183.127 19.6132 178.702 19.3513L172.339 18.9324C170.69 18.8276 169.747 18.7229 169.747 17.6231C169.747 16.4972 170.951 16.2877 174.827 16.2877C177.89 16.2877 181.059 16.5758 183.887 17.0471L184.489 14.4548C182.263 14.0882 178.44 13.6693 175.717 13.6693C169.407 13.6693 166.081 14.4025 166.081 17.6493C166.081 20.5034 167.835 21.5246 171.92 21.7603L178.152 22.1269C180.718 22.3102 181.739 22.4673 181.739 23.6194C181.739 24.7191 180.613 24.9548 176.791 24.9548C173.099 24.9548 169.564 24.4573 166.998 23.986L166.343 26.552C168.673 27.0757 172.392 27.5994 176.293 27.5994C182.734 27.5994 185.405 26.7353 185.405 23.6456ZM-5.12442e-05 32.0919L-5.14984e-05 34.9999H2.90802H12.8785V32.0919H2.90802L2.90802 22.1213L-5.03725e-05 22.1213L-5.12442e-05 32.0919ZM198.197 35H195.289H185.318V32.0919H195.289V22.1214H198.197V32.0919V35Z" fill="black"/>
</svg>
