<svg width="83" height="44" viewBox="0 0 83 44" fill="none" xmlns="http://www.w3.org/2000/svg">
<g clip-path="url(#clip0_44_723)">
<path fill-rule="evenodd" clip-rule="evenodd" d="M75.2808 22.176C75.21 22.025 75.1782 21.9491 75.14 21.8766C74.1163 19.9336 73.0952 17.9906 72.0609 16.0476C71.9572 15.8527 71.9704 15.7377 72.1122 15.5697C73.7412 13.6713 75.3492 11.7624 76.9809 9.87192C77.0385 9.80523 77.0899 9.73459 77.1114 9.61565C76.6377 9.7388 76.164 9.86063 75.6877 9.98588C73.7218 10.5058 71.7401 11.023 69.7926 11.5508C69.6097 11.5999 69.5268 11.5466 69.4347 11.3948C68.3188 9.5332 67.1951 7.66633 66.0661 5.82833C66.0084 5.73197 65.9455 5.6385 65.8224 5.55789C65.7318 6.05415 65.6403 6.54778 65.5513 7.04404C65.2381 8.79538 64.925 10.5362 64.6144 12.2954C64.5805 12.4842 64.5341 12.6735 64.5178 12.8626C64.5023 13.0432 64.4089 13.1099 64.2441 13.1619C61.9256 13.8892 59.6123 14.6218 57.2964 15.3544C57.1948 15.3862 57.095 15.4282 56.9858 15.5266C58.8807 16.2776 60.7755 17.0285 62.6967 17.7926C62.6267 17.848 62.5803 17.8911 62.529 17.9239C61.3448 18.688 60.1578 19.4521 58.9762 20.2188C58.8343 20.3112 58.7222 20.3243 58.563 20.2526C57.1471 19.6172 55.7207 18.9923 54.2996 18.3621C53.6627 18.0786 53.0916 17.7031 52.6469 17.1569C51.6389 15.9281 51.8389 14.5312 53.1811 13.6647C53.6206 13.3838 54.1207 13.1764 54.618 13.0136C56.8892 12.2758 59.1709 11.5642 61.4342 10.85C61.6253 10.7893 61.7132 10.7043 61.75 10.4981C62.0553 8.74418 62.3685 6.97971 62.6869 5.24674C62.8564 4.30937 62.9459 3.35098 63.4028 2.48975C63.5778 2.15891 63.787 1.83595 64.0396 1.56025C64.945 0.557234 66.2056 0.520474 67.1714 1.47413C67.4951 1.79709 67.7714 2.17519 68.0109 2.56642C69.0636 4.28101 70.1005 6.0061 71.1427 7.73906C71.2651 7.94308 71.3751 7.98404 71.6006 7.9247C74.1402 7.24464 76.6798 6.57509 79.2326 5.90553C79.759 5.76716 80.2879 5.717 80.8274 5.81757C81.9986 6.03603 82.5118 6.92562 82.1144 8.0573C81.9346 8.57193 81.6222 9.00517 81.2722 9.41741C79.4984 11.4996 77.7194 13.5923 75.9561 15.6666C75.8111 15.8367 75.8082 15.958 75.9087 16.1497C76.972 18.1479 78.0247 20.1408 79.0931 22.1626C79.346 22.6405 79.5405 23.1393 79.5458 23.6881C79.5582 24.9379 78.6405 25.962 77.3957 26.1458C76.6983 26.2474 76.0509 26.0988 75.3956 25.8976C73.8034 25.4066 72.2112 24.9235 70.6058 24.443C70.4576 24.3989 70.4011 24.3403 70.3745 24.1815C70.1913 23.0603 69.9902 21.9418 69.7955 20.8206C69.7905 20.7899 69.7997 20.757 69.805 20.6882C71.6235 21.1898 73.4368 21.6834 75.3053 22.2007" fill="#E25A1C"/>
<path fill-rule="evenodd" clip-rule="evenodd" d="M72.1227 38.5866C70.6858 38.5845 69.2541 38.5774 67.8067 38.5837C67.6164 38.5837 67.5093 38.5293 67.404 38.3681C65.7039 35.7844 63.9828 33.1955 62.2985 30.6223C62.244 30.5404 62.1864 30.4613 62.0898 30.323C61.724 33.1062 61.3634 35.8369 61.0029 38.5677H57.2395C57.2837 38.2027 57.3229 37.8482 57.3692 37.4964C57.7351 34.6869 58.1061 31.9036 58.4746 29.0941C58.8272 26.4159 59.1772 23.7377 59.5352 21.0595C59.5454 20.9804 59.5988 20.8788 59.6636 20.8368C60.9584 19.994 62.2585 19.159 63.5585 18.324C63.5772 18.3117 63.6038 18.3106 63.6707 18.2912C63.2785 21.2845 62.889 24.2515 62.4969 27.2186C62.5124 27.2288 62.5277 27.2401 62.5432 27.2504C64.5828 24.9975 66.6224 22.7342 68.7015 20.4498C68.7612 20.7964 68.8136 21.0931 68.8649 21.3898C69.011 22.2379 69.1518 23.0912 69.307 23.9394C69.3389 24.1105 69.2926 24.215 69.1786 24.3358C67.8601 25.7117 66.5469 27.0928 65.231 28.4844C65.1734 28.5451 65.1189 28.6076 65.0531 28.6795C65.0952 28.746 65.1313 28.8108 65.1734 28.8702C67.4393 32.0473 69.7 35.2244 71.9632 38.4015C72.0043 38.459 72.0638 38.5041 72.1143 38.5553V38.6055" fill="#3C3A3E"/>
<path fill-rule="evenodd" clip-rule="evenodd" d="M27.6462 30.1844C27.5886 29.8929 27.5476 29.4623 27.417 29.0606C26.7854 27.1202 24.7932 26.0673 22.7325 26.5373C20.4666 27.0624 18.8376 28.84 18.627 31.1585C18.4534 32.8652 19.3745 34.5194 21.0851 35.1233C22.4641 35.6196 23.7958 35.4122 25.0327 34.6743C26.667 33.6976 27.5512 32.2456 27.6644 30.1844H27.6462ZM17.6983 37.4051C17.5873 38.24 17.4804 39.0251 17.3772 39.8128C17.2396 40.8579 17.1009 41.9055 16.9693 42.9637C16.9541 43.0858 16.917 43.1401 16.7854 43.1391C15.7511 43.1351 14.7168 43.1362 13.6799 43.1341C13.6562 43.1341 13.6326 43.1218 13.577 43.1055C13.6397 42.6118 13.7005 42.1156 13.7652 41.622C13.9934 39.889 14.2205 38.156 14.4521 36.4231C14.7179 34.438 14.9258 32.4582 15.2653 30.489C15.8653 26.9968 18.8444 24.0035 22.3183 23.242C24.3368 22.8062 26.2659 23.0081 28.0292 24.1426C29.7872 25.2717 30.7925 26.9259 31.0293 28.9739C31.3557 31.8885 30.2793 34.3041 28.2134 36.3259C26.8502 37.6414 25.2132 38.4764 23.3447 38.7599C21.4051 39.0514 19.5813 38.7292 17.9496 37.5889C17.8899 37.5469 17.8252 37.5101 17.7225 37.4455" fill="#3C3A3E"/>
<path fill-rule="evenodd" clip-rule="evenodd" d="M15.9616 20.8632C14.8037 21.7244 13.6852 22.5541 12.5667 23.3865C12.3859 23.1029 12.2246 22.8193 12.0351 22.5541C11.5482 21.8741 10.9429 21.3673 10.0639 21.3069C9.33229 21.2555 8.70594 21.4954 8.20854 22.0342C7.76378 22.5147 7.70588 23.2001 8.12117 23.7436C8.57909 24.3422 9.07912 24.9094 9.5923 25.4634C10.4424 26.3824 11.3292 27.2646 12.1714 28.1941C12.9372 29.0344 13.5504 29.9744 13.7399 31.1349C13.9652 32.5003 13.6917 33.7869 13.0451 34.9947C11.8477 37.2134 9.96601 38.5132 7.46587 38.907C6.3658 39.0843 5.271 39.0496 4.20252 38.7345C2.77876 38.317 1.7866 37.3849 1.14972 36.0825C0.924704 35.6178 0.752326 35.1268 0.549683 34.6279C1.79449 33.9636 3.00772 33.3151 4.2341 32.6613C4.27621 32.7629 4.307 32.8479 4.34621 32.9291C4.55596 33.3466 4.72782 33.7903 4.98572 34.1763C5.75682 35.3185 6.999 35.6651 8.24907 35.1005C8.57277 34.9548 8.88595 34.7513 9.15175 34.515C9.96232 33.7956 10.115 32.7925 9.51493 31.8893C9.17017 31.3694 8.73857 30.902 8.31749 30.4373C7.31217 29.324 6.26475 28.2448 5.29101 27.1026C4.61465 26.3202 4.1541 25.4117 4.00672 24.3719C3.8475 23.2271 4.07673 22.1506 4.67255 21.1948C6.15421 18.8028 8.30434 17.5713 11.1466 17.6501C12.7704 17.7087 14.0678 18.4667 15.0679 19.727C15.3653 20.0999 15.6442 20.4859 15.9469 20.8902" fill="#3C3A3E"/>
<path fill-rule="evenodd" clip-rule="evenodd" d="M43.4367 33.5978C43.2475 35.0393 43.0683 36.4073 42.8841 37.7726C42.8738 37.8425 42.8193 37.9367 42.7606 37.9635C39.9447 39.2606 36.2603 39.0794 33.9707 36.4695C32.7337 35.0674 32.2153 33.3974 32.2916 31.5594C32.4714 27.2795 36.0287 23.5248 40.2921 22.9996C42.7791 22.695 44.9502 23.3646 46.6345 25.2945C47.782 26.6073 48.3136 28.1828 48.2346 29.9157C48.1833 31.0605 48.0033 32.1975 47.8609 33.3291C47.6583 34.9413 47.4372 36.5588 47.224 38.1604C47.2159 38.2166 47.2046 38.2741 47.1912 38.3471H43.8489C43.8931 37.9769 43.9341 37.6146 43.9815 37.2522C44.2241 35.3906 44.492 33.5237 44.7052 31.6595C44.8379 30.4989 44.7544 29.3462 44.221 28.2723C43.6552 27.1301 42.7077 26.5236 41.4577 26.3923C38.8733 26.1192 36.4047 27.91 35.8784 30.4359C35.5152 32.1111 36.0881 33.718 37.4259 34.6108C38.7286 35.4746 40.1102 35.4772 41.5314 34.918C42.2524 34.6344 42.863 34.1828 43.4472 33.5762" fill="#3C3A3E"/>
<path fill-rule="evenodd" clip-rule="evenodd" d="M57.648 23.4362C57.4949 24.5968 57.3427 25.739 57.1901 26.9022C56.4795 26.9022 55.7848 26.8982 55.09 26.9032C54.5268 26.9074 54.0136 27.2708 53.8425 27.7959C53.7768 28.001 53.7523 28.2213 53.7233 28.4366C53.3707 31.1148 53.0207 33.7668 52.6706 36.4188C52.5822 37.0909 52.4969 37.7631 52.4085 38.4458H48.9083C48.9731 37.9338 49.0346 37.4375 49.0994 36.9413C49.3265 35.2136 49.5547 33.4753 49.7836 31.7686C49.9821 30.2746 50.16 28.7753 50.3942 27.2787C50.7074 25.2831 52.697 23.4977 54.7102 23.4189C55.6734 23.3769 56.6393 23.4118 57.6314 23.4118" fill="#3C3A3E"/>
<path d="M76.3338 38.5864V37.116H76.3256L75.7467 38.5864H75.5627L74.9837 37.116H74.9745V38.5864H74.685V36.8245H75.1351L75.6614 38.1636L76.1799 36.8245H76.6272V38.5864H76.3338ZM73.7705 37.0608V38.5864H73.481V37.0608H72.9283V36.8248H74.3258V37.0608H73.7731" fill="#3C3A3E"/>
<path d="M20.6199 18.3947H21.4857L21.281 17.0871L20.6199 18.3947ZM21.6226 19.2402H20.183L19.7251 20.1356H18.704L20.9541 15.9344H21.9384L22.7042 20.1356H21.7594L21.6236 19.2402" fill="#3C3A3E"/>
<path d="M26.778 16.7934H26.2649L26.0922 17.7622H26.6054C26.9159 17.7622 27.1607 17.5593 27.1607 17.1767C27.1607 16.9233 27.0065 16.7934 26.7765 16.7934H26.778ZM25.5359 15.9479H26.8833C27.5886 15.9479 28.0807 16.368 28.0807 17.0874C28.0807 17.9959 27.4386 18.6051 26.5228 18.6051H25.9411L25.6674 20.1411H24.7885L25.5306 15.94" fill="#3C3A3E"/>
<path d="M31.0678 18.3947H31.9337L31.7292 17.0871L31.0678 18.3947ZM32.0679 19.2402H30.6283L30.1704 20.1356H29.1493L31.3994 15.9344H32.3837L33.1495 20.1356H32.2047L32.0689 19.2402" fill="#3C3A3E"/>
<path d="M37.6472 19.9964C37.3498 20.1319 37.0235 20.2128 36.6945 20.2128C35.5813 20.2128 34.8839 19.3804 34.8839 18.338C34.8839 17.0042 36.0077 15.883 37.3446 15.883C37.6788 15.883 37.9815 15.9631 38.2288 16.0983L38.1054 17.1039C37.9204 16.8999 37.6212 16.7574 37.2527 16.7574C36.4869 16.7574 35.8053 17.4479 35.8053 18.2488C35.8053 18.8579 36.1895 19.3358 36.7948 19.3358C37.1659 19.3358 37.5238 19.1932 37.7659 18.9971L37.6488 19.9948" fill="#3C3A3E"/>
<path d="M43.1735 18.4472H41.3444L41.047 20.1356H40.1707L40.9128 15.9344H41.7918L41.497 17.5939H43.3261L43.6235 15.9344H44.5025L43.7603 20.1356H42.8813L43.1761 18.4472" fill="#3C3A3E"/>
<path d="M46.3317 20.1278L47.0738 15.9267H49.4055L49.2574 16.7722H47.8046L47.6565 17.5861H48.9908L48.8426 18.4316H47.5083L47.3601 19.2771H48.8129L48.6647 20.1226H46.333" fill="#3C3A3E"/>
</g>
<defs>
<clipPath id="clip0_44_723">
<rect width="81.92" height="42.4456" fill="white" transform="translate(0.540405 0.776733)"/>
</clipPath>
</defs>
</svg>
