<svg width="75" height="50" viewBox="0 0 75 50" fill="none" xmlns="http://www.w3.org/2000/svg">
<path d="M9.1566 41.2085C9.76466 41.2085 10.3407 41.3525 10.6291 41.6405C10.6771 42.0889 10.2767 42.809 10.0207 42.809C9.71666 42.697 9.42863 42.6327 9.07659 42.6327C7.62045 42.6327 6.90004 44.1372 6.90004 45.6254C6.90004 46.5535 7.22007 47.1139 7.95648 47.1139C8.74056 47.1139 9.54064 46.5858 9.98868 46.1858C10.1007 46.2654 10.2447 46.5218 10.2447 46.8098C10.2447 47.1299 10.1487 47.4339 9.86067 47.722C9.34862 48.234 8.48453 48.6661 7.23608 48.6661C5.79593 48.6661 4.80383 47.85 4.80383 45.9454C4.80383 43.4491 6.452 41.2085 9.1406 41.2085H9.1566Z" fill="#373535"/>
<path d="M13.8606 47.0338C14.6447 47.0338 16.0692 45.6573 16.4692 43.033C16.4852 42.873 16.5012 42.825 16.5332 42.6649C16.3572 42.6009 16.1172 42.5529 15.8768 42.5529C15.2848 42.5529 14.6767 42.729 14.1327 43.465C13.5726 44.2491 13.3326 45.2253 13.3326 46.0097C13.3326 46.6814 13.5246 47.0338 13.8446 47.0338H13.8606ZM11.2841 46.3137C11.2841 45.3696 11.6041 43.7211 12.8045 42.5209C13.8286 41.4648 15.0768 41.2084 16.2132 41.2084C16.9653 41.2084 17.9894 41.4485 18.6295 41.5768C18.4694 42.2809 18.0854 44.9372 17.9094 46.4734C17.8294 47.1298 17.7974 48.0419 17.8294 48.378C17.3013 48.602 16.3092 48.666 16.0369 48.666C15.8932 48.666 15.8608 48.0099 15.9092 47.3859C15.9249 47.1778 15.9572 46.8738 15.9729 46.7458C15.3488 47.7859 14.1167 48.666 12.8205 48.666C11.8925 48.666 11.2841 47.8979 11.2841 46.3297V46.3137Z" fill="#373535"/>
<path d="M22.6135 41.2085C23.2695 41.2085 23.8936 41.4485 24.182 41.7526C24.166 42.201 23.8139 42.9527 23.2535 42.7447C23.0135 42.6647 22.7735 42.601 22.4535 42.601C22.0214 42.601 21.6534 42.793 21.6534 43.1927C21.6534 43.4968 21.8774 43.7211 22.9495 44.4732C23.7179 45.0333 24.0219 45.5294 24.0219 46.2334C24.0219 47.4019 22.9175 48.6661 20.9973 48.6661C20.2132 48.6661 19.5248 48.362 19.3008 48.042C19.0128 47.5619 19.2368 46.6178 19.5572 46.7775C19.9732 46.9855 20.6613 47.2099 21.2213 47.2099C21.7494 47.2099 22.0854 46.9695 22.0854 46.6495C22.0854 46.3778 21.8454 46.1374 20.8693 45.4493C20.0529 44.8413 19.7969 44.2812 19.7969 43.6411C19.7969 42.313 20.9333 41.2085 22.5975 41.2085H22.6135Z" fill="#373535"/>
<path d="M28.1336 41.2085C28.79 41.2085 29.4141 41.4485 29.7021 41.7526C29.6861 42.201 29.3344 42.9527 28.774 42.7447C28.534 42.6647 28.2936 42.601 27.9739 42.601C27.5419 42.601 27.1738 42.793 27.1738 43.1927C27.1738 43.4968 27.3979 43.7211 28.47 44.4732C29.238 45.0333 29.5421 45.5294 29.5421 46.2334C29.5421 47.4019 28.4376 48.6661 26.5174 48.6661C25.7334 48.6661 25.0453 48.362 24.8213 48.042C24.5332 47.5619 24.7573 46.6178 25.0773 46.7775C25.4933 46.9855 26.1814 47.2099 26.7415 47.2099C27.2695 47.2099 27.6055 46.9695 27.6055 46.6495C27.6055 46.3778 27.3655 46.1374 26.3894 45.4493C25.5733 44.8413 25.3173 44.2812 25.3173 43.6411C25.3173 42.313 26.4534 41.2085 28.1179 41.2085H28.1336Z" fill="#373535"/>
<path d="M33.1739 47.0338C33.9583 47.0338 35.3824 45.6573 35.7825 43.033C35.7985 42.873 35.8148 42.825 35.8468 42.6649C35.6705 42.6009 35.4308 42.5529 35.1904 42.5529C34.5984 42.5529 33.9903 42.729 33.4459 43.465C32.8862 44.2491 32.6458 45.2253 32.6458 46.0097C32.6458 46.6814 32.8378 47.0338 33.1582 47.0338H33.1739ZM30.5973 46.3137C30.5973 45.3696 30.9177 43.7211 32.1178 42.5209C33.1419 41.4648 34.39 41.2084 35.5264 41.2084C36.2785 41.2084 37.303 41.4485 37.943 41.5768C37.783 42.2809 37.399 44.9372 37.223 46.4734C37.1426 47.1298 37.1109 48.0419 37.1426 48.378C36.6146 48.602 35.6228 48.666 35.3504 48.666C35.2067 48.666 35.1744 48.0099 35.2224 47.3859C35.2384 47.1778 35.2704 46.8738 35.2864 46.7458C34.6624 47.7859 33.4302 48.666 32.1341 48.666C31.2057 48.666 30.5973 47.8979 30.5973 46.3297V46.3137Z" fill="#373535"/>
<path d="M41.5587 43.2887C42.2951 42.1046 43.2549 41.2085 44.5993 41.2085C45.7354 41.2085 46.1035 42.2646 45.8958 43.7688C45.7838 44.4732 45.5918 45.4814 45.4634 46.4095C45.3514 47.1939 45.2714 47.8976 45.2877 48.378C44.8717 48.5861 43.6552 48.6661 43.3832 48.6661C43.2712 48.6661 43.2549 47.7856 43.3992 46.8575C43.5269 46.0894 43.7992 44.6973 43.9273 43.8968C44.0076 43.4331 43.9913 42.8727 43.5432 42.8727C42.9508 42.8727 41.543 43.8171 40.8386 47.6896C40.7903 48.0097 40.6626 48.2017 40.4862 48.3137C40.2466 48.4581 39.7342 48.5861 38.6944 48.6021C38.8864 47.6259 39.1904 45.6254 39.4145 44.1532C39.6222 42.809 39.7025 41.9446 39.6542 41.6085C39.9265 41.5125 41.351 41.2085 41.5103 41.2085C41.687 41.2085 41.7187 41.7046 41.5587 42.905C41.543 43.017 41.5267 43.1927 41.5103 43.2887H41.5587Z" fill="#373535"/>
<path d="M49.6878 47.0178C50.3915 47.0178 51.8163 45.7053 52.2161 43.385C52.2324 43.257 52.2804 43.017 52.3124 42.8726C52.104 42.6806 51.832 42.5526 51.4003 42.5526C49.7835 42.5526 49.0634 44.4892 49.0634 45.8817C49.0634 46.6338 49.3198 47.0178 49.6715 47.0178H49.6878ZM48.6317 48.666C47.6076 48.666 46.9675 47.7539 46.9675 46.1857C46.9675 43.5931 48.5834 41.2084 51.304 41.2084C51.7843 41.2084 52.2161 41.3365 52.4881 41.4965C52.6321 40.7604 52.9681 38.4878 52.9845 37.8157C53.4322 37.7357 54.3926 37.592 54.8243 37.592C55.001 37.592 55.049 37.7677 54.9847 38.1677C54.6003 40.5684 53.9129 45.1773 53.7845 46.2017C53.6882 47.0658 53.6725 47.9139 53.6882 48.394C53.1765 48.618 52.136 48.666 51.8644 48.666C51.7517 48.666 51.688 47.9299 51.72 47.2738C51.7363 47.0658 51.768 46.7614 51.768 46.7138C50.9679 48.0259 49.8635 48.666 48.6474 48.666H48.6317Z" fill="#373535"/>
<path d="M58.0083 43.5132C58.8567 41.6246 59.8644 41.2085 60.5208 41.2085C60.7292 41.2085 61.0489 41.3366 61.1929 41.4966C61.2573 42.0246 60.8412 43.0808 60.4728 43.4808C60.2805 43.3848 60.0411 43.2888 59.7688 43.2888C59.2244 43.2888 58.1523 44.1372 57.4802 47.7857C57.4319 48.09 57.3362 48.2181 57.1605 48.2981C56.8885 48.4581 55.816 48.5861 55.3043 48.6021C55.5437 47.2896 55.9597 44.6173 56.1201 43.0488C56.1681 42.6487 56.1837 41.9126 56.1521 41.6246C56.4561 41.4806 57.6566 41.2085 57.9283 41.2085C58.0726 41.2085 58.1846 42.089 57.9599 43.5132H58.0083Z" fill="#373535"/>
<path d="M63.6566 47.0338C64.4413 47.0338 65.8652 45.6573 66.2655 43.033C66.2812 42.873 66.2975 42.825 66.3295 42.6649C66.1535 42.6009 65.9135 42.5529 65.6731 42.5529C65.0811 42.5529 64.473 42.729 63.9286 43.465C63.3689 44.2491 63.1286 45.2253 63.1286 46.0097C63.1286 46.6814 63.3206 47.0338 63.6409 47.0338H63.6566ZM61.08 46.3137C61.08 45.3696 61.4004 43.7211 62.6005 42.5209C63.6246 41.4648 64.8727 41.2084 66.0092 41.2084C66.7612 41.2084 67.7853 41.4485 68.4261 41.5768C68.2657 42.2809 67.8817 44.9372 67.7057 46.4734C67.6257 47.1298 67.5933 48.0419 67.6257 48.378C67.0976 48.602 66.1055 48.666 65.8332 48.666C65.6895 48.666 65.6575 48.0099 65.7051 47.3859C65.7211 47.1778 65.7531 46.8738 65.7695 46.7458C65.1451 47.7859 63.9133 48.666 62.6168 48.666C61.6884 48.666 61.08 47.8979 61.08 46.3297V46.3137Z" fill="#373535"/>
<path d="M58.9568 14.0897C59.4848 20.2411 49.8042 26.0958 37.3349 27.1656C24.8657 28.2354 14.3293 24.1149 13.8019 17.9639C13.2739 11.8114 22.9545 5.95705 35.4237 4.88725C47.893 3.81779 58.4294 7.93729 58.9568 14.0897Z" fill="#BBE6FB"/>
<g opacity="0.350006">
<g opacity="0.350006">
<path opacity="0.350006" d="M35.7897 5.60869C31.0333 5.53134 25.4674 7.41991 21.326 9.18846C20.8949 10.4306 20.6629 11.7518 20.6629 13.1213C20.6629 20.4182 27.2516 26.3342 35.3794 26.3342C43.5072 26.3342 50.0958 20.4182 50.0958 13.1213C50.0958 10.812 49.4344 8.64239 48.2747 6.75349C44.9613 6.23843 40.4042 5.68369 35.7897 5.60869Z" fill="white"/>
</g>
</g>
<path d="M35.3794 5.60776C32.7462 5.44707 28.2074 6.82091 24.4227 8.19141C23.8476 9.54857 23.5283 11.0338 23.5283 12.5923C23.5283 18.9857 29.3248 24.1687 35.4568 24.1687C41.5484 24.1687 46.9379 18.9774 47.3853 12.5923C47.5307 10.513 46.8149 8.55379 45.8211 6.86458C41.8974 6.17349 37.7333 5.75144 35.3794 5.60776Z" fill="white"/>
<path d="M28.6214 11.7526C28.9444 11.0372 29.4338 10.6868 29.9078 10.0871C29.8552 9.94508 29.7398 9.48069 29.7398 9.31967C29.7398 8.60091 30.3229 8.01751 31.042 8.01751C31.2116 8.01751 31.3737 8.05118 31.522 8.11019C33.6772 6.46765 36.5145 5.75156 39.3658 6.38898C39.6261 6.44765 39.8815 6.51866 40.1322 6.59667C37.3142 6.20595 34.1379 7.20408 31.9774 8.94796C32.0434 9.10364 32.2264 9.5487 32.2264 9.72772C32.2264 10.4468 31.761 10.6218 31.042 10.6218C30.8786 10.6218 30.7226 10.5905 30.5782 10.5355C30.0902 11.1909 29.4921 12.4394 29.1994 13.2198C30.3942 14.2886 31.4737 14.676 32.8805 15.2017C32.8768 15.1347 32.9288 15.0727 32.9288 15.0044C32.9288 12.8364 34.8373 11.0745 37.0055 11.0745C38.9484 11.0745 40.5572 12.4874 40.8713 14.3409C41.8407 13.7242 42.7781 13.2515 43.4925 12.3374C43.3258 12.134 43.1462 11.5583 43.1462 11.2749C43.1462 10.6225 43.6755 10.0934 44.3279 10.0934C44.4203 10.0934 44.509 10.1068 44.5953 10.1268C44.958 9.38134 45.2317 8.59125 45.4067 7.77648C42.0164 5.26651 35.4567 5.60888 35.4567 5.60888C35.4567 5.60888 30.2369 5.33651 26.7032 7.05872C26.9389 8.7626 27.6186 10.3825 28.6214 11.7526Z" fill="#373535"/>
<path d="M44.8259 10.7745C45.0655 10.9906 45.1962 11.1802 45.2992 11.3649C45.6163 11.935 44.9802 12.4567 44.3278 12.4567C44.2615 12.4567 44.1975 12.4477 44.1338 12.4371C43.3987 13.5859 42.1113 15.0591 40.9675 15.8005C42.7213 16.0878 44.3751 16.7903 45.6913 17.8757C46.6497 16.1585 47.3848 13.6789 47.3848 11.5726C47.3848 9.96943 46.677 8.79429 45.6086 7.93218C45.5526 8.79095 45.0942 9.9921 44.8259 10.7745Z" fill="#373535"/>
<path d="M30.5891 21.6512C31.1735 20.0373 32.6109 18.7868 33.9707 17.6867C33.7717 17.4143 33.4734 16.7399 33.349 16.4205C31.6905 15.9161 30.223 14.972 29.0849 13.7222C29.0766 13.7586 29.0662 13.7939 29.0576 13.8302C28.8432 14.7907 28.8039 15.7531 28.9106 16.6919C29.7046 16.8399 30.3057 17.5357 30.3057 18.3728C30.3057 18.8692 29.8707 19.5886 29.533 19.9016C29.9 20.6937 30.1504 21.0758 30.5891 21.6512Z" fill="#373535"/>
<path d="M30.4861 23.0058C29.789 22.3127 29.3069 20.9302 28.8546 20.0621C28.7699 20.0751 28.6832 20.0841 28.5945 20.0841C27.6491 20.0841 26.6587 19.2907 26.8827 18.3726C27.0067 17.8645 27.3574 17.5322 27.9285 17.2548C27.7985 16.2023 27.7631 14.6895 28.0075 13.5953C28.0775 13.2823 28.2258 13.1356 28.3242 12.8376C27.2811 11.3111 26.607 9.30748 26.607 7.31957C26.607 7.2469 26.6107 7.17522 26.6123 7.10321C24.8495 7.98732 23.5277 9.38016 23.5277 11.5728C23.5277 16.4227 26.321 21.1803 30.4771 23.0452C30.4801 23.0322 30.4827 23.0188 30.4861 23.0058Z" fill="#373535"/>
<path d="M40.7058 16.3013C40.1687 17.8288 38.7166 18.9259 37.0054 18.9259C36.09 18.9259 35.2502 18.6102 34.5828 18.0855C33.207 19.157 31.9589 21.0392 31.3245 22.6721C31.6092 22.9784 31.8076 23.2305 32.1269 23.5022C33.0894 23.7529 34.4148 23.5022 35.4566 23.5022C39.647 23.5022 43.3584 21.6379 45.4863 18.3689C44.0715 17.3891 42.4026 16.4566 40.7058 16.3013Z" fill="#373535"/>
<path d="M28.5141 12.3191C28.8372 11.6037 29.2422 10.9416 29.7159 10.3419C29.6633 10.2002 29.6326 10.0472 29.6326 9.88613C29.6326 9.16738 30.2156 8.58397 30.9347 8.58397C31.1044 8.58397 31.2664 8.61764 31.4148 8.67665C33.57 7.03412 36.4073 6.31803 39.2585 6.95544C39.5189 7.01411 39.7743 7.08512 40.025 7.16313C37.207 6.77242 34.2954 7.63619 32.1348 9.3804C32.2008 9.53576 32.2368 9.70711 32.2368 9.88613C32.2368 10.6052 31.6538 11.1883 30.9347 11.1883C30.7714 11.1883 30.6153 11.157 30.471 11.1019C29.983 11.7574 29.5839 12.4815 29.2912 13.2622C30.3173 14.368 31.5768 15.2425 32.9833 15.7682C32.9799 15.7012 32.9729 15.6348 32.9729 15.5665C32.9729 13.3986 34.7301 11.641 36.8983 11.641C38.8412 11.641 40.45 13.0539 40.764 14.9074C41.7335 14.2907 42.5949 13.4986 43.309 12.5845C43.1423 12.3811 43.0389 12.1247 43.0389 11.8414C43.0389 11.189 43.5683 10.6599 44.2207 10.6599C44.3131 10.6599 44.4017 10.6732 44.4881 10.6932C44.8508 9.94781 45.1245 9.15771 45.2995 8.34294C41.9091 5.83297 35.3495 6.17534 35.3495 6.17534C35.3495 6.17534 30.1296 5.90298 26.5959 7.62519C26.8316 9.32906 27.5114 10.9489 28.5141 12.3191Z" fill="#1287B1"/>
<path d="M45.0091 10.9676C45.2488 11.1837 45.4025 11.4934 45.4025 11.8414C45.4025 12.4938 44.8731 13.0232 44.2207 13.0232C44.1544 13.0232 44.0904 13.0142 44.0267 13.0036C43.2916 14.1524 42.3175 15.1318 41.1734 15.8732C42.8642 16.1376 44.4557 16.855 45.7715 17.9405C46.73 16.2233 47.2777 14.2454 47.2777 12.1391C47.2777 10.5359 46.5699 9.36077 45.5015 8.49866C45.4455 9.35744 45.2775 10.1852 45.0091 10.9676Z" fill="#1287B1"/>
<path d="M30.7696 22.0385C31.354 20.4246 32.3695 18.9765 33.7293 17.8767C33.5302 17.604 33.3662 17.3063 33.2419 16.9869C31.583 16.4825 30.1159 15.5384 28.9778 14.2886C28.9694 14.3249 28.9588 14.3602 28.9504 14.3966C28.7358 15.357 28.6964 16.3195 28.8034 17.2583C29.5972 17.4063 30.1986 18.102 30.1986 18.9391C30.1986 19.4355 29.9856 19.8819 29.6479 20.195C29.9542 20.8444 30.3309 21.4631 30.7696 22.0385Z" fill="#1287B1"/>
<path d="M30.4817 22.9857C29.7846 22.2926 29.1996 21.4965 28.7475 20.6287C28.6625 20.6417 28.5759 20.6504 28.4875 20.6504C27.5421 20.6504 26.7757 19.884 26.7757 18.9389C26.7757 18.2614 27.1704 17.6774 27.7414 17.4C27.6118 16.3479 27.6558 15.2557 27.9005 14.1616C27.9705 13.8489 28.0558 13.5435 28.1542 13.2452C27.111 11.719 26.5 9.87375 26.5 7.88584C26.5 7.81316 26.5033 7.74148 26.505 7.66981C24.7421 8.55358 23.4203 9.94675 23.4203 12.139C23.4203 16.9893 26.3166 21.1601 30.4727 23.025C30.4757 23.012 30.4784 22.9987 30.4817 22.9857Z" fill="#1287B1"/>
<path d="M40.5985 16.8675C40.0614 18.3951 38.6093 19.4922 36.8981 19.4922C35.9827 19.4922 35.1429 19.1765 34.4755 18.6518C33.0997 19.7232 32.0613 21.1837 31.4272 22.8169C31.7116 23.1233 32.0156 23.412 32.335 23.6834C33.2978 23.9341 34.3075 24.0684 35.3493 24.0684C39.5397 24.0684 43.2238 21.9048 45.3516 18.6361C43.9368 17.656 42.2953 17.0229 40.5985 16.8675Z" fill="#1287B1"/>
<path d="M40.7363 15.8553L44.363 14.9902L40.7226 14.8045L43.6852 12.5402L40.3236 13.7454L42.6081 10.5793L39.4528 12.6766L40.5559 8.97046L38.389 12.0252L38.3397 8.16503L36.9139 11.6035L35.7251 8.12402L35.7894 12.2229L33.7349 8.54874L34.8467 12.4499L31.514 10.0263L34.1246 13.3067L29.9872 11.7851L33.2525 14.2011L29.0654 14.3298L33.3465 15.4346L29.0618 16.361L33.2912 16.6677L29.7245 18.9517L33.3972 17.6202L30.8489 20.8476L34.0689 18.2506L32.9095 22.5815L35.3954 19.057L35.047 23.2195L36.4582 19.4461L37.6593 23.4122L37.9513 19.4341L39.7342 22.8282L38.6807 18.946L41.9454 21.475L39.8378 18.2506L43.4195 19.6461L40.6809 16.9548L44.3533 17.2435L40.7363 15.8553Z" fill="white"/>
<g opacity="0.350006">
<g opacity="0.350006">
<path opacity="0.350006" d="M2.12573 22.7962C13.3735 11.5485 22.3568 8.07607 30.5096 6.49087C31.5883 6.28118 31.7924 3.92389 31.7924 3.92389C31.7924 3.92389 31.9434 5.6601 32.6985 5.88646C33.4532 6.11316 34.4343 3.1688 34.4343 3.1688C34.4343 3.1688 33.5285 5.81112 34.4343 5.96214C35.3404 6.11316 37.0009 3.39549 37.0009 3.39549C37.0009 3.39549 36.3218 5.73545 36.7749 5.88646C37.2272 6.03748 39.4918 2.48972 39.4918 2.48972C39.4918 2.48972 38.133 4.82967 39.4165 5.05636C40.7002 5.28272 42.5724 3.45917 42.5724 3.45917C42.5724 3.45917 41.1003 5.1277 41.7564 5.35807C44.5496 6.33985 46.8099 2.70941 46.8099 2.70941C46.8099 2.70941 46.2861 4.30127 44.9273 6.03748C47.871 6.79224 50.0575 2.35736 50.0575 2.35736L47.871 6.79224C49.0034 7.39665 53.5332 2.18768 53.5332 2.18768C53.5332 2.18768 51.193 6.26418 49.8342 7.09428C50.5889 7.69835 53.3065 5.28272 53.3065 5.28272C53.3065 5.28272 51.1173 8.00006 51.9477 8.15107C53.1555 9.13253 57.6089 3.09345 57.6089 3.09345C57.6089 3.09345 55.8731 6.64122 53.3065 9.43456C55.4517 10.5077 60.7799 3.62185 60.7799 3.62185C60.7799 3.62185 60.6289 5.81112 56.7789 9.28355C59.6475 8.90617 63.3465 3.47083 63.3465 3.47083C63.3465 3.47083 61.9877 7.54733 58.7414 10.4157C61.558 10.1226 66.0634 3.1688 66.0634 3.1688C66.0634 3.1688 64.3276 8.00006 60.7799 10.7934C64.7053 11.6615 70.3669 5.81112 70.3669 5.81112C70.3669 5.81112 68.14 9.9633 65.2334 11.6615C68.4797 12.907 72.9335 7.77369 72.9335 7.77369C72.9335 7.77369 68.4797 14.6435 61.384 14.3415C59.0557 14.2425 52.0134 7.27797 36.9255 7.84937C16.9969 8.60446 12.7698 17.0592 2.12573 22.7962Z" fill="#373535"/>
</g>
</g>
<path d="M2.58704 21.9413C13.8348 10.6936 22.8177 7.22154 30.9705 5.63601C32.0496 5.42632 32.2537 3.06937 32.2537 3.06937C32.2537 3.06937 32.4043 4.80591 33.1598 5.03194C33.9145 5.2583 34.8956 2.31461 34.8956 2.31461C34.8956 2.31461 33.9898 4.95693 34.8956 5.10762C35.8017 5.2583 37.4622 2.54097 37.4622 2.54097C37.4622 2.54097 36.7831 4.88092 37.2355 5.03194C37.6885 5.18296 39.9531 1.63486 39.9531 1.63486C39.9531 1.63486 38.5943 3.97514 39.8778 4.20151C41.1609 4.4282 43.0337 2.60464 43.0337 2.60464C43.0337 2.60464 41.5616 4.27318 42.2177 4.50354C45.0109 5.485 47.2705 1.85489 47.2705 1.85489C47.2705 1.85489 46.7468 3.44674 45.3886 5.18296C48.3323 5.93805 50.5188 1.50251 50.5188 1.50251L48.3323 5.93805C49.4647 6.54179 53.9938 1.33349 53.9938 1.33349C53.9938 1.33349 51.6543 5.40932 50.2955 6.23976C51.0502 6.84383 53.7678 4.4282 53.7678 4.4282C53.7678 4.4282 51.5786 7.14587 52.409 7.29655C53.6168 8.27834 58.0702 2.23893 58.0702 2.23893C58.0702 2.23893 56.3337 5.78703 53.7678 8.58004C55.913 9.65351 61.2412 2.76733 61.2412 2.76733C61.2412 2.76733 61.0902 4.95693 57.2402 8.42936C60.1088 8.05164 63.8078 2.61631 63.8078 2.61631C63.8078 2.61631 62.449 6.69281 59.2027 9.5615C62.0193 9.26846 66.5248 2.31461 66.5248 2.31461C66.5248 2.31461 64.7889 7.14587 61.2412 9.93888C65.1666 10.807 70.8282 4.95693 70.8282 4.95693C70.8282 4.95693 68.6013 9.10844 65.6947 10.807C68.941 12.0525 73.3948 6.91917 73.3948 6.91917C73.3948 6.91917 68.941 13.789 61.8446 13.487C59.5171 13.3876 52.4747 6.42311 37.3865 6.99485C17.4582 7.74961 13.2308 16.2043 2.58704 21.9413Z" fill="#373535"/>
<g opacity="0.350006">
<g opacity="0.350006">
<path opacity="0.350006" d="M1.83105 24.0266C7.77565 27.0086 13.2112 23.5738 20.0615 25.5044C25.2697 26.9726 31.611 28.7825 40.2162 27.5367C48.8217 26.2915 56.1821 22.5547 59.6928 15.8736C60.7873 12.8922 65.2407 16.5533 65.2407 16.5533C65.2407 16.5533 61.9951 15.1945 62.0707 15.8362C62.1461 16.4776 66.9395 18.7046 66.9395 18.7046C66.9395 18.7046 62.5988 17.3457 62.8631 18.3649C63.1275 19.384 68.2977 23.4605 68.2977 23.4605C68.2977 23.4605 62.4478 19.0066 61.9574 19.6104C61.4663 20.2144 64.4483 22.6681 64.4483 22.6681C64.4483 22.6681 59.5038 19.6104 57.7673 20.5121C56.5185 21.1599 62.9008 25.3481 62.9008 25.3481C62.9008 25.3481 58.7487 22.177 57.7673 23.0074C56.7862 23.8382 62.4478 30.632 62.4478 30.632C62.4478 30.632 56.0308 23.6869 55.3897 24.0266C54.7477 24.3663 57.1632 27.688 57.1632 27.688C57.1632 27.688 53.9929 24.2153 53.1252 24.8193C52.2571 25.4234 57.6543 34.4442 57.6543 34.4442C57.6543 34.4442 51.804 25.197 49.3885 26.7439C53.1818 35.0669 51.7664 36.2561 51.7664 36.2561C51.7664 36.2561 51.2823 27.765 46.5575 27.9897C44.1796 28.1031 47.6896 34.3308 47.6896 34.3308C47.6896 34.3308 44.459 28.6428 42.3074 28.7561C46.2728 36.2607 44.8593 39.3131 44.8593 39.3131C44.8593 39.3131 45.5151 32.9037 40.1369 29.3369C42.1747 31.1481 38.8581 39.3131 38.8581 39.3131C38.8581 39.3131 41.7757 27.2813 36.7062 29.5752C35.9051 29.937 36.6495 35.5767 36.6495 35.5767C36.6495 35.5767 35.6304 29.1219 34.1023 29.4619C33.2112 29.6596 28.4404 38.4073 28.4404 38.4073C28.4404 38.4073 32.3471 28.9522 31.1583 29.3486C30.2922 29.6376 28.6671 33.5384 28.6671 33.5384C28.6671 33.5384 29.4595 29.6883 28.6671 29.4619C27.8747 29.2352 23.4582 33.5384 23.4582 33.5384C23.4582 33.5384 26.7422 29.6883 26.1758 28.8955C25.3177 27.6944 24.312 27.638 23.1185 28.1031C21.382 28.7798 19.0424 31.9529 19.0424 31.9529C19.0424 31.9529 21.3747 28.7401 20.967 27.5367C20.3126 25.6031 13.6072 31.2735 13.6072 31.2735C13.6072 31.2735 17.5703 27.5367 16.6645 26.7439C15.7588 25.9515 10.8403 26.1965 9.30447 26.1922C4.77535 26.1782 3.20586 25.1157 1.83105 24.0266Z" fill="#373535"/>
</g>
</g>
<path d="M1.60522 23.3464C7.54982 26.3284 12.985 22.8937 19.8354 24.8246C25.0436 26.2921 31.3852 28.1023 39.9907 26.8565C48.5962 25.611 55.956 21.8742 59.4667 15.1937C60.5611 12.212 65.0145 15.8728 65.0145 15.8728C65.0145 15.8728 61.7689 14.5143 61.8446 15.1561C61.9199 15.7975 66.7134 18.0244 66.7134 18.0244C66.7134 18.0244 62.3726 16.6659 62.637 17.685C62.9013 18.7038 68.0722 22.7803 68.0722 22.7803C68.0722 22.7803 62.2216 18.3261 61.7312 18.9305C61.2408 19.5343 64.2225 21.9876 64.2225 21.9876C64.2225 21.9876 59.2776 18.9305 57.5415 19.8316C56.2923 20.4797 62.6746 24.6676 62.6746 24.6676C62.6746 24.6676 58.5226 21.4968 57.5415 22.3273C56.56 23.158 62.2223 29.9519 62.2223 29.9519C62.2223 29.9519 55.805 23.0067 55.1636 23.3464C54.5222 23.6864 56.9377 27.0075 56.9377 27.0075C56.9377 27.0075 53.7668 23.5351 52.899 24.1392C52.0309 24.7429 57.4281 33.764 57.4281 33.764C57.4281 33.764 51.5779 24.5165 49.1623 26.0641C52.9557 34.3867 51.5402 35.5759 51.5402 35.5759C51.5402 35.5759 51.0562 27.0849 46.3313 27.3099C43.9534 27.4232 47.4635 33.6507 47.4635 33.6507C47.4635 33.6507 44.2328 27.9623 42.0816 28.0756C46.0473 35.5806 44.6332 38.6329 44.6332 38.6329C44.6332 38.6329 45.2889 32.2231 39.9107 28.6564C41.9486 30.4679 38.6319 38.6329 38.6319 38.6329C38.6319 38.6329 41.5502 26.6011 36.4807 28.8951C35.6796 29.2571 36.424 34.8965 36.424 34.8965C36.424 34.8965 35.4043 28.442 33.8764 28.7817C32.985 28.9794 28.2142 37.7272 28.2142 37.7272C28.2142 37.7272 32.1209 28.272 30.9321 28.6687C30.0661 28.9571 28.4409 32.8579 28.4409 32.8579C28.4409 32.8579 29.2336 29.0081 28.4409 28.7817C27.6485 28.5554 23.2324 32.8579 23.2324 32.8579C23.2324 32.8579 26.5164 29.0081 25.9497 28.2153C25.0916 27.0142 24.0858 26.9582 22.8927 27.4232C21.1558 28.0996 18.8163 31.2727 18.8163 31.2727C18.8163 31.2727 21.1485 28.0596 20.7411 26.8565C20.0864 24.9233 13.3814 30.5933 13.3814 30.5933C13.3814 30.5933 17.3445 26.8565 16.4384 26.0641C15.5326 25.2713 10.6141 25.5167 9.0783 25.512C4.54918 25.4977 2.98003 24.4355 1.60522 23.3464Z" fill="#373535"/>
</svg>
