<svg width="38" height="55" viewBox="0 0 38 55" fill="none" xmlns="http://www.w3.org/2000/svg">
<path d="M38 10.8091L34.5381 50.5766L18.9767 55.0003L3.45823 50.5828L0 10.8091H38Z" fill="#264DE4"/>
<path d="M31.5743 48.0447L34.5328 14.0615H19V51.6193L31.5743 48.0447Z" fill="#2965F1"/>
<path d="M7.92798 28.813L8.35435 33.691H19.0001V28.813H7.92798Z" fill="#EBEBEB"/>
<path d="M19.0001 18.9395H18.9836H7.07129L7.50374 23.8176H19.0001V18.9395Z" fill="#EBEBEB"/>
<path d="M19 46.5569V41.4816L18.9792 41.4873L13.6811 40.0204L13.3424 36.1299H10.7679H8.56689L9.23338 43.7892L18.9781 46.5631L19 46.5569Z" fill="#EBEBEB"/>
<path d="M8.94304 0.000488281H14.7048V2.47119H11.3525V4.94189H14.7048V7.4126H8.94304V0.000488281Z" fill="black"/>
<path d="M15.8572 0.000488281H21.619V2.14893H18.2667V2.57861H21.619V7.52002H15.8572V5.26416H19.2095V4.83447H15.8572V0.000488281Z" fill="black"/>
<path d="M22.7712 0.000488281H28.533V2.14893H25.1807V2.57861H28.533V7.52002H22.7712V5.26416H26.1236V4.83447H22.7712V0.000488281Z" fill="black"/>
<path d="M24.8415 33.6909L24.2893 40.0174L18.9835 41.4859V46.5609L28.7361 43.7893L28.8076 42.9652L29.9255 30.1228L30.0416 28.8129L30.9004 18.9395H18.9835V23.8176H25.6869L25.2541 28.8129H18.9835V33.6909H24.8415Z" fill="white"/>
</svg>
