<svg width="84" height="42" viewBox="0 0 84 42" fill="none" xmlns="http://www.w3.org/2000/svg">
<path d="M3.75332 41.9719C2.62095 41.9719 1.71506 41.6322 1.06395 40.9811C0.412843 40.33 0.10144 39.3958 0.10144 38.2351C0.10144 37.0461 0.412844 36.0836 1.00733 35.4042C1.60183 34.7248 2.42279 34.3851 3.47022 34.3851C4.43273 34.3851 5.19708 34.6682 5.76326 35.2627C6.32944 35.8571 6.61253 36.6498 6.61253 37.6972V38.5465H1.71506C1.74337 39.2542 1.94153 39.7921 2.28124 40.1884C2.62095 40.5848 3.15882 40.7546 3.80993 40.7546C4.23457 40.7546 4.65921 40.7263 5.02722 40.6414C5.39524 40.5565 5.79157 40.4149 6.24452 40.2451V41.519C5.8765 41.6888 5.48017 41.8304 5.08384 41.9153C4.68751 42.0002 4.23457 41.9719 3.75332 41.9719ZM3.44191 35.5741C2.93235 35.5741 2.53602 35.7439 2.25293 36.0553C1.96984 36.3667 1.77168 36.8197 1.71506 37.4425H5.05553C5.05553 36.848 4.91399 36.3667 4.63089 36.0553C4.3478 35.7439 3.95148 35.5741 3.44191 35.5741Z" fill="black"/>
<path d="M9.92455 41.8585H8.36755V31.5256H9.92455V41.8585Z" fill="black"/>
<path d="M16.7471 41.8583L16.4357 40.8392H16.3791C16.0394 41.2921 15.6714 41.6035 15.3034 41.7451C14.9353 41.8866 14.4824 41.9999 13.9162 41.9999C13.2085 41.9999 12.6423 41.8017 12.2177 41.4054C11.793 41.0091 11.6232 40.4712 11.6232 39.7635C11.6232 38.9991 11.9063 38.4329 12.4724 38.0649C13.0386 37.6969 13.8879 37.4704 15.0486 37.4421L16.3225 37.4138V37.0175C16.3225 36.5362 16.2092 36.1965 15.9828 35.97C15.7563 35.7436 15.4166 35.6303 14.9636 35.6303C14.5956 35.6303 14.2276 35.6869 13.8879 35.8002C13.5482 35.9134 13.2085 36.055 12.8971 36.1965L12.3875 35.0925C12.7838 34.8943 13.2085 34.7244 13.6897 34.6112C14.171 34.498 14.5956 34.4413 15.0203 34.4413C15.9545 34.4413 16.6622 34.6395 17.1434 35.0641C17.6247 35.4888 17.8512 36.1116 17.8512 36.9892V41.8583H16.7471ZM14.4258 40.7826C14.9919 40.7826 15.4449 40.6127 15.7846 40.3013C16.1243 39.9899 16.2942 39.537 16.2942 38.9708V38.348L15.36 38.3763C14.6239 38.4046 14.0861 38.5179 13.7464 38.7443C13.4066 38.9708 13.2368 39.3105 13.2368 39.7635C13.2368 40.1032 13.3217 40.3579 13.5199 40.5278C13.718 40.6977 14.0294 40.7826 14.4258 40.7826Z" fill="black"/>
<path d="M24.9572 39.7636C24.9572 40.4713 24.7024 41.0375 24.1645 41.4055C23.6267 41.7735 22.8906 41.9717 21.9281 41.9717C20.9373 41.9717 20.173 41.8302 19.5785 41.5188V40.1599C20.4277 40.5562 21.2487 40.7544 21.9847 40.7544C22.9473 40.7544 23.4285 40.4713 23.4285 39.8768C23.4285 39.6787 23.3719 39.5371 23.2587 39.4239C23.1454 39.3106 22.9756 39.1691 22.7208 39.0276C22.466 38.886 22.1263 38.7445 21.7017 38.5746C20.8524 38.2349 20.2862 37.9235 19.9748 37.5838C19.6634 37.2441 19.5219 36.8194 19.5219 36.3099C19.5219 35.6871 19.7766 35.2058 20.2862 34.8378C20.7958 34.4698 21.4752 34.3282 22.3528 34.3282C23.202 34.3282 24.023 34.4981 24.7873 34.8661L24.2778 36.0268C23.4851 35.6871 22.834 35.5455 22.2678 35.5455C21.4469 35.5455 21.0222 35.772 21.0222 36.2533C21.0222 36.4797 21.1355 36.6779 21.3336 36.8478C21.5318 37.0176 22.013 37.2158 22.7491 37.4989C23.3436 37.7253 23.7965 37.9518 24.0796 38.15C24.3627 38.3481 24.5609 38.5746 24.7024 38.8294C24.9006 39.1125 24.9572 39.3956 24.9572 39.7636Z" fill="black"/>
<path d="M29.3733 40.7262C29.7413 40.7262 30.1377 40.6696 30.5057 40.5564V41.717C30.3358 41.802 30.1094 41.8586 29.8263 41.9152C29.5432 41.9718 29.2601 42.0001 28.977 42.0001C27.5049 42.0001 26.7689 41.2075 26.7689 39.6788V35.7155H25.7781V35.0361L26.8538 34.4699L27.3917 32.9129H28.3542V34.5548H30.4491V35.7438H28.3542V39.6788C28.3542 40.0468 28.4391 40.3299 28.6373 40.4997C28.8355 40.6696 29.0902 40.7262 29.3733 40.7262Z" fill="black"/>
<path d="M31.8925 32.5731C31.8925 32.29 31.9774 32.0918 32.1189 31.922C32.2605 31.7521 32.4869 31.6955 32.77 31.6955C33.0531 31.6955 33.2513 31.7804 33.4211 31.922C33.591 32.0635 33.6476 32.29 33.6476 32.5731C33.6476 32.8279 33.5627 33.0543 33.4211 33.1959C33.2796 33.3374 33.0531 33.4223 32.77 33.4223C32.4869 33.4223 32.2605 33.3374 32.1189 33.1959C31.9774 33.0543 31.8925 32.8279 31.8925 32.5731ZM33.5627 41.8585H32.0057V34.5264H33.5627V41.8585Z" fill="black"/>
<path d="M38.7432 41.9715C37.6391 41.9715 36.7898 41.6601 36.2237 41.009C35.6575 40.3579 35.3461 39.4237 35.3461 38.2064C35.3461 36.9608 35.6575 36.0266 36.252 35.3472C36.8465 34.6678 37.724 34.3564 38.8564 34.3564C39.6207 34.3564 40.3285 34.4979 40.9513 34.781L40.47 36.0266C39.8189 35.7718 39.281 35.6303 38.8281 35.6303C37.5542 35.6303 36.9314 36.4796 36.9314 38.1498C36.9314 38.9708 37.1012 39.5936 37.4126 40.0182C37.724 40.4428 38.2053 40.641 38.7998 40.641C39.5075 40.641 40.1586 40.4711 40.7814 40.1314V41.4903C40.4983 41.6601 40.2152 41.7734 39.8755 41.83C39.5358 41.8866 39.1961 41.9715 38.7432 41.9715Z" fill="black"/>
<path d="M47.4341 39.7636C47.4341 40.4713 47.1793 41.0375 46.6415 41.4055C46.1036 41.7735 45.3676 41.9717 44.4051 41.9717C43.4142 41.9717 42.6499 41.8302 42.0554 41.5188V40.1599C42.9047 40.5562 43.7256 40.7544 44.4617 40.7544C45.4242 40.7544 45.9054 40.4713 45.9054 39.8768C45.9054 39.6787 45.8488 39.5371 45.7356 39.4239C45.6223 39.3106 45.4525 39.1691 45.1977 39.0276C44.9429 38.886 44.6032 38.7445 44.1786 38.5746C43.3293 38.2349 42.7631 37.9235 42.4517 37.5838C42.1403 37.2441 41.9988 36.8194 41.9988 36.3099C41.9988 35.6871 42.2536 35.2058 42.7631 34.8378C43.2727 34.4698 43.9521 34.3282 44.8297 34.3282C45.679 34.3282 46.4999 34.4981 47.2643 34.8661L46.7547 36.0268C45.9621 35.6871 45.3109 35.5455 44.7448 35.5455C43.9238 35.5455 43.4992 35.772 43.4992 36.2533C43.4992 36.4797 43.6124 36.6779 43.8106 36.8478C44.0087 37.0176 44.49 37.2158 45.226 37.4989C45.8205 37.7253 46.2735 37.9518 46.5565 38.15C46.8396 38.3481 47.0378 38.5746 47.1793 38.8294C47.3775 39.1125 47.4341 39.3956 47.4341 39.7636Z" fill="black"/>
<path d="M52.3316 41.9719C51.1992 41.9719 50.2933 41.6322 49.6422 40.9811C48.9911 40.33 48.6797 39.3958 48.6797 38.2351C48.6797 37.0461 48.9911 36.0836 49.5856 35.4042C50.1801 34.7248 51.001 34.3851 52.0485 34.3851C53.011 34.3851 53.7753 34.6682 54.3415 35.2627C54.9077 35.8571 55.1908 36.6498 55.1908 37.6972V38.5465H50.2933C50.3216 39.2542 50.5198 39.7921 50.8595 40.1884C51.1992 40.5848 51.7371 40.7546 52.3882 40.7546C52.8128 40.7546 53.2374 40.7263 53.6055 40.6414C53.9735 40.5565 54.3698 40.4149 54.8228 40.2451V41.519C54.4547 41.6888 54.0584 41.8304 53.6621 41.9153C53.2658 42.0002 52.8411 41.9719 52.3316 41.9719ZM52.0485 35.5741C51.5389 35.5741 51.1426 35.7439 50.8595 36.0553C50.5764 36.3667 50.3782 36.8197 50.3216 37.4425H53.6621C53.6621 36.848 53.5205 36.3667 53.2375 36.0553C52.9544 35.7439 52.5297 35.5741 52.0485 35.5741Z" fill="black"/>
<path d="M61.532 41.8583L61.2206 40.8392H61.164C60.8243 41.2921 60.4563 41.6035 60.0883 41.7451C59.7202 41.8866 59.2673 41.9999 58.7011 41.9999C57.9934 41.9999 57.4272 41.8017 57.0026 41.4054C56.5779 41.0091 56.4081 40.4712 56.4081 39.7635C56.4081 38.9991 56.6912 38.4329 57.2574 38.0649C57.8235 37.6969 58.6728 37.4704 59.8335 37.4421L61.1074 37.4138V37.0175C61.1074 36.5362 60.9942 36.1965 60.7677 35.97C60.5412 35.7436 60.2015 35.6303 59.7486 35.6303C59.3805 35.6303 59.0125 35.6869 58.6728 35.8002C58.3331 35.9134 57.9934 36.055 57.682 36.1965L57.1724 35.0925C57.5688 34.8943 57.9934 34.7244 58.4746 34.6112C58.9559 34.498 59.3805 34.4413 59.8052 34.4413C60.7394 34.4413 61.4471 34.6395 61.9284 35.0641C62.4096 35.4888 62.6361 36.1116 62.6361 36.9892V41.8583H61.532ZM59.2107 40.7826C59.7769 40.7826 60.2298 40.6127 60.5695 40.3013C60.9092 39.9899 61.0791 39.537 61.0791 38.9708V38.348L60.1449 38.3763C59.4088 38.4046 58.871 38.5179 58.5313 38.7443C58.1916 38.9708 58.0217 39.3105 58.0217 39.7635C58.0217 40.1032 58.1066 40.3579 58.3048 40.5278C58.503 40.6977 58.8427 40.7826 59.2107 40.7826Z" fill="black"/>
<path d="M68.5527 34.3851C68.8641 34.3851 69.1189 34.4134 69.3171 34.4417L69.1755 35.8855C68.949 35.8288 68.7226 35.8005 68.4961 35.8005C67.8733 35.8005 67.3637 35.9987 66.9674 36.4233C66.5711 36.848 66.3729 37.3575 66.3729 38.0086V41.8587H64.8159V34.5266H66.0332L66.2314 35.8288H66.3163C66.5711 35.4042 66.8825 35.0362 67.2788 34.7814C67.6751 34.5266 68.0998 34.3851 68.5527 34.3851Z" fill="black"/>
<path d="M73.6484 41.9715C72.5444 41.9715 71.6951 41.6601 71.1289 41.009C70.5627 40.3579 70.2513 39.4237 70.2513 38.2064C70.2513 36.9608 70.5627 36.0266 71.1572 35.3472C71.7517 34.6678 72.6293 34.3564 73.7617 34.3564C74.526 34.3564 75.2337 34.4979 75.8565 34.781L75.3753 36.0266C74.7242 35.7718 74.1863 35.6303 73.7334 35.6303C72.4594 35.6303 71.8366 36.4796 71.8366 38.1498C71.8366 38.9708 72.0065 39.5936 72.3179 40.0182C72.6293 40.4428 73.1106 40.641 73.705 40.641C74.4128 40.641 75.0639 40.4711 75.6867 40.1314V41.4903C75.4036 41.6601 75.1205 41.7734 74.7808 41.83C74.4411 41.8866 74.1014 41.9715 73.6484 41.9715Z" fill="black"/>
<path d="M83.8681 41.8585H82.3111V37.329C82.3111 36.7628 82.1978 36.3382 81.9713 36.0551C81.7449 35.772 81.3769 35.6305 80.8956 35.6305C80.2445 35.6305 79.7632 35.8286 79.4518 36.2249C79.1404 36.6213 78.9989 37.2724 78.9989 38.1783V41.8585H77.4419V31.5256H78.9989V34.1584C78.9989 34.583 78.9706 35.036 78.914 35.5172H79.0272C79.2537 35.1775 79.5368 34.8944 79.9048 34.6963C80.2728 34.4981 80.7257 34.4132 81.2353 34.4132C83.0188 34.4132 83.8964 35.3191 83.8964 37.1025V41.8585H83.8681Z" fill="black"/>
<path d="M47.5793 9.48022H41.2413C41.2717 9.63185 41.3323 9.78348 41.3626 9.90478C41.5749 10.6326 41.6962 11.3907 41.7569 12.1792C41.7872 12.4824 41.7872 12.816 41.7872 13.1193C41.7872 13.4225 41.7872 13.7561 41.7569 14.0594C41.6962 14.8478 41.5749 15.6059 41.3626 16.3338C41.3323 16.4854 41.2717 16.637 41.2413 16.7583H47.5793C49.5808 16.7583 51.188 15.1207 51.188 13.1193C51.188 11.1178 49.5808 9.48022 47.5793 9.48022Z" fill="#00A9E5"/>
<path d="M41.7566 14.0594C41.7869 13.7561 41.7869 13.4225 41.7869 13.1193C41.7869 12.816 41.7869 12.4824 41.7566 12.1792C41.696 11.3907 41.5747 10.6326 41.3624 9.90478C41.3321 9.75315 41.2714 9.60153 41.2411 9.48022H31.446C31.0821 10.6326 30.9001 11.8456 30.9001 13.1193C30.9001 14.3929 31.0821 15.6059 31.446 16.7583H41.2411C41.2714 16.6067 41.3321 16.4551 41.3624 16.3338C41.5747 15.6059 41.696 14.8478 41.7566 14.0594Z" fill="#353535"/>
<path d="M48.671 17.9715H40.7864C40.5438 18.5174 40.2709 19.0329 39.9677 19.5181C39.5128 20.2762 38.9669 20.9434 38.3604 21.5802C38.1481 21.7925 37.9359 21.9744 37.7236 22.1867C37.299 22.5809 36.8138 22.9145 36.3286 23.2481C38.2391 24.5218 40.5438 25.2496 43.0002 25.2496C47.2154 25.2496 50.9151 23.0965 53.0985 19.8517C51.9765 18.6993 50.3996 17.9715 48.671 17.9715Z" fill="#00BFB3"/>
<path d="M39.9677 19.5181C40.2709 19.0329 40.5438 18.5174 40.7864 17.9715H31.9011C32.8412 20.1246 34.3878 21.9744 36.3589 23.2481C36.8442 22.9145 37.299 22.5809 37.7539 22.1867C37.9662 22.0048 38.1785 21.7925 38.3907 21.5802C38.9669 20.9737 39.5128 20.2762 39.9677 19.5181Z" fill="#019B8F"/>
<path d="M38.3599 4.6588C38.1476 4.44652 37.9353 4.26457 37.723 4.05229C37.2985 3.65806 36.8133 3.32448 36.3281 2.99091C34.3872 4.26457 32.8407 6.11442 31.8702 8.26752H40.7556C40.513 7.72166 40.24 7.20613 39.9368 6.72092C39.5122 5.96279 38.9664 5.26531 38.3599 4.6588Z" fill="#F9B110"/>
<path d="M43.0002 0.989502C40.5438 0.989502 38.2391 1.71731 36.3286 2.99097C36.8138 3.32455 37.2687 3.65813 37.7236 4.05236C37.9359 4.23431 38.1481 4.44659 38.3604 4.65887C38.9669 5.2957 39.5128 5.96286 39.9677 6.72099C40.2709 7.2062 40.5438 7.72173 40.7864 8.26758H48.671C50.3996 8.26758 51.9765 7.53978 53.0985 6.38741C50.9151 3.1426 47.2154 0.989502 43.0002 0.989502Z" fill="#FED10A"/>
</svg>
