<svg width="86" height="23" viewBox="0 0 86 23" fill="none" xmlns="http://www.w3.org/2000/svg">
<path fill-rule="evenodd" clip-rule="evenodd" d="M70.7332 21.3602C72.362 21.3602 73.9909 21.3602 75.6198 21.3602C75.8215 20.4438 76.0232 19.5275 76.2249 18.6111C77.6195 18.6111 79.0592 18.6201 80.4539 18.6201C81.1349 18.6201 81.7378 18.4089 82.2734 18.0475C82.9198 17.6114 83.4025 16.9431 83.5838 16.1185C83.8904 14.7238 84.1989 13.3293 84.5072 11.9349C84.6831 11.1389 84.9119 10.2399 84.3402 9.52093C83.8144 8.85935 83.1165 8.80792 82.3503 8.80792C76.8332 8.81397 71.3159 8.80779 65.7987 8.80779C65.2418 8.80779 64.7752 8.98762 64.2884 9.23825C63.8318 8.91586 63.4197 8.80779 62.8597 8.80779C60.3355 8.80779 57.8111 8.80779 55.2869 8.80779C55.4937 7.87879 55.7004 6.94981 55.9071 6.02087C54.2758 6.02087 52.6444 6.02087 51.013 6.02087C50.8113 6.92717 50.6096 7.83347 50.4079 8.73978C48.9732 8.73978 47.5384 8.73978 46.1037 8.73978C45.5092 8.73978 44.9381 8.92602 44.4396 9.24581C43.9563 8.94564 43.5836 8.8153 43.0111 8.8153C38.2754 8.8153 33.5398 8.8153 28.8042 8.8153C29.021 7.87381 29.2379 6.93222 29.4547 5.99062C27.8258 5.98815 26.197 5.98563 24.5681 5.9831C23.6291 10.1767 22.69 14.3703 21.751 18.5639C23.3783 18.5644 25.0056 18.5648 26.6328 18.5653C27.1224 16.4191 27.6119 14.2729 28.1013 12.1266C28.6519 12.1266 29.2025 12.1266 29.7533 12.1266C29.9499 12.1266 29.9112 12.2384 29.8782 12.3862C29.4152 14.4459 28.9522 16.5056 28.4893 18.5653C39.2775 18.5653 50.0658 18.5653 60.8543 18.5653C61.4034 18.5653 61.8331 18.452 62.3275 18.2003C62.8146 18.5252 63.2451 18.6332 63.8403 18.6281L71.3364 18.5653C71.1353 19.4969 70.9343 20.4286 70.7332 21.3602V21.3602ZM49.5949 12.1356C49.1148 12.1356 48.6346 12.1356 48.1543 12.1356C47.9015 12.1356 47.8334 12.2507 47.7832 12.4769C47.6028 13.2846 47.4225 14.0925 47.2421 14.9001C47.1907 15.1323 47.3083 15.1702 47.5118 15.1702C47.9792 15.1702 48.4466 15.1702 48.9139 15.1702C49.141 14.1587 49.3679 13.1472 49.5949 12.1356V12.1356ZM57.859 12.1942C58.3719 12.1942 58.8848 12.1942 59.3978 12.1942C59.694 12.1942 59.6778 12.3492 59.6245 12.5887C59.4482 13.3799 59.272 14.1712 59.0957 14.9625C59.0343 15.2387 58.8619 15.234 58.6241 15.234C58.1022 15.234 57.5802 15.234 57.0582 15.234C56.8281 15.234 56.8261 15.0982 56.867 14.9125C57.0426 14.1215 57.2183 13.3304 57.3936 12.5393C57.4585 12.2462 57.574 12.1942 57.859 12.1942V12.1942ZM67.9887 12.1942C68.5016 12.1942 69.0146 12.1942 69.5275 12.1942C69.8237 12.1942 69.8075 12.3492 69.7541 12.5887C69.5779 13.3799 69.4016 14.1712 69.2255 14.9625C69.164 15.2387 68.9916 15.234 68.7538 15.234C68.2319 15.234 67.7099 15.234 67.1879 15.234C66.9578 15.234 66.9558 15.0982 66.9967 14.9125C67.1722 14.1215 67.348 13.3304 67.5233 12.5393C67.5882 12.2462 67.7038 12.1942 67.9887 12.1942ZM77.0222 15.2568C77.5024 15.2568 77.9825 15.2568 78.4628 15.2568C78.7156 15.2568 78.7837 15.1417 78.8339 14.9155C79.0143 14.1078 79.1946 13.2999 79.375 12.4923C79.4264 12.2601 79.3088 12.2222 79.1053 12.2222C78.6379 12.2222 78.1706 12.2222 77.7032 12.2222C77.4762 13.2337 77.2492 14.2452 77.0222 15.2568" fill="black"/>
<path fill-rule="evenodd" clip-rule="evenodd" d="M56.7326 9.51478H62.8703C63.8282 9.51478 64.4382 10.2974 64.226 11.2535L63.1325 16.1822C62.9203 17.1384 61.963 17.9209 61.0053 17.9209H54.8675C53.9098 17.9209 53.2997 17.1385 53.5119 16.1822L54.6054 11.2535C54.8176 10.2971 55.7748 9.51478 56.7326 9.51478ZM57.8451 11.4935H60.8798C61.3868 11.4935 61.7096 11.9076 61.5973 12.4135L61.0185 15.0223C60.9063 15.5281 60.3996 15.9422 59.8928 15.9422H56.8581C56.3512 15.9422 56.0283 15.5282 56.1406 15.0223L56.7194 12.4135C56.8316 11.9074 57.3381 11.4935 57.8451 11.4935Z" fill="#1F1917"/>
<path fill-rule="evenodd" clip-rule="evenodd" d="M66.8501 9.51478H72.9879C73.9459 9.51478 74.5558 10.2974 74.3437 11.2535L73.2502 16.1822C73.038 17.1384 72.0806 17.9209 71.1229 17.9209H64.9851C64.0274 17.9209 63.4172 17.1385 63.6294 16.1822L64.7229 11.2535C64.9352 10.2971 65.8923 9.51478 66.8501 9.51478ZM67.9627 11.4935H70.9975C71.5045 11.4935 71.8272 11.9076 71.7149 12.4135L71.1361 15.0223C71.0239 15.5281 70.5173 15.9422 70.0104 15.9422H66.9756C66.4688 15.9422 66.1459 15.5282 66.2581 15.0223L66.8369 12.4135C66.9492 11.9074 67.4556 11.4935 67.9627 11.4935Z" fill="#1F1917"/>
<path fill-rule="evenodd" clip-rule="evenodd" d="M75.232 9.51478H82.5985C83.5564 9.51478 84.1663 10.2975 83.9542 11.2535L82.8607 16.1822C82.6486 17.1381 81.6908 17.9214 80.7335 17.9209L73.3669 17.9174L75.232 9.51478V9.51478ZM77.1577 11.4935H80.608C81.115 11.4935 81.4377 11.9077 81.3255 12.4135L80.7467 15.0223C80.6345 15.5279 80.1276 15.9422 79.6209 15.9422H76.1675" fill="#1F1917"/>
<path fill-rule="evenodd" clip-rule="evenodd" d="M52.6215 17.8548H45.255C44.2971 17.8548 43.6872 17.072 43.8993 16.116L44.9928 11.1874C45.2049 10.2313 46.1627 9.44812 47.1201 9.44867L54.4866 9.45212L52.6215 17.8548V17.8548ZM50.6958 15.876H47.2455C46.7385 15.876 46.4158 15.4617 46.528 14.9561L47.1068 12.3473C47.219 11.8416 47.7258 11.4273 48.2325 11.4273H51.686" fill="#1F1917"/>
<path fill-rule="evenodd" clip-rule="evenodd" d="M27.394 9.51447H33.0245C33.9823 9.51447 34.5923 10.2969 34.3802 11.2532L33.5808 14.8563H31.2095L31.7515 12.4132C31.8637 11.9071 31.5407 11.4932 31.034 11.4932H27.5455C27.0388 11.4932 27.493 11.9074 27.3809 12.4132L26.846 14.8237H24.4746L25.2669 11.2532C25.479 10.2968 26.4361 9.51447 27.394 9.51447" fill="#1F1917"/>
<path fill-rule="evenodd" clip-rule="evenodd" d="M23.8055 17.8548L25.4241 10.5807H27.789L26.1678 17.8548" fill="#1F1917"/>
<path fill-rule="evenodd" clip-rule="evenodd" d="M43.0107 17.8548H35.137C34.1793 17.8548 33.5691 17.0721 33.7813 16.116L34.0985 14.6859H34.1L34.161 14.4109C34.373 13.4548 35.3307 12.6717 36.2882 12.6721L41.7974 12.6746L41.8787 12.3095C41.9652 11.8329 41.6643 11.4466 41.1911 11.4273H34.8136L35.2526 9.44945L43.1671 9.4517C44.1052 9.47016 44.6983 10.245 44.4887 11.1899L44.3398 11.8611H44.3411L44.1603 12.6756H44.162L43.2333 16.8598H43.2316L43.0107 17.8548H43.0107ZM36.8904 15.876H41.085L41.3577 14.6508H37.2349C37.2151 14.6488 37.1947 14.6476 37.1738 14.6476C36.8361 14.6476 36.4989 14.9234 36.4245 15.2606C36.3508 15.5938 36.5602 15.867 36.891 15.8735C36.8908 15.8744 36.8907 15.8752 36.8903 15.876" fill="#1F1917"/>
<path fill-rule="evenodd" clip-rule="evenodd" d="M56.7326 9.51478H62.8703C63.8282 9.51478 64.4382 10.2974 64.226 11.2535L63.1325 16.1822C62.9203 17.1384 61.963 17.9209 61.0053 17.9209H54.8675C53.9098 17.9209 53.2997 17.1385 53.5119 16.1822L54.6054 11.2535C54.8176 10.2971 55.7748 9.51478 56.7326 9.51478ZM57.8451 11.4935H60.8798C61.3868 11.4935 61.7096 11.9076 61.5973 12.4135L61.0185 15.0223C60.9063 15.5281 60.3996 15.9422 59.8928 15.9422H56.8581C56.3512 15.9422 56.0283 15.5282 56.1406 15.0223L56.7194 12.4135C56.8316 11.9074 57.3381 11.4935 57.8451 11.4935Z" fill="#66CCFF"/>
<path fill-rule="evenodd" clip-rule="evenodd" d="M66.8501 9.51478H72.9879C73.9459 9.51478 74.5558 10.2974 74.3437 11.2535L73.2502 16.1822C73.038 17.1384 72.0806 17.9209 71.1229 17.9209H64.9851C64.0274 17.9209 63.4172 17.1385 63.6294 16.1822L64.7229 11.2535C64.9352 10.2971 65.8923 9.51478 66.8501 9.51478ZM67.9627 11.4935H70.9975C71.5045 11.4935 71.8272 11.9076 71.7149 12.4135L71.1361 15.0223C71.0239 15.5281 70.5173 15.9422 70.0104 15.9422H66.9756C66.4688 15.9422 66.1459 15.5282 66.2581 15.0223L66.8369 12.4135C66.9492 11.9074 67.4556 11.4935 67.9627 11.4935Z" fill="#66CCFF"/>
<path fill-rule="evenodd" clip-rule="evenodd" d="M75.2332 9.51356L73.6949 16.4331L73.3671 17.9165L72.7437 20.7336H75.1037L75.7311 17.9165L80.7345 17.9205C81.6919 17.921 82.6477 17.1385 82.8598 16.1825L83.9528 11.2556C84.1649 10.2996 83.5545 9.51355 82.5967 9.51355H75.2332V9.51356ZM77.156 11.494H80.6091C81.116 11.494 81.4377 11.9098 81.3256 12.4156L80.7467 15.0225C80.6345 15.5282 80.128 15.9441 79.6213 15.9441H76.1683L77.156 11.494Z" fill="#66CCFF"/>
<path fill-rule="evenodd" clip-rule="evenodd" d="M52.7503 6.63556L52.1229 9.4527L47.1195 9.44867C46.1621 9.44815 45.2064 10.2306 44.9942 11.1866L43.8972 16.1177C43.6851 17.0737 44.2955 17.8556 45.2533 17.8556H52.6208L54.487 9.45271L55.1104 6.63557H52.7503V6.63556ZM48.2327 11.4291H51.6857L50.6939 15.8751H47.245C46.738 15.8751 46.4162 15.4633 46.5285 14.9576L47.1073 12.3466C47.2196 11.841 47.726 11.4291 48.2327 11.4291Z" fill="#66CCFF"/>
<path fill-rule="evenodd" clip-rule="evenodd" d="M26.2917 6.63556L25.3363 10.936H25.3485L25.308 11.1058C25.2928 11.155 25.2786 11.2051 25.2675 11.2553L24.4741 14.8243H24.4822L23.8062 17.8556H26.1662L26.8422 14.8243H26.8462L27.3806 12.4153C27.3815 12.4115 27.3798 12.4071 27.3806 12.4032L27.587 11.4938H31.0319C31.5387 11.4938 31.8647 11.9093 31.7525 12.4154L31.2101 14.8566L30.5462 17.8556H32.9103L33.5782 14.8566H33.5822L34.3797 11.2554C34.5918 10.299 33.9814 9.51333 33.0236 9.51333H28.0161L28.6557 6.63557H26.2917L26.2917 6.63556Z" fill="#66CCFF"/>
<path fill-rule="evenodd" clip-rule="evenodd" d="M43.0107 17.8548H35.137C34.1793 17.8548 33.5691 17.0721 33.7813 16.116L34.0985 14.6859H34.1L34.161 14.4109C34.373 13.4548 35.3307 12.6717 36.2882 12.6721L41.7974 12.6746L41.8787 12.3095C41.9652 11.8329 41.6643 11.4466 41.1911 11.4273H34.8136L35.2526 9.44945L43.1671 9.4517C44.1052 9.47016 44.6983 10.245 44.4887 11.1899L44.3398 11.8611H44.3411L44.1603 12.6756H44.162L43.2333 16.8598H43.2316L43.0107 17.8548H43.0107ZM36.8904 15.876H41.085L41.3577 14.6508H37.2349C37.2151 14.6488 37.1947 14.6476 37.1738 14.6476C36.8361 14.6476 36.4989 14.9234 36.4245 15.2606C36.3508 15.5938 36.5602 15.867 36.891 15.8735C36.8908 15.8744 36.8907 15.8752 36.8903 15.876" fill="#66CCFF"/>
<path fill-rule="evenodd" clip-rule="evenodd" d="M3.91665 12.695C3.8198 12.9581 3.72283 13.2214 3.62598 13.4848C3.38614 13.7217 3.14632 13.9591 2.90641 14.1963C2.64418 14.4556 2.58778 14.4539 2.64938 14.8208C2.72171 15.2519 2.92931 15.6961 3.31148 16.0787C3.71327 16.4808 4.55691 17.05 5.16397 16.7817C5.10756 16.9854 5.03265 17.1989 4.93731 17.4077C4.53024 18.2989 5.52231 18.4735 6.21658 18.6609C6.79358 18.8167 8.20962 19.2318 8.41397 18.4747C8.50586 18.134 8.52013 17.9509 8.4874 17.6256C8.66696 17.2255 8.7243 17.1617 8.87291 16.9415C9.07685 16.6395 9.0622 16.5245 9.01759 16.1497C9.00896 16.0775 8.99845 15.9987 8.98629 15.916C9.67339 16.0192 10.334 16.0179 11.0074 15.9345C10.8029 16.0534 10.5979 16.1576 10.3275 16.2964C9.68574 16.6258 10.2905 17.5975 10.5671 18.0231C11.1476 18.9163 11.6681 19.5308 12.6487 19.0009C12.9781 18.8229 13.0035 18.6333 13.2091 18.3268C13.3227 18.2646 13.9079 17.7676 14.256 17.4869C14.3879 17.6449 14.6404 17.674 15.0233 17.7016C15.216 17.7156 15.9717 17.7108 16.172 17.7121C16.7729 17.7159 17.1335 17.6536 17.1805 16.9997C17.2028 16.6896 17.1895 16.6237 17.0367 16.3527C17.0274 16.0106 17.0183 15.6685 17.0092 15.3265C16.9987 14.9412 16.925 14.7049 16.7736 14.345C16.6359 14.0181 16.5588 13.7391 16.398 13.4221C16.4201 13.2978 16.4376 13.1696 16.4495 13.0356C16.6538 13.232 16.858 13.4286 17.0623 13.6251C17.4518 13.9997 17.7736 14.3056 18.3674 14.2776C18.9858 14.2485 19.6937 13.7621 19.875 13.1671C19.9355 12.9685 19.9958 12.7699 20.0562 12.5714C20.9888 12.7473 22.0787 12.7071 22.8907 12.2745C24.0849 11.6381 24.6437 10.3587 24.781 9.00528C24.8922 7.91043 24.6783 6.06932 24.1555 5.07035C24.0018 4.77659 23.3076 4.40489 23.0033 4.71279C22.774 4.94483 22.6165 5.29831 22.369 5.50948C22.1773 5.67305 21.9398 5.75403 21.7317 5.83963C21.5705 5.40537 21.339 5.06783 21.0555 4.73055C20.83 4.46249 20.6176 4.3289 20.3203 4.14301C19.7327 3.77566 19.2768 3.31192 18.7422 2.87188C17.1246 1.5401 15.7354 1.58094 13.7198 2.42798C12.7582 2.83214 12.2944 3.38062 11.7046 4.16836C11.3482 4.18692 11.1033 4.25584 10.7266 4.58782C10.4484 4.83287 10.1895 5.08498 9.93893 5.34619C8.05484 5.646 6.88474 6.00448 5.64682 7.10023C5.14308 7.54614 4.7769 8.04027 4.49126 8.59575C4.2261 8.88832 3.96246 9.18823 3.61235 9.32282C3.36587 9.41746 3.37045 9.41722 3.28361 9.18575C3.57667 8.96586 3.57204 8.55193 3.59917 8.17729C3.78405 8.18608 3.85335 8.39314 3.97907 8.55158C4.05325 8.22028 4.09625 7.70577 3.74705 7.5252C3.80384 7.37365 3.86809 7.2209 3.92693 7.05376C3.41185 7.14304 1.64597 8.33146 2.58819 9.23786C2.6502 9.48953 2.69904 9.66291 2.78097 9.83307C2.99655 10.2807 3.4813 10.3574 3.90371 10.193C3.78795 10.7229 3.76449 11.2994 3.83416 12.1088C3.85087 12.3029 3.87892 12.4986 3.91665 12.695" fill="black"/>
<path d="M4.02845 12.7359C3.98957 12.8416 3.95051 12.9476 3.91159 13.0534L3.68778 12.9715C3.7267 12.8657 3.76578 12.7597 3.80464 12.6539L4.02845 12.7359ZM3.91159 13.0534C3.85367 13.2108 3.79565 13.3683 3.73776 13.5257L3.51397 13.4437C3.57184 13.2864 3.62986 13.1288 3.68778 12.9715L3.91159 13.0534V13.0534ZM3.73776 13.5257L3.70977 13.5689L3.62587 13.4847L3.73776 13.5257V13.5257ZM3.70977 13.5689C3.58272 13.6945 3.45553 13.8203 3.32844 13.946L3.16064 13.7775C3.28773 13.6518 3.41491 13.526 3.54197 13.4005L3.70977 13.5689ZM3.32844 13.946C3.21576 14.0574 3.10293 14.169 2.9902 14.2804L2.8224 14.112C2.93513 14.0006 3.04794 13.889 3.16064 13.7775L3.32844 13.946ZM2.9902 14.2804C2.93866 14.3313 2.92117 14.3482 2.90566 14.3631L2.74061 14.1909C2.77504 14.1578 2.81304 14.1212 2.8224 14.112L2.9902 14.2804V14.2804ZM2.90566 14.3631C2.753 14.5098 2.7228 14.5389 2.76676 14.8011L2.53176 14.8403C2.46696 14.454 2.51217 14.4104 2.74061 14.1909L2.90566 14.3631ZM2.76676 14.8011C2.80221 15.0122 2.87251 15.2276 2.98286 15.4373L2.77118 15.5481C2.6494 15.3167 2.57147 15.077 2.53176 14.8403L2.76676 14.8011V14.8011ZM2.98286 15.4373C3.08531 15.632 3.22168 15.8206 3.39573 15.9949L3.22699 16.1624C3.03385 15.969 2.88339 15.7613 2.77118 15.5481L2.98286 15.4373ZM3.39573 15.9949C3.61843 16.2178 3.98196 16.494 4.36031 16.6375L4.2764 16.8601C3.86293 16.7032 3.46806 16.4037 3.22699 16.1624L3.39573 15.9949V15.9949ZM4.36031 16.6375C4.6235 16.7374 4.89172 16.7717 5.11585 16.6727L5.21188 16.8906C4.92275 17.0183 4.59301 16.9802 4.2764 16.8601L4.36031 16.6375V16.6375ZM5.11585 16.6727L5.34613 16.5709L5.27902 16.8133L5.16387 16.7816L5.11585 16.6727V16.6727ZM5.27902 16.8133C5.2491 16.9214 5.21408 17.0323 5.17382 17.1435L4.94911 17.0624C4.98729 16.9569 5.02047 16.852 5.04871 16.75L5.27902 16.8133V16.8133ZM5.17382 17.1435C5.13623 17.2472 5.09369 17.3523 5.04586 17.457L4.82857 17.3583C4.87295 17.2611 4.91311 17.1617 4.94911 17.0624L5.17382 17.1435V17.1435ZM5.04586 17.457C4.84421 17.8984 5.05554 18.1309 5.38308 18.2801L5.28421 18.497C4.83605 18.2929 4.54812 17.9724 4.82857 17.3583L5.04586 17.457V17.457ZM5.38308 18.2801C5.59238 18.3753 5.84566 18.4412 6.08103 18.5024L6.02136 18.7324C5.77405 18.6681 5.50797 18.5988 5.28421 18.497L5.38308 18.2801ZM6.08103 18.5024C6.14322 18.5185 6.20349 18.5342 6.24677 18.5459L6.18618 18.7759C6.12243 18.7586 6.07185 18.7454 6.02136 18.7324L6.08103 18.5024ZM6.24677 18.5459C6.53061 18.6225 7.02131 18.763 7.46241 18.791L7.44745 19.0293C6.98524 19 6.4792 18.855 6.18618 18.7759L6.24677 18.5459ZM7.46241 18.791C7.86104 18.8162 8.21645 18.7491 8.29869 18.4443L8.52902 18.5048C8.40697 18.9571 7.95198 19.0612 7.44745 19.0293L7.46241 18.791ZM8.29869 18.4443C8.34221 18.2829 8.36746 18.1582 8.37797 18.0346L8.61664 18.0541C8.60526 18.1884 8.57731 18.3257 8.52902 18.5048L8.29869 18.4443ZM8.37797 18.0346C8.38852 17.9103 8.3842 17.7897 8.36888 17.6367L8.60571 17.6144C8.62297 17.7866 8.62798 17.9203 8.61664 18.0541L8.37797 18.0346V18.0346ZM8.36888 17.6367L8.37819 17.5771L8.4873 17.6255L8.36888 17.6367V17.6367ZM8.37819 17.5771C8.53876 17.2193 8.60493 17.1226 8.72179 16.9517L8.91851 17.0858C8.81048 17.2438 8.74929 17.3332 8.5964 17.6739L8.37819 17.5771V17.5771ZM8.72179 16.9517C8.73373 16.9343 8.74393 16.9194 8.77398 16.8749L8.97162 17.0079C8.96405 17.0192 8.93917 17.0556 8.91851 17.0858L8.72179 16.9517ZM8.77398 16.8749C8.86509 16.7399 8.907 16.6497 8.92041 16.5565L9.15633 16.5892C9.13714 16.7226 9.08431 16.841 8.97162 17.0079L8.77398 16.8749ZM8.92041 16.5565C8.9344 16.4587 8.92031 16.3418 8.89907 16.1632L9.13589 16.1361C9.15921 16.3323 9.17477 16.4605 9.15633 16.5892L8.92041 16.5565V16.5565ZM8.89907 16.1632C8.89324 16.1144 8.88841 16.0758 8.88506 16.0506L9.12098 16.0208C9.12814 16.0744 9.13306 16.1122 9.13589 16.1361L8.89907 16.1632ZM8.88506 16.0506C8.88241 16.0304 8.87648 15.9897 8.86822 15.9331L9.10414 15.8987C9.10782 15.924 9.11337 15.9636 9.12098 16.0208L8.88506 16.0506ZM8.86822 15.9331L8.84495 15.7742L9.0039 15.7981L8.98618 15.9159L8.86822 15.9331V15.9331ZM9.0039 15.7981C9.34149 15.8488 9.67278 15.8739 10.0023 15.876L10.0014 16.1143C9.66072 16.1121 9.31794 16.0862 8.96847 16.0337L9.0039 15.7981ZM10.0023 15.876C10.3329 15.8781 10.6617 15.8573 10.9933 15.8162L11.0213 16.0527C10.6796 16.095 10.3412 16.1165 10.0014 16.1143L10.0023 15.876ZM10.9933 15.8162L11.0669 16.0378L11.0073 15.9345L10.9933 15.8162ZM11.0669 16.0378C10.8743 16.1499 10.682 16.2486 10.4367 16.3744L10.3276 16.1621C10.5698 16.0379 10.7595 15.9405 10.9476 15.8311L11.0669 16.0378V16.0378ZM10.4367 16.3744C10.4188 16.3836 10.4004 16.393 10.3819 16.4025L10.2729 16.1902C10.2914 16.1808 10.3097 16.1713 10.3276 16.1621L10.4367 16.3744V16.3744ZM10.3819 16.4025C10.1298 16.5319 10.1275 16.8036 10.2166 17.0882L9.98908 17.159C9.86707 16.7691 9.88333 16.3902 10.2729 16.1902L10.3819 16.4025V16.4025ZM10.2166 17.0882C10.3176 17.4112 10.5321 17.7511 10.6668 17.9583L10.4672 18.0878C10.3253 17.8695 10.0991 17.5106 9.98908 17.159L10.2166 17.0882ZM10.6668 17.9583C10.9487 18.3921 11.2145 18.7573 11.5198 18.9441L11.3958 19.147C11.0506 18.9358 10.7657 18.5471 10.4672 18.0878L10.6668 17.9583ZM11.5198 18.9441C11.8082 19.1206 12.1455 19.137 12.5922 18.8957L12.705 19.1061C12.1712 19.3946 11.7578 19.3686 11.3958 19.147L11.5198 18.9441ZM12.5922 18.8957C12.8033 18.7816 12.8741 18.6577 12.9695 18.4908L13.1775 18.6081C13.0622 18.8097 12.9766 18.9593 12.705 19.1061L12.5922 18.8957ZM12.9695 18.4908C13.0075 18.4244 13.0492 18.3516 13.1102 18.2606L13.3078 18.3928C13.259 18.4656 13.2163 18.5401 13.1775 18.6081L12.9695 18.4908V18.4908ZM13.1102 18.2606L13.1517 18.222L13.209 18.3267L13.1102 18.2606V18.2606ZM13.1517 18.222C13.2214 18.1838 13.519 17.9383 13.8085 17.6995L13.9605 17.8829C13.6612 18.1299 13.3532 18.3838 13.2663 18.4314L13.1517 18.222ZM13.8085 17.6995C13.9575 17.5765 14.1046 17.4552 14.1808 17.3937L14.3309 17.5799C14.1913 17.6925 14.0764 17.7873 13.9605 17.8829L13.8085 17.6995V17.6995ZM14.1808 17.3937L14.2723 17.32L14.3477 17.4105L14.2559 17.4868L14.1808 17.3937ZM14.3477 17.4105C14.3953 17.4675 14.4706 17.5027 14.5729 17.5272L14.5179 17.759C14.3654 17.7226 14.2483 17.664 14.164 17.5632L14.3477 17.4105ZM14.5729 17.5272C14.6904 17.5552 14.8447 17.569 15.0316 17.5824L15.0148 17.8207C14.8189 17.8066 14.6553 17.7918 14.5179 17.759L14.5729 17.5272ZM15.0316 17.5824C15.1782 17.593 15.6466 17.5928 15.949 17.5927V17.831C15.64 17.8311 15.1616 17.8313 15.0148 17.8207L15.0316 17.5824V17.5824ZM15.949 17.5927C16.0449 17.5926 16.1246 17.5926 16.1723 17.5929L16.1713 17.8312C16.1237 17.8309 16.0444 17.831 15.949 17.831V17.5927H15.949ZM16.1723 17.5929C16.4541 17.5946 16.6776 17.5821 16.8251 17.4987L16.9426 17.7063C16.7479 17.8164 16.4904 17.8332 16.1714 17.8312L16.1724 17.5929H16.1723ZM16.8251 17.4987C16.9599 17.4224 17.0409 17.2722 17.0611 16.9913L17.2997 17.008C17.273 17.3809 17.1501 17.5889 16.9426 17.7063L16.8251 17.4987V17.4987ZM17.0611 16.9913C17.0714 16.847 17.0738 16.7609 17.0576 16.6871L17.2907 16.6359C17.3137 16.7403 17.3116 16.8424 17.2997 17.008L17.0611 16.9913ZM17.0576 16.6871C17.0413 16.6132 17.0031 16.5366 16.9321 16.4108L17.141 16.2944C17.2228 16.4395 17.2677 16.5316 17.2907 16.6359L17.0576 16.6871V16.6871ZM16.9321 16.4108L16.9172 16.3554L17.0366 16.3526L16.9321 16.4108ZM16.9172 16.3554C16.9126 16.1844 16.9079 16.0133 16.9034 15.8423L17.1421 15.8367C17.1466 16.0077 17.1513 16.1788 17.1559 16.3498L16.9172 16.3554ZM16.9034 15.8423C16.8989 15.6713 16.8942 15.5002 16.8897 15.3293L17.1284 15.3237C17.1329 15.4946 17.1376 15.6657 17.1421 15.8367L16.9034 15.8423ZM16.8897 15.3293C16.8848 15.1457 16.8649 14.9983 16.8285 14.8551L17.0598 14.7973C17.1007 14.9584 17.1229 15.1221 17.1284 15.3237L16.8897 15.3293V15.3293ZM16.8285 14.8551C16.7919 14.7107 16.7372 14.5664 16.6635 14.391L16.8835 14.2988C16.9611 14.4833 17.0191 14.6372 17.0598 14.7973L16.8285 14.8551V14.8551ZM16.6635 14.391C16.6113 14.267 16.5665 14.1465 16.5227 14.0284L16.7465 13.9465C16.7882 14.059 16.8309 14.1739 16.8835 14.2988L16.6635 14.391ZM16.7465 13.946V13.9465L16.6346 13.9874L16.7465 13.946V13.946ZM16.5227 14.0289C16.4545 13.8452 16.3883 13.667 16.2911 13.4755L16.5047 13.3685C16.6066 13.5694 16.6755 13.7549 16.7465 13.946L16.5227 14.0289ZM16.2911 13.4755L16.2804 13.4015L16.3979 13.422L16.2911 13.4755V13.4755ZM16.2804 13.4015C16.2922 13.3351 16.302 13.2734 16.3095 13.2175L16.5454 13.2473C16.5357 13.32 16.5256 13.3848 16.5154 13.4425L16.2804 13.4015ZM16.3095 13.2175C16.3163 13.1668 16.3231 13.1033 16.33 13.0257L16.5687 13.0453C16.5637 13.1016 16.5558 13.1695 16.5454 13.2473L16.3095 13.2175ZM16.33 13.0257L16.3522 12.7766L16.5319 12.9494L16.4494 13.0355L16.33 13.0257ZM16.5319 12.9494C16.6488 13.0618 16.7657 13.1743 16.8826 13.2867L16.7175 13.459C16.6006 13.3465 16.4837 13.234 16.3668 13.1216L16.5319 12.9494V12.9494ZM16.8826 13.2867L17.1447 13.539L16.9797 13.7112L16.7175 13.459L16.8826 13.2867ZM17.1447 13.539C17.334 13.721 17.5068 13.8864 17.6987 13.9994L17.5775 14.2052C17.3627 14.0786 17.1798 13.9037 16.9797 13.7112L17.1447 13.539V13.539ZM17.6987 13.9994C17.8832 14.1081 18.0913 14.1711 18.3617 14.1584L18.3729 14.3967C18.0495 14.412 17.7996 14.336 17.5775 14.2052L17.6987 13.9994ZM18.3617 14.1584C18.6534 14.1447 18.9685 14.0197 19.2304 13.8267L19.3722 14.0185C19.0739 14.2382 18.7116 14.3807 18.3729 14.3967L18.3617 14.1584V14.1584ZM19.2304 13.8267C19.4804 13.6426 19.6797 13.3984 19.7607 13.1326L19.9892 13.2015C19.8925 13.5189 19.6608 13.8059 19.3722 14.0185L19.2304 13.8267V13.8267ZM19.7607 13.1326C19.7886 13.0408 19.8165 12.949 19.8444 12.8573L20.0729 12.9262C20.045 13.0179 20.0171 13.1097 19.9892 13.2015L19.7607 13.1326ZM19.8444 12.8573C19.8768 12.7505 19.9094 12.6436 19.9419 12.5368L20.1703 12.6058C20.1379 12.7125 20.1053 12.8194 20.0729 12.9262L19.8444 12.8573ZM19.9419 12.5368L19.973 12.4346L20.078 12.4545L20.0561 12.5713L19.9419 12.5368ZM20.078 12.4545C20.5613 12.5457 21.0875 12.5775 21.5933 12.5246L21.6166 12.7611C21.0878 12.8164 20.5383 12.7832 20.0342 12.6881L20.078 12.4545ZM21.5933 12.5246C22.0377 12.4781 22.4662 12.3654 22.8346 12.1692L22.9465 12.3796C22.5507 12.5905 22.0918 12.7113 21.6166 12.7611L21.5933 12.5246ZM22.8346 12.1692C23.3742 11.8817 23.7794 11.457 24.0712 10.9523L24.2782 11.0706C23.9647 11.6128 23.5284 12.0696 22.9465 12.3796L22.8346 12.1692ZM24.0712 10.9523V10.9518L24.1747 11.0114L24.0712 10.9523V10.9523ZM24.0712 10.9518C24.4046 10.3752 24.5914 9.69485 24.6625 8.994L24.8993 9.01635C24.8248 9.75107 24.6286 10.465 24.2782 11.071L24.0712 10.9518V10.9518ZM24.6625 8.994C24.7204 8.42284 24.6883 7.64389 24.5686 6.89052L24.8036 6.85331C24.9264 7.62592 24.9591 8.42706 24.8993 9.01635L24.6625 8.994V8.994ZM24.5686 6.89052C24.463 6.226 24.2893 5.58335 24.0495 5.12521L24.2612 5.01532C24.5128 5.4961 24.6942 6.16465 24.8036 6.85331L24.5686 6.89052V6.89052ZM24.0495 5.12521C24.0307 5.08928 23.9995 5.0501 23.9595 5.0106L24.1264 4.8402C24.1839 4.89699 24.2305 4.9566 24.2612 5.01532L24.0495 5.12521ZM23.9595 5.0106C23.8571 4.90981 23.7051 4.81436 23.5477 4.76028L23.6251 4.53499C23.8163 4.60066 24.0014 4.71707 24.1264 4.8402L23.9595 5.0106ZM23.5477 4.76028C23.4016 4.7101 23.2545 4.69626 23.1493 4.75111L23.0393 4.53976C23.2089 4.45126 23.4225 4.46542 23.6251 4.53499L23.5477 4.76028V4.76028ZM23.1493 4.75111C23.1273 4.76258 23.1067 4.77751 23.0885 4.79603L22.9178 4.62939C22.9544 4.59242 22.9952 4.56267 23.0393 4.53976L23.1493 4.75111V4.75111ZM23.0885 4.79603C22.9909 4.89479 22.9053 5.01967 22.8194 5.14487L22.6227 5.01078C22.7154 4.87549 22.808 4.74057 22.9178 4.62939L23.0885 4.79603ZM22.8194 5.14487C22.7065 5.30953 22.5931 5.47492 22.4463 5.60017L22.2915 5.41861C22.4156 5.3127 22.5194 5.16137 22.6227 5.01078L22.8194 5.14487ZM22.4463 5.60017C22.2665 5.75352 22.0581 5.83697 21.8646 5.91446L21.776 5.69294C21.952 5.6225 22.1415 5.54656 22.2915 5.41861L22.4463 5.60017V5.60017ZM21.8646 5.91446C21.8309 5.92794 21.7978 5.94123 21.7768 5.94985L21.6863 5.72923C21.7234 5.71402 21.7498 5.70343 21.776 5.69294L21.8646 5.91446ZM21.7768 5.94985L21.6628 5.99673L21.6197 5.88051L21.7316 5.83954L21.7768 5.94985ZM21.6197 5.88051C21.5425 5.67245 21.4478 5.48661 21.3382 5.31191L21.5405 5.18533C21.6578 5.37223 21.7596 5.57244 21.8435 5.79857L21.6197 5.88051ZM21.3382 5.31191C21.2274 5.13534 21.1019 4.97086 20.964 4.80679L21.1468 4.65409C21.2923 4.82723 21.4244 5.00033 21.5405 5.18533L21.3382 5.31191ZM20.964 4.80679C20.8574 4.68012 20.7541 4.58525 20.6425 4.50039L20.7869 4.3114C20.9122 4.40662 21.0279 4.51276 21.1468 4.65409L20.964 4.80679ZM20.6425 4.50039C20.5311 4.41564 20.4045 4.33623 20.2568 4.24393L20.3835 4.04192C20.5331 4.1354 20.6615 4.21593 20.7869 4.3114L20.6425 4.50039ZM20.2568 4.24393C19.8406 3.98377 19.4919 3.67827 19.136 3.36658L19.2926 3.18695C19.641 3.49207 19.9824 3.7911 20.3835 4.04192L20.2568 4.24393V4.24393ZM19.136 3.36658C18.9862 3.23543 18.8351 3.10303 18.6661 2.96394L18.8181 2.77962C18.9745 2.90836 19.1343 3.04832 19.2926 3.18695L19.136 3.36658ZM18.6661 2.96394C17.8779 2.31507 17.148 2.00068 16.3726 1.95192L16.3876 1.71361C17.2151 1.76562 17.9887 2.09682 18.8181 2.77962L18.6661 2.96394V2.96394ZM16.3726 1.95192C15.5915 1.90283 14.7568 2.12125 13.7659 2.53774L13.6735 2.31804C14.698 1.88748 15.5658 1.66201 16.3876 1.71361L16.3726 1.95192ZM13.7659 2.53774C13.2988 2.73398 12.9532 2.96486 12.6533 3.24176L12.492 3.0667C12.8118 2.77142 13.179 2.52582 13.6735 2.31804L13.7659 2.53774V2.53774ZM12.6533 3.24176C12.3511 3.52076 12.0914 3.85036 11.8 4.23949L11.6089 4.09705C11.9073 3.69848 12.1745 3.35986 12.492 3.0667L12.6533 3.24176ZM11.8 4.23949L11.7663 4.28453L11.7105 4.28742L11.7045 4.16827L11.8 4.23949V4.23949ZM11.7105 4.28742C11.5446 4.29604 11.4056 4.31607 11.2674 4.37125L11.1788 4.14971C11.3461 4.08289 11.5079 4.05896 11.6984 4.04912L11.7105 4.28742ZM11.2674 4.37125C11.1271 4.42724 10.9824 4.52096 10.8053 4.6771L10.6476 4.49837C10.8471 4.32262 11.0135 4.2157 11.1788 4.14971L11.2674 4.37125V4.37125ZM10.8053 4.6771C10.6688 4.7973 10.5358 4.92045 10.4053 5.04652L10.2393 4.87521C10.3703 4.74869 10.506 4.62312 10.6476 4.49837L10.8053 4.6771V4.6771ZM10.4053 5.04652L10.4048 5.04701L10.3223 4.9609L10.4053 5.04655V5.04652ZM10.4048 5.04701C10.2755 5.17185 10.1493 5.29907 10.0251 5.42854L9.85258 5.26373C9.97885 5.13211 10.1075 5.00247 10.2398 4.87479L10.4048 5.04701V5.04701ZM10.0251 5.42854L9.95746 5.46346L9.93882 5.34613L10.0251 5.42854V5.42854ZM9.95746 5.46346C9.02456 5.61189 8.26854 5.77481 7.59332 6.03594L7.50757 5.8134C8.19791 5.54644 8.9691 5.38013 9.92018 5.22881L9.95746 5.46346ZM7.59332 6.03594C6.92392 6.29483 6.33314 6.6517 5.72553 7.18954L5.56791 7.01081C6.19811 6.45294 6.81161 6.08255 7.50757 5.8134L7.59332 6.03594ZM5.72553 7.18954C5.47932 7.40746 5.26699 7.63682 5.08179 7.87897L4.8925 7.73471C5.08762 7.47955 5.31042 7.2387 5.56791 7.01081L5.72553 7.18954ZM5.08179 7.87897C4.8965 8.12122 4.73728 8.37773 4.59746 8.64968L4.38485 8.5417C4.53059 8.25826 4.69743 7.9898 4.8925 7.73471L5.08179 7.87897V7.87897ZM4.59746 8.64968L4.57975 8.67529L4.49116 8.59568L4.59746 8.64968ZM4.57975 8.67529C4.44402 8.82502 4.30857 8.97679 4.1633 9.10736L4.00385 8.92955C4.14411 8.80343 4.27319 8.65883 4.40257 8.51609L4.57975 8.67529V8.67529ZM4.1633 9.10736C4.01101 9.24425 3.84591 9.36065 3.6551 9.43404L3.56936 9.21148C3.72858 9.15025 3.87056 9.04935 4.00385 8.92955L4.1633 9.10736V9.10736ZM3.6551 9.43404H3.65465L3.61224 9.32276L3.6551 9.43404ZM3.65465 9.43404C3.50152 9.49279 3.42666 9.52224 3.34185 9.48637L3.43419 9.26666C3.43804 9.26827 3.47652 9.24727 3.56982 9.21148L3.65465 9.43404ZM3.34185 9.48637L3.34138 9.48588L3.38801 9.3765L3.34185 9.48635V9.48637ZM3.34138 9.48588C3.25193 9.44799 3.22696 9.37462 3.1716 9.22709L3.39541 9.14424C3.42684 9.2281 3.42621 9.26354 3.43464 9.26711L3.34138 9.48588ZM3.1716 9.22709L3.14048 9.14411L3.21218 9.09025L3.2835 9.18567L3.1716 9.22709ZM3.21218 9.09025C3.43149 8.92572 3.45228 8.59806 3.47224 8.28247L3.71092 8.29741C3.6876 8.66643 3.66323 9.04969 3.35483 9.28108L3.21218 9.09025V9.09025ZM3.47224 8.28247C3.47482 8.24118 3.47747 8.20014 3.47972 8.16882L3.7184 8.1856C3.71527 8.22872 3.71307 8.26319 3.71092 8.29741L3.47224 8.28247ZM3.47972 8.16882L3.48821 8.05256L3.60466 8.05806L3.59906 8.17721L3.47972 8.16882ZM3.60466 8.05806C3.80153 8.0674 3.89122 8.20609 3.98797 8.35567L3.78747 8.48418C3.72565 8.38858 3.66828 8.2999 3.59346 8.29636L3.60466 8.05806V8.05806ZM3.98797 8.35567C4.01496 8.39743 4.04278 8.44041 4.0722 8.47748L3.88574 8.62551C3.84866 8.57876 3.81764 8.53082 3.78747 8.48418L3.98797 8.35567ZM4.09552 8.57711L4.04093 8.82096L3.88574 8.62551L3.97896 8.5515L4.09552 8.57711ZM3.86243 8.52587C3.90273 8.34592 3.93362 8.10994 3.88997 7.91677L4.12214 7.86462C4.17547 8.10054 4.14127 8.37272 4.09552 8.57711L3.86243 8.52587V8.52587ZM3.88997 7.91677C3.86225 7.79395 3.80286 7.68836 3.69242 7.63126L3.80148 7.41898C3.98406 7.51343 4.07981 7.67714 4.12214 7.86462L3.88997 7.91677V7.91677ZM3.69242 7.63126L3.59806 7.58245L3.63504 7.4837L3.74694 7.52512L3.69242 7.63126ZM3.63504 7.4837C3.65267 7.43662 3.67834 7.37127 3.70471 7.30413L3.9266 7.39075C3.90595 7.44331 3.88524 7.49617 3.85885 7.56656L3.63504 7.4837V7.4837ZM3.70471 7.30413C3.73988 7.2145 3.77601 7.12257 3.81401 7.01459L4.03965 7.09278C4.00568 7.18925 3.96557 7.29136 3.9266 7.39075L3.70471 7.30413ZM3.90678 6.93636L4.10698 6.90168L4.03965 7.09278L3.92682 7.05368L3.90678 6.93636ZM3.94689 7.17101C3.71579 7.21106 3.20685 7.4962 2.83741 7.87905L2.66491 7.71426C3.06795 7.29658 3.64042 6.98252 3.90678 6.93636L3.94689 7.17101V7.17101ZM2.83741 7.87905C2.70351 8.01782 2.59001 8.16769 2.51832 8.32042L2.30204 8.2208C2.38653 8.04077 2.51525 7.86939 2.66491 7.71426L2.83741 7.87905V7.87905ZM2.51832 8.32042C2.44993 8.46607 2.41871 8.61515 2.44387 8.75988L2.20886 8.79992C2.17476 8.60378 2.21413 8.408 2.30204 8.2208L2.51832 8.32042V8.32042ZM2.44387 8.75988C2.46669 8.89135 2.53741 9.02353 2.67061 9.15166L2.50555 9.32389C2.33289 9.15775 2.2402 8.98054 2.20886 8.79992L2.44387 8.75988V8.75988ZM2.67061 9.15166L2.70371 9.20936L2.58808 9.23778L2.67061 9.15166V9.15166ZM2.70371 9.20936C2.734 9.33246 2.76117 9.43653 2.79073 9.53057L2.56326 9.60133C2.53246 9.50334 2.50409 9.39468 2.47247 9.26619L2.70371 9.20936V9.20936ZM2.79073 9.53057C2.819 9.62054 2.84984 9.70143 2.88854 9.78181L2.67319 9.88418C2.62998 9.79445 2.59533 9.70335 2.56326 9.60133L2.79073 9.53057V9.53057ZM2.88854 9.78181C2.97438 9.96007 3.11018 10.0686 3.2667 10.1188L3.19399 10.3459C2.97763 10.2765 2.7905 10.1278 2.67319 9.88418L2.88854 9.78181V9.78181ZM3.2667 10.1188C3.4493 10.1773 3.66176 10.1594 3.86022 10.0821L3.94698 10.3037C3.69885 10.4003 3.42964 10.4214 3.19399 10.3459L3.2667 10.1188V10.1188ZM3.86022 10.0821L4.06747 10.0014L4.02014 10.218L3.9036 10.1929L3.86022 10.0821V10.0821ZM4.02014 10.218C3.96392 10.4755 3.93 10.7454 3.91861 11.0502L3.67994 11.0419C3.69183 10.7236 3.72763 10.44 3.78707 10.1678L4.02014 10.218V10.218ZM3.91861 11.0502C3.90728 11.3551 3.91884 11.6972 3.95341 12.099L3.71472 12.1185C3.67967 11.711 3.66809 11.36 3.67994 11.0419L3.91861 11.0502ZM3.95341 12.099C3.96222 12.2013 3.97278 12.2955 3.98489 12.3816L3.74897 12.4133C3.73396 12.3064 3.7224 12.2078 3.71472 12.1185L3.95341 12.099ZM3.98489 12.3816C3.99825 12.4766 4.01459 12.5738 4.03355 12.6725L3.79955 12.7172C3.78036 12.6174 3.76338 12.516 3.74897 12.4133L3.98489 12.3816ZM4.03355 12.6725L4.02845 12.7359L3.91654 12.6949" fill="black"/>
<path fill-rule="evenodd" clip-rule="evenodd" d="M10.0045 5.53623L8.43325 5.79118L6.99946 6.4187L5.78171 7.18354L4.62289 8.59551L3.96822 9.28779L3.33521 9.52074L3.16779 9.11218L3.46053 8.69028L3.5263 8.09529L3.72239 8.10318L3.93664 8.2983L3.87885 7.69223L3.64136 7.53316L3.64857 7.30219L3.08598 7.61996L2.57654 8.22009L2.47034 8.75645L2.68817 9.18597L2.89137 9.91564L3.30461 10.111L3.73933 10.0897L4.1515 9.85057L3.87656 11.2429L4.1515 12.7921L3.84883 13.5075L2.85749 14.574L3.03375 15.2111L3.50336 15.9494L4.38888 16.5717L4.85857 16.6358L5.38077 16.6535L5.05498 17.9889L6.2531 18.4792L7.74583 18.6753L8.25645 18.342L8.29575 17.4399L8.86536 16.4986L8.90464 15.7534L10.2795 15.8514L11.5562 15.7337L10.2795 16.4986L10.4956 17.4203L11.3008 18.6753L12.0865 19.0087L12.715 18.7538L12.9703 18.2439L14.2863 17.2438L14.5416 17.4595L16.6039 17.5379L17.0164 17.2046L17.0556 16.6162L16.9182 16.3613L16.8199 14.7729L16.1325 13.4001L16.2503 12.7921L16.6628 13.0079L17.8216 14.0865L18.3912 14.1257L19.0197 13.8707L19.6483 13.4001L19.9625 12.3803L21.8088 12.498L22.9283 12.0665L23.8318 11.2233L24.4799 10.0074L24.6371 8.5759L24.4996 6.90897L24.146 5.41859L23.7925 4.94794L23.3015 4.79102L22.4373 5.73234L21.6516 6.00689L20.9642 4.86947L20.2768 4.24194L19.9036 4.00661L18.4109 2.77113L17.2128 2.12399L16.0146 2.02592L14.6202 2.26125L13.4024 2.7123L12.5579 3.39866L11.8901 4.20272L11.2027 4.39881L10.0045 5.53623V5.53623Z" fill="#FFFF00" stroke="#1F1917" stroke-width="0.0872933" stroke-miterlimit="10"/>
<path fill-rule="evenodd" clip-rule="evenodd" d="M5.44728 9.07538C4.10133 10.6428 4.40032 12.5438 4.77334 14.4062C4.57428 13.904 4.37516 13.4019 4.17611 12.8997C4.10276 12.4393 4.02941 11.979 3.95605 11.5186C3.97699 11.0478 3.99796 10.577 4.01895 10.1063C4.20754 9.6564 4.39614 9.20655 4.58474 8.75665C4.86766 8.33819 5.15059 7.91968 5.43352 7.50118C5.87359 7.13501 6.31368 6.76883 6.75376 6.40268C7.23575 6.20392 7.71778 6.00511 8.19977 5.80635C8.76558 5.73311 9.33142 5.65989 9.89728 5.58665C9.37333 6.18297 8.84944 6.77934 8.32549 7.37566C7.0635 7.78435 6.31924 8.0596 5.44728 9.07538" fill="#FFFFCC"/>
<path fill-rule="evenodd" clip-rule="evenodd" d="M11.7833 4.2998C10.8476 5.21128 10.3365 5.89871 9.74105 6.96596C9.31512 7.72942 8.83735 8.46469 8.38955 9.21746C8.16304 9.59849 8.14165 9.918 8.07395 10.3574C7.85391 10.0958 7.63387 9.83427 7.41382 9.57273C7.51861 9.25884 7.6234 8.94497 7.72819 8.63114C8.08445 7.99293 8.44073 7.35472 8.79696 6.71656C9.55141 5.97373 10.3059 5.23094 11.0603 4.48812C11.3013 4.42532 11.5423 4.36258 11.7833 4.2998" fill="#FFFFCC"/>
<path fill-rule="evenodd" clip-rule="evenodd" d="M16.4048 2.03975C15.6554 2.3203 14.4108 2.4127 14.3245 3.27152C14.263 3.88141 14.3705 4.18786 14.7387 4.83313C13.8293 3.89355 13.6044 4.03896 11.8467 4.33094C12.0982 3.97522 12.3496 3.6195 12.6011 3.26378C13.0412 2.99179 13.4813 2.71975 13.9214 2.44775C14.4872 2.3222 15.0531 2.19666 15.6189 2.0711C15.8809 2.06064 16.1428 2.0502 16.4048 2.03975" fill="#FFFFCC"/>
<path fill-rule="evenodd" clip-rule="evenodd" d="M18.4724 13.6568C18.7219 13.8105 18.7166 13.9219 18.6748 14.0273C18.8716 13.9487 19.0684 13.8701 19.2652 13.7915C19.3927 13.6206 19.5202 13.4497 19.6477 13.2787C19.7423 13.0352 19.837 12.7917 19.9316 12.5481C19.8107 12.4573 19.6898 12.3665 19.5688 12.2757C19.0403 12.3431 18.5118 12.4104 17.9832 12.4778C17.9439 12.5845 17.9045 12.6912 17.8651 12.7978C17.8764 12.9494 17.8877 13.101 17.8989 13.2526C17.9495 13.3424 18.0001 13.4323 18.0507 13.522C18.1295 13.5614 18.2082 13.6007 18.2868 13.6399C18.3488 13.6456 18.4106 13.6512 18.4724 13.6568Z" fill="#CCCC00"/>
<path fill-rule="evenodd" clip-rule="evenodd" d="M18.3245 10.9496C17.5297 11.1787 17.5359 11.2418 17.3011 12.0291C17.611 11.5327 17.8404 11.2823 18.3245 10.9496Z" fill="#CCCC00"/>
<path fill-rule="evenodd" clip-rule="evenodd" d="M23.6096 5.05782C23.4684 5.12299 23.3308 5.15437 23.2425 5.28343C23.0523 5.5612 22.8894 5.79487 22.5749 5.98987C22.4166 6.08812 22.2528 6.15174 22.0848 6.20398C21.9455 6.24724 21.8619 6.20862 21.7433 6.29367C21.8136 6.30594 21.884 6.31823 21.9543 6.33057C22.1094 6.33057 22.2645 6.33057 22.4196 6.33057C22.6108 6.21264 22.802 6.09474 22.9932 5.97686C23.1057 5.85894 23.2181 5.74108 23.3305 5.62315C23.4236 5.43471 23.5166 5.24622 23.6096 5.05782" fill="#CCCC00"/>
<path fill-rule="evenodd" clip-rule="evenodd" d="M10.9486 6.81865C10.6358 7.67294 10.3627 8.40528 9.88892 9.17877C10.4959 8.52581 10.8639 7.97082 11.2115 7.23258C11.3465 6.94583 11.3721 6.60931 11.7482 6.73446C11.7651 7.0208 11.8257 7.30709 11.8426 7.59343C12.0459 6.13878 12.619 5.53051 13.9512 4.966C13.5745 5.01096 13.1977 5.05582 12.821 5.10073C12.4668 5.17937 12.1125 5.25793 11.7583 5.33651C11.5839 5.58918 11.4096 5.84182 11.2353 6.09444C11.1397 6.33584 11.0442 6.57727 10.9486 6.81865" fill="#CCCC00"/>
<path fill-rule="evenodd" clip-rule="evenodd" d="M13.5295 6.78508C13.8168 8.13522 14.2305 9.43093 14.4102 10.8025C14.5269 11.6937 14.5396 12.1219 14.0905 12.8908C13.5997 12.8591 13.295 12.9144 12.8203 13.0697C10.9303 13.6883 9.84635 14.5978 8.57288 12.7652C8.9794 12.9564 9.38597 13.1477 9.79246 13.3391C10.0823 13.2822 10.3721 13.2253 10.6619 13.1684C11.1736 12.8709 11.6853 12.5733 12.197 12.2758C12.5962 12.1971 12.9954 12.1186 13.3946 12.04C13.5239 11.501 13.6532 10.9621 13.7826 10.4231C13.687 9.71007 13.5914 8.99708 13.4958 8.28407C13.4846 7.94724 13.4734 7.6104 13.4621 7.27352C13.4846 7.11069 13.5071 6.9479 13.5295 6.78508" fill="#CCCC00"/>
<path fill-rule="evenodd" clip-rule="evenodd" d="M16.7851 15.1391C16.6263 16.236 17.1506 16.8256 16.9336 17.1285C16.8721 17.2143 16.7888 17.3639 16.6958 17.405C16.3636 17.5515 15.9068 17.3775 15.8742 17.4633C15.5087 17.4633 15.1432 17.4633 14.7777 17.4633C14.6315 17.4015 14.4853 17.3398 14.3391 17.2781C14.564 17.0142 14.789 16.7503 15.0139 16.4865C15.2331 16.0092 15.4524 15.532 15.6718 15.0548C15.8124 14.572 15.9529 14.0892 16.0934 13.6064C16.1666 13.6064 16.2397 13.6064 16.3127 13.6064C16.4702 14.1173 16.6276 14.6282 16.7851 15.1391Z" fill="#CCCC00"/>
<path fill-rule="evenodd" clip-rule="evenodd" d="M14.9422 11.9501C15.0312 12.4481 15.1859 12.5665 15.4205 13.0486C15.2644 13.8351 15.0135 14.7704 14.7115 15.4644C14.5842 15.757 14.4814 15.9184 14.257 16.1446C13.878 16.5267 13.4948 16.8596 13.0649 17.1908C12.7556 17.4289 12.5396 17.3095 12.1579 17.2555C11.9955 17.5493 11.9507 17.7126 11.6519 17.8618C11.1923 18.0912 10.7811 17.5968 10.4204 17.306C10.6808 17.7121 10.9412 18.1182 11.2015 18.5242C11.3815 18.6927 11.5614 18.8611 11.7414 19.0296C11.8931 19.052 12.045 19.0744 12.1968 19.0969C12.3992 18.9734 12.6016 18.8499 12.8041 18.7264C12.9109 18.5242 13.0178 18.3221 13.1246 18.12C13.3495 17.9516 13.5744 17.7832 13.7993 17.6147C14.0749 17.379 14.3504 17.1432 14.6259 16.9074C14.8002 16.6603 14.9745 16.4133 15.1488 16.1663C15.3062 15.8744 15.4637 15.5824 15.6211 15.2905C15.8235 14.6842 16.026 14.0778 16.2284 13.4715C16.2453 13.2412 16.2622 13.0111 16.279 12.7809C16.026 12.6686 15.773 12.5563 15.5199 12.4441C15.3344 12.27 15.1278 12.1241 14.9422 11.9501Z" fill="#CCCC00"/>
<path fill-rule="evenodd" clip-rule="evenodd" d="M8.89067 15.4593C9.74206 15.4593 10.6412 15.4121 11.421 15.0551C11.6416 14.7245 11.8594 14.4546 12.1295 14.1624C11.8837 14.6258 11.8067 14.8878 11.7415 15.4088C11.6571 15.5322 11.5728 15.6558 11.4884 15.7793C10.8474 15.7962 10.2064 15.813 9.56538 15.8298C9.35733 15.8073 9.14926 15.7849 8.94124 15.7625C8.91876 15.74 8.89627 15.7175 8.87378 15.6951C8.87941 15.6165 8.88507 15.5379 8.89067 15.4593" fill="#CCCC00"/>
<path fill-rule="evenodd" clip-rule="evenodd" d="M8.77295 14.8698C8.75093 14.6706 8.72889 14.4712 8.70685 14.2719C8.5614 15.1461 8.59637 15.7319 8.19343 16.515C7.89241 16.8632 7.52182 17.1801 7.09735 17.3496C7.13319 17.5643 7.14389 17.6985 7.1231 17.8559C7.04833 18.4221 5.91388 18.172 5.44727 18.1494C6.19598 18.3419 6.94469 18.5343 7.69334 18.7268C7.86203 18.6594 8.03071 18.5921 8.19943 18.5247C8.25567 18.1991 8.31189 17.8734 8.36812 17.5478C8.52555 17.2559 8.68303 16.9639 8.84042 16.672C8.86851 16.4923 8.89666 16.3127 8.92478 16.1331C8.87417 15.712 8.82358 15.2909 8.77295 14.8698Z" fill="#CCCC00"/>
<path fill-rule="evenodd" clip-rule="evenodd" d="M7.50799 9.93419C7.48445 10.3592 7.45695 10.5365 7.64468 10.9119C7.88336 11.3891 8.17647 11.8373 8.43581 12.309C8.46388 11.9945 8.49198 11.6802 8.52012 11.3658C8.18275 10.8886 7.84539 10.4113 7.50799 9.93419" fill="#CCCC00"/>
<path fill-rule="evenodd" clip-rule="evenodd" d="M4.04521 13.1454C3.97218 13.3006 3.89916 13.4558 3.82613 13.611C4.02713 14.2869 4.20576 14.7151 4.58848 15.3056C4.52183 15.5448 4.47194 15.6495 4.31859 15.8445C3.98177 15.7928 3.6827 15.7778 3.34143 15.7788C3.71822 16.0708 4.09497 16.3627 4.47167 16.6547C4.65718 16.621 4.84276 16.5873 5.02833 16.5536C5.21386 16.3683 5.39942 16.1831 5.585 15.9978C5.32066 15.588 5.05642 15.1781 4.79218 14.7683C4.54317 14.2273 4.29417 13.6863 4.04521 13.1454" fill="#CCCC00"/>
<path fill-rule="evenodd" clip-rule="evenodd" d="M23.6122 4.8338C23.8416 5.86453 24.1375 6.81555 24.11 7.87118C24.0763 9.16624 23.8235 10.8021 22.6217 11.5831C21.2759 12.4577 19.696 12.044 18.2194 11.6693C18.821 11.9163 19.4227 12.1633 20.0243 12.4103C20.5866 12.4384 21.1489 12.4665 21.7112 12.4946C22.0936 12.3822 22.4759 12.27 22.8583 12.1577C23.1563 11.9107 23.4543 11.6637 23.7523 11.4166C23.9772 10.9451 24.2021 10.4734 24.4271 10.0019C24.5114 9.45725 24.5957 8.91267 24.6801 8.36814C24.6126 7.83473 24.5451 7.30143 24.4776 6.76809C24.3539 6.24032 24.2302 5.71256 24.1065 5.18489C23.9418 5.06784 23.777 4.95084 23.6122 4.8338" fill="#CCCC00"/>
<path fill-rule="evenodd" clip-rule="evenodd" d="M3.52719 7.90621C2.91618 8.30326 2.67621 8.47759 2.74318 9.21346C2.80404 9.43385 2.86494 9.65429 2.92586 9.87467C3.0121 9.93297 3.09839 9.99122 3.18464 10.0495C3.29122 10.0849 3.3978 10.1204 3.50438 10.1559C3.69719 10.1103 3.89003 10.0647 4.08289 10.0191C4.18184 9.71253 4.28081 9.406 4.37976 9.09945C4.10571 9.23372 3.83169 9.36801 3.55766 9.50227C3.49422 9.50227 3.4308 9.50227 3.36736 9.50227C3.29631 9.39334 3.22525 9.2844 3.1542 9.17547C3.24049 9.0488 3.32675 8.92213 3.41304 8.79546C3.4587 8.55478 3.50438 8.31408 3.55004 8.07344C3.60838 8.09118 3.66677 8.10887 3.72511 8.1266C3.79616 8.18238 3.86721 8.23809 3.93826 8.29382C3.92811 8.16715 3.91798 8.04048 3.90779 7.91381C3.85959 7.83275 3.8114 7.75168 3.76316 7.67061C3.71496 7.63004 3.66677 7.58954 3.61853 7.54898C3.58809 7.66808 3.55766 7.78716 3.52719 7.90621" fill="#CCCC00"/>
<path fill-rule="evenodd" clip-rule="evenodd" d="M17.235 2.10707C17.7772 2.60981 18.4428 3.04683 18.8765 3.66126C19.0443 3.89915 19.2309 4.02077 18.8736 4.3567C19.2511 4.24906 19.3913 4.26075 19.6934 4.29732C20.243 4.36371 20.7581 5.14377 20.791 5.70278C20.7845 5.75507 20.6383 5.87372 20.2134 5.99085C20.205 6.00716 19.9736 5.95923 19.9793 5.97486C20.0235 6.09552 20.0825 6.114 20.1726 6.17045C20.1921 6.30464 20.2047 6.51155 20.2962 6.65825C20.5637 6.65358 20.825 6.68263 21.0868 6.73441C21.1749 6.88034 21.1616 7.02625 21.1543 7.1723C21.2555 7.15549 21.3567 7.13863 21.4579 7.1218C21.4298 6.89156 21.4017 6.66142 21.3736 6.43126C21.4635 6.27966 21.5535 6.12806 21.6435 5.97651C21.5141 5.68458 21.3848 5.39265 21.2555 5.10068C21.0081 4.8649 20.7607 4.6291 20.5133 4.39327C20.4895 4.39214 20.4656 4.39089 20.4418 4.38974C20.1636 4.21921 19.8854 4.04878 19.6072 3.87829C19.1533 3.50759 18.6995 3.13685 18.2457 2.76613C17.9088 2.54644 17.5719 2.32674 17.235 2.10707" fill="#CCCC00"/>
<path fill-rule="evenodd" clip-rule="evenodd" d="M18.1484 6.25712C18.1198 6.30708 18.0766 6.38691 18.0213 6.44219C18.2472 6.65552 18.3586 6.79836 18.4391 7.10005C18.1838 7.22663 17.9285 7.3532 17.6731 7.47979C17.4571 7.68657 17.241 7.89338 17.025 8.10016C16.7406 7.94733 16.6698 7.82995 16.5322 7.53859C16.3719 7.58093 16.2201 7.62172 16.0878 7.57324C16.1717 7.57388 16.2233 7.55293 16.3072 7.50114C16.4447 7.35852 16.5822 7.21591 16.7196 7.07328C16.9625 6.88965 17.2053 6.70602 17.4481 6.52243C17.607 6.47069 17.766 6.41899 17.9249 6.3673C17.9856 6.34237 18.0877 6.2821 18.1484 6.25712" fill="#CCCC00"/>
<path fill-rule="evenodd" clip-rule="evenodd" d="M18.8533 7.0177C18.0409 7.45441 17.2629 7.89363 16.8475 8.72302C16.8475 7.67026 17.9062 7.20684 18.8533 7.0177Z" fill="#CCCC00"/>
<path fill-rule="evenodd" clip-rule="evenodd" d="M16.6863 4.94696C16.0831 5.3576 15.6566 6.18626 15.7102 6.9939C15.5137 6.2946 15.5833 5.6338 16.1866 5.15077C16.2884 5.10136 16.3902 5.05195 16.4919 5.00256C16.5567 4.98404 16.6215 4.96552 16.6863 4.94696" fill="#CCCC00"/>
<path fill-rule="evenodd" clip-rule="evenodd" d="M17.8393 11.1811C17.9639 11.1134 18.1902 11.0202 18.3149 10.9525C18.1867 10.9741 17.9568 11.0212 17.8285 11.0427C17.486 11.1005 17.4457 11.1827 17.3925 11.5195C17.3674 11.678 17.3329 11.8748 17.3079 12.0334C17.375 11.8541 17.4558 11.6456 17.5341 11.4746C17.6169 11.2937 17.6635 11.2767 17.8393 11.1811V11.1811ZM11.4835 2.5085C11.7527 2.10534 11.9077 1.97419 12.3219 1.71878C11.7594 1.85407 11.6522 1.95805 11.4835 2.5085ZM11.3949 3.39669C11.866 2.45117 12.2226 2.10301 13.2089 1.63862C12.0934 1.91162 11.7654 2.10576 11.3949 3.39669ZM1.30718 8.31821C1.41055 7.84475 1.50689 7.66615 1.79926 7.27749C1.32499 7.60832 1.26317 7.74421 1.30718 8.31821ZM11.866 16.2424C11.8518 16.1276 11.8374 16.0126 11.8231 15.8977C11.7972 15.6895 11.7983 15.5204 11.8149 15.3108C11.8309 15.108 11.8468 14.9053 11.8628 14.7024C11.8036 14.9086 11.6854 15.1147 11.6263 15.3208C11.6026 15.4033 11.583 15.47 11.5718 15.5317C10.6891 15.7118 9.81288 15.7231 8.92996 15.5658C8.87365 15.2394 8.80507 14.8993 8.74756 14.6556C8.73012 14.9286 8.74136 15.6835 8.73993 16.1061C8.73883 16.4336 8.72502 16.5457 8.55592 16.8242C8.39758 17.085 8.33051 17.1442 8.10887 17.5848C8.12728 17.8628 8.12764 18.0467 8.05365 18.3105C7.93059 18.7492 6.68952 18.4093 6.36208 18.3198C5.95889 18.2096 5.12531 18.0458 5.33494 17.5091C5.51945 17.0368 5.63636 16.5389 5.7265 15.8779C4.98781 14.8154 4.30079 13.3593 4.169 12.0693C4.06665 11.0675 4.12807 10.4509 4.34517 9.83819C4.68918 8.86736 5.17039 8.02698 5.94265 7.35026C6.98428 6.43769 7.95804 6.07111 9.48264 5.83944C9.11603 6.24919 8.75329 6.68254 8.35792 7.14715C7.95768 7.61759 7.71982 8.09268 7.46573 8.60715C7.11465 9.31777 7.12216 9.58816 7.58759 10.212C7.98866 10.7496 8.20517 10.9917 8.38027 11.5176C8.23564 11.8153 8.18308 12.0668 8.13444 12.4732C8.62552 13.0092 8.99041 13.3764 9.46721 13.4896C9.93489 13.6006 10.3255 13.579 10.7439 13.3655C11.6732 12.8911 12.533 12.2786 13.5813 12.2533C14.0663 11.0628 14.0173 10.0681 13.7844 8.91632C13.6254 8.12972 13.5617 7.38491 13.5122 6.58297C13.3156 7.40884 13.2787 8.13512 13.4245 8.95774C13.6004 9.94915 13.7371 11.0444 13.2479 11.9157C12.3 11.9882 11.4877 12.564 10.6333 13.0058C10.2899 13.1834 9.93239 13.2007 9.55227 13.0965C9.19944 12.9998 8.96136 12.7667 8.58126 12.329C8.57534 11.8896 8.67463 11.6867 8.87672 11.2888C9.20146 10.6497 9.55992 10.0548 9.95323 9.42588C9.47158 10.0064 9.01528 10.4913 8.6362 11.0749C8.4913 10.6627 8.28415 10.4534 7.94092 9.98929C7.60568 9.53601 7.57056 9.33748 7.82121 8.81293C8.07325 8.28576 8.287 7.8224 8.71598 7.35993C9.4572 6.56074 10.1362 5.67125 10.9468 4.88419C11.3869 4.45684 11.5655 4.47161 12.1493 4.38325C12.677 4.30342 13.1922 4.20258 13.7303 4.07776C13.2098 4.12619 12.7068 4.14403 12.2002 4.15657C12.1949 4.15672 12.1897 4.15689 12.1844 4.15689C12.6829 3.52126 12.9722 3.16709 13.7818 2.81587C15.7751 1.95149 17.0416 1.85801 18.6073 3.17218C19.0131 3.51277 19.3676 3.84343 19.7791 4.13728C19.6299 4.15002 19.5013 4.17673 19.3313 4.24342C19.5382 4.20405 19.7772 4.2431 19.992 4.28229C20.0523 4.32133 20.1142 4.35941 20.1777 4.3968C20.4681 4.56766 20.633 4.66202 20.8295 4.93533C21.0371 5.22414 21.2102 5.51273 21.3627 5.83082C21.2627 5.79517 21.1789 5.76502 21.1042 5.74284C21.0492 5.71768 20.9894 5.70104 20.926 5.69495C20.8004 5.68289 20.6801 5.71373 20.58 5.77528C20.576 5.77716 20.572 5.77898 20.5679 5.78096C20.4072 5.85904 20.1583 5.94809 19.9917 5.97509C20.0767 6.00437 20.2646 6.01533 20.3532 5.98032C20.3651 5.9756 20.3772 5.97202 20.3896 5.96905C20.3496 6.03697 20.3235 6.11413 20.3154 6.19746C20.3048 6.30794 20.3273 6.41398 20.3749 6.50606C20.375 6.50638 20.3752 6.50671 20.3754 6.50703C20.3904 6.54235 20.4113 6.57498 20.4343 6.59845C20.3581 6.62641 20.2804 6.65844 20.2004 6.69318C20.5718 6.63667 20.9067 6.62696 21.2693 6.67467C21.2932 6.78878 21.3173 6.90967 21.3396 7.03267C21.2946 7.03625 21.2498 7.03964 21.205 7.04317C21.2013 7.04349 21.1977 7.04381 21.194 7.04414C21.0225 6.90725 20.8314 6.93025 20.5703 6.98975C19.7763 7.17053 19.9629 7.61539 19.5976 8.28564C19.9769 7.82272 19.9488 7.33841 20.5668 7.19226C20.7108 7.15821 20.8089 7.11563 20.9064 7.13026C20.7309 7.21839 20.5791 7.36444 20.5189 7.53405C20.3493 8.01236 20.4546 8.41538 20.2683 8.86211C20.4991 8.46276 20.5131 8.07299 20.7195 7.65283C20.7936 7.50188 21.0688 7.26028 21.2377 7.25656C21.284 7.25559 21.3303 7.25458 21.3767 7.25358C21.4174 7.51947 21.4422 7.7834 21.4264 8.00237C21.3976 8.40189 21.2936 8.99492 21.2314 9.22181C21.4405 8.95344 21.5357 8.38498 21.6276 7.98486C21.7233 7.56815 21.6991 7.06816 21.6154 6.62055C21.5005 6.00636 22.134 6.10626 22.5018 5.81682C22.7721 5.60399 22.9582 5.26422 23.2061 5.02352C23.452 4.78485 23.839 5.13558 23.9357 5.36894C24.3551 6.38183 24.5461 7.97542 24.4353 8.99648C24.3111 10.1422 23.7567 11.393 22.7446 11.9571C21.4544 12.6761 19.933 12.2369 18.6512 11.8057C18.3776 11.7136 18.1873 11.5795 17.9468 11.4282C18.0123 11.7226 18.042 12.0342 17.9549 12.3283C17.8166 12.7947 17.5933 13.558 18.2276 13.6988C18.4691 13.7524 18.5786 13.7446 18.9194 13.569C18.6435 13.6313 18.5045 13.616 18.3148 13.5811C18.143 13.5494 18.0519 13.4404 18.0039 13.3119C18.0639 13.3552 18.1618 13.3788 18.3291 13.419C18.7994 13.5322 19.2476 13.3062 19.3352 12.9805C19.3863 12.7903 19.3776 12.6904 19.4859 12.4312C19.5831 12.4611 19.6838 12.4885 19.787 12.5134C19.7288 12.703 19.6705 12.8928 19.6122 13.0824C19.4611 13.5747 18.8722 13.9717 18.3523 13.9625C17.8716 13.954 17.5669 13.6534 17.2351 13.3587C17.0064 13.1555 16.7865 12.9612 16.5684 12.7688C15.9702 12.5803 15.4907 12.3601 14.9355 11.9497C15.3306 12.4134 15.5986 12.67 16.1496 12.9007C16.0695 13.7169 15.7854 14.3119 15.5432 15.093C15.4336 15.4463 14.5682 16.8614 14.3284 16.9995C14.1573 17.0978 13.0862 17.9986 12.8847 18.1174C12.7346 18.3165 12.6029 18.5914 12.3773 18.7104C11.6898 19.0734 11.248 18.3784 10.8781 17.7914C10.7096 17.524 10.2418 16.7538 10.6496 16.538C11.0352 16.3341 11.2511 16.1885 11.6444 15.9306C11.7022 16.0358 11.8015 16.1373 11.8661 16.2424L11.866 16.2424ZM14.2561 17.4869C13.908 17.7676 13.3227 18.2646 13.2092 18.3268C13.0035 18.6333 12.9781 18.8229 12.6487 19.0009C11.6681 19.5308 11.1476 18.9163 10.5671 18.0231C10.2906 17.5975 9.68579 16.6258 10.3276 16.2964C10.5979 16.1576 10.8029 16.0536 11.0073 15.9347C10.3341 16.0181 9.6733 16.0191 8.98623 15.9159C8.99839 15.9987 9.009 16.0775 9.01758 16.1497C9.06224 16.5245 9.07689 16.6395 8.87295 16.9415C8.72429 17.1617 8.667 17.2255 8.48744 17.6256C8.52012 17.9509 8.50594 18.134 8.41401 18.4746C8.20967 19.2318 6.79362 18.8168 6.21663 18.6609C5.52235 18.4735 4.53028 18.2989 4.93735 17.4077C5.03274 17.1989 5.10765 16.9854 5.16401 16.7817C4.55695 17.05 3.71332 16.4809 3.31152 16.0787C2.92935 15.6961 2.72175 15.2519 2.64942 14.8208C2.58782 14.4539 2.64422 14.4556 2.90646 14.1962C3.14636 13.9591 3.38618 13.7217 3.62602 13.4848C3.72287 13.2215 3.81989 12.9585 3.91669 12.6955C3.87896 12.4989 3.85092 12.3029 3.83421 12.1088C3.76453 11.2994 3.78795 10.7231 3.90375 10.1932C3.48135 10.3578 2.99665 10.2807 2.78106 9.83307C2.69908 9.66291 2.65024 9.48958 2.58833 9.23793C1.64605 8.33145 3.41185 7.14308 3.92697 7.05371C3.86808 7.2208 3.80356 7.37364 3.74677 7.52519C4.09612 7.70577 4.05329 8.22027 3.97911 8.55152C3.85344 8.39318 3.784 8.18613 3.59916 8.17723C3.57209 8.55184 3.57677 8.96581 3.28375 9.18575C3.37049 9.41726 3.36594 9.41745 3.61247 9.32281C3.9626 9.18822 4.22624 8.8884 4.49145 8.59579C4.77708 8.04026 5.14322 7.5461 5.64692 7.10022C6.88469 6.00452 8.05466 5.64604 9.93855 5.34628C10.1893 5.08501 10.4484 4.83291 10.7266 4.58778C11.1034 4.25576 11.3481 4.18682 11.7045 4.16826C12.2943 3.38061 12.7583 2.83209 13.7199 2.42797C15.7354 1.58094 17.1246 1.5401 18.7423 2.87187C19.2769 3.31191 19.7328 3.77566 20.3203 4.14301C20.6176 4.3289 20.8301 4.46252 21.0555 4.73054C21.339 5.06782 21.5705 5.40512 21.7317 5.83926C21.9399 5.7537 22.1773 5.67309 22.369 5.50948C22.6165 5.2983 22.774 4.94482 23.0033 4.71279C23.3076 4.40488 24.0018 4.77658 24.1555 5.07034C24.6783 6.06932 24.8922 7.91043 24.7811 9.00527C24.6437 10.3587 24.085 11.6381 22.8907 12.2745C22.0787 12.7071 20.9889 12.7473 20.0562 12.5713C19.9957 12.7699 19.9355 12.9685 19.8751 13.167C19.6937 13.7621 18.9858 14.2485 18.3674 14.2776C17.7737 14.3056 17.4518 13.9996 17.0624 13.6251C16.8581 13.4286 16.6537 13.2322 16.4494 13.0357C16.4375 13.1696 16.42 13.298 16.3979 13.4222C16.5587 13.7393 16.636 14.0181 16.7736 14.345C16.9251 14.7049 16.9988 14.9412 17.0092 15.3265C17.0183 15.6685 17.0275 16.0106 17.0367 16.3526C17.1895 16.6237 17.2029 16.6896 17.1806 16.9998C17.1336 17.6535 16.773 17.7159 16.172 17.7121C15.9718 17.7108 15.2161 17.7155 15.0234 17.7016C14.6405 17.674 14.388 17.6448 14.2561 17.4869V17.4869ZM16.2824 13.9209C16.1615 14.3519 15.9991 14.7588 15.8507 15.2252C15.7103 15.6667 14.9904 16.9488 14.5666 17.2595C14.6491 17.3208 14.8005 17.3448 15.0702 17.3681C15.261 17.3845 16.0132 17.388 16.2021 17.3913C16.618 17.3985 16.7758 17.3673 16.8178 16.8945C16.8384 16.6631 16.8202 16.6198 16.7043 16.4169C16.694 16.0551 16.6837 15.6931 16.6735 15.3313C16.6639 14.9882 16.5979 14.7906 16.4628 14.4709C16.382 14.2796 16.3381 14.101 16.2824 13.9209ZM3.61624 7.9991C3.70959 7.98851 3.76733 8.03742 3.83954 8.10946C3.82618 7.93733 3.79433 7.8097 3.67329 7.73934C3.6648 7.76735 3.65682 7.7953 3.64929 7.82372C3.63464 7.87913 3.62418 7.93797 3.61624 7.9991ZM4.20279 9.2428C4.13559 9.41639 4.07325 9.59531 4.01456 9.78018C4.00483 9.81074 3.9955 9.8415 3.98641 9.87211C3.63133 10.0225 3.16445 10.118 2.98572 9.74544C2.89893 9.56461 2.84994 9.38716 2.78665 9.15857C2.2019 8.55372 3.076 7.7552 3.55212 7.46878C3.48322 7.61667 3.43429 7.72862 3.40089 7.84388C3.25611 8.34342 3.46642 8.78923 3.01234 9.15137C3.22573 9.58133 3.21591 9.75278 3.71239 9.5541C3.90393 9.47748 4.06187 9.36992 4.20279 9.2428V9.2428ZM4.06597 13.3132C4.33512 14.2426 4.79347 15.1559 5.30162 15.9236C5.30157 15.928 5.30152 15.9324 5.30149 15.9369C5.26967 16.0689 5.23282 16.1976 5.15561 16.3008C4.79242 16.786 3.8685 16.0738 3.60109 15.8012C3.30875 15.5032 3.11308 15.1502 3.0665 14.8192C3.03263 14.5778 3.0655 14.5719 3.23422 14.4011C3.46161 14.1713 3.68922 13.9413 3.91651 13.7115C3.96627 13.5787 4.01621 13.446 4.06597 13.3132V13.3132ZM21.2646 5.85352C21.3164 5.90465 21.3582 5.96555 21.3871 6.03292C21.4027 6.01853 21.4196 6.00492 21.4371 5.992C21.4158 5.94412 21.3942 5.89691 21.372 5.8504C21.3352 5.8512 21.2995 5.85222 21.2646 5.85352ZM16.8156 7.52529C16.7683 7.42612 16.7456 7.32149 16.7448 7.21815C16.5705 7.35718 16.3809 7.48899 16.1843 7.56516C16.4558 7.32304 16.8247 6.75203 17.0919 6.57178C17.3952 6.36715 17.8068 6.40699 18.1605 6.24365C18.0397 6.35318 17.885 6.44144 17.7275 6.52544C17.901 6.58887 18.051 6.71719 18.1366 6.89629C18.1726 6.97182 18.1942 7.05068 18.2029 7.1296C18.4405 7.05169 18.6738 7.01481 18.8708 7.01764C18.166 7.2152 17.4162 7.67725 16.8992 8.28911C16.9573 8.12954 17.0385 7.98554 17.1362 7.85695C17.0007 7.78623 16.8863 7.67317 16.8156 7.52529V7.52529ZM13.547 4.97929C13.1578 5.13094 12.8027 5.24472 12.4233 5.33992C12.077 5.79425 11.8661 6.02963 11.7865 6.6386C11.6927 6.03952 11.6732 5.9283 11.9403 5.48115C11.8629 5.52042 11.7909 5.57442 11.6878 5.66245C11.3147 5.98096 10.8284 7.23263 10.634 7.68014C10.7574 7.14151 11.1435 5.79517 11.5411 5.40274C11.8026 5.14463 11.8619 5.15055 12.2306 5.11572C12.6697 5.07416 13.108 5.02883 13.547 4.97929V4.97929ZM21.6713 6.28531C21.9871 6.31514 22.1676 6.3638 22.4503 6.22417C22.9774 5.96378 23.3651 5.53868 23.6166 5.03025C23.4628 5.63683 23.1532 6.15227 22.5111 6.38091C22.1958 6.49309 21.9925 6.37724 21.6713 6.28531V6.28531ZM15.6114 6.34456C15.7304 5.81855 15.9416 5.31172 16.7598 4.91962C15.6753 5.19074 15.472 5.64549 15.6114 6.34456ZM1.5493 9.17745C1.64234 8.1255 1.84724 7.67139 2.59581 6.87975C1.65688 7.54031 1.42258 7.84049 1.5493 9.17745Z" fill="black"/>
<path fill-rule="evenodd" clip-rule="evenodd" d="M16.9572 7.69449C16.8847 7.54316 16.9495 7.36081 17.1014 7.28863C17.2534 7.21636 17.4364 7.28093 17.5089 7.43235C17.5158 7.44669 17.5212 7.46145 17.5257 7.47624C17.3806 7.58371 17.2475 7.71043 17.136 7.85718C17.0609 7.82703 16.9944 7.7722 16.9572 7.69449Z" fill="#FFFFCC"/>
<path fill-rule="evenodd" clip-rule="evenodd" d="M20.3522 6.38337C20.3644 6.25799 20.4714 6.16554 20.597 6.17765C20.7225 6.1898 20.8152 6.30183 20.8031 6.42723C20.8005 6.4539 20.7933 6.47893 20.7825 6.50197C20.6675 6.5215 20.5526 6.55518 20.4342 6.59863C20.3847 6.54803 20.3453 6.45565 20.3522 6.38337Z" fill="#FFFFCC"/>
</svg>
