<svg width="66" height="58" viewBox="0 0 66 58" fill="none" xmlns="http://www.w3.org/2000/svg">
<g clip-path="url(#clip0_44_740)">
<path fill-rule="evenodd" clip-rule="evenodd" d="M39.2693 45.4064V57.8345H42.3357V52.1226L42.9683 52.1344V57.8345H46.0694V45.4064H42.9683V50.0175H42.3357V45.4064L39.2693 45.4064Z" fill="black" stroke="#FDEE21" stroke-width="2.47882"/>
<path fill-rule="evenodd" clip-rule="evenodd" d="M49.8858 45.4064H46.899V57.8345H49.8858V45.4064Z" fill="black" stroke="#FDEE21" stroke-width="2.47882"/>
<path fill-rule="evenodd" clip-rule="evenodd" d="M50.3749 45.4063L52.7343 57.8344H56.2954L58.6548 45.4063H55.4844L54.7029 50.7241C54.6377 50.9278 54.4177 50.9278 54.3784 50.7241L53.5974 45.4061L50.3749 45.4063Z" fill="black" stroke="#FDEE21" stroke-width="2.47882"/>
<path fill-rule="evenodd" clip-rule="evenodd" d="M65.2174 45.4064H59.2888V57.8345H65.2174V54.5756L61.9209 54.5476L61.9209 53.1506H63.4914V49.9152H61.9209L61.9209 48.6652H65.2174V45.4064Z" fill="black" stroke="#FDEE21" stroke-width="2.47882"/>
<path fill-rule="evenodd" clip-rule="evenodd" d="M33.2026 7.71704C32.7033 6.3563 15.5265 -0.288247 15.3069 0.441264C12.1528 1.25939 10.8691 4.87672 8.69944 7.16797L3.88125 6.89338C1.75878 9.60919 0.645058 12.384 1.40341 15.2679C4.12374 18.9352 7.28163 22.0559 9.24989 26.6623C9.40546 28.8336 18.6942 26.89 20.6851 26.4602C17.9654 28.3974 15.597 31.4 16.6148 40.0477C17.5439 44.1086 18.1795 48.6426 26.4204 53.2356C27.5053 53.8402 29.7499 54.5378 31.1379 55.0464C32.4653 55.6522 34.0175 55.9011 38.3963 54.5687C40.9302 53.482 43.666 52.8273 46.1456 51.7432L43.1653 51.8823C39.0611 51.9712 35.8926 52.2758 34.9153 51.1348L31.1381 44.6465L33.3402 40.3906C36.3878 40.7016 37.3994 43.1608 40.0856 44.0973L43.2517 41.7635C52.4479 47.1649 56.1066 38.3402 57.1552 31.4672C57.0433 28.6708 51.0702 32.3443 51.4323 31.0368C51.5726 28.0308 49.1101 24.098 47.5191 21.0337L49.3604 13.9442C50.1959 13.2037 45.4925 5.31764 41.6519 4.33422C38.2821 3.47124 33.2024 7.71703 33.2024 7.71703L33.2026 7.71704Z" fill="#FDEE21"/>
<path fill-rule="evenodd" clip-rule="evenodd" d="M48.31 22.784C48.343 23.5455 48.3393 24.4717 48.4133 25.0493C48.4006 25.49 48.0686 25.5061 47.7938 25.5984L49.5834 26.2505C49.9387 26.8454 50.2242 27.4404 50.5126 28.0353C50.8471 29.4987 50.5975 29.5405 50.3749 29.6484C49.7255 29.6549 49.078 29.6562 48.4735 29.5282C48.7443 29.6704 48.8039 29.7741 48.8325 29.9563C48.8853 30.2921 48.668 30.7508 48.3101 31.1928C48.8393 31.485 49.8043 31.7709 50.5212 32.0423L51.3386 30.2318C50.9684 27.5722 49.846 25.1208 48.3101 22.784L48.31 22.784Z" fill="#C8C037"/>
<path fill-rule="evenodd" clip-rule="evenodd" d="M51.6499 31.705C52.6424 32.1166 54.0136 31.9959 55.9147 31.021C56.1974 30.821 56.4607 30.9406 55.9548 31.2697C53.4613 33.496 52.2678 32.3823 51.6499 31.705L51.6499 31.705Z" fill="#C8C037"/>
<path fill-rule="evenodd" clip-rule="evenodd" d="M56.1053 30.7295C56.4001 31.2912 56.2215 31.748 56.1225 32.2225C55.8146 34.6359 55.0588 36.5439 53.5758 38.5376C48.7521 46.2542 43.8822 41.4258 39.9994 38.2834L38.3933 42.2878C38.3081 42.6388 37.9535 42.9121 40.4618 44.0109L43.017 42.215C52.7617 49.5926 59.6672 31.8884 56.105 30.7297L56.1053 30.7295Z" fill="#C8C037"/>
<path fill-rule="evenodd" clip-rule="evenodd" d="M41.1748 37.6249C40.5173 37.6716 38.5607 38.3336 38.4736 38.717L39.374 37.3822L41.1748 37.6249Z" fill="#C8C037"/>
<path fill-rule="evenodd" clip-rule="evenodd" d="M39.8962 29.4424C40.0167 29.4424 40.5949 29.5969 40.5329 29.5625C40.4442 29.5134 40.523 30.3693 40.705 30.8152L39.9995 32.3426C41.3508 30.7919 43.4877 30.895 45.4714 30.6951L44.525 30.1117C44.6894 29.566 44.4958 29.1344 44.4045 28.6702L39.8962 29.4424Z" fill="#C8C037"/>
<path fill-rule="evenodd" clip-rule="evenodd" d="M43.2168 24.8437C41.7668 25.286 40.3789 26.0086 39.4471 27.5489C40.158 25.0101 40.3029 25.1065 40.5324 24.981C41.5267 24.5386 42.3409 24.8143 43.2168 24.8437V24.8437Z" fill="#C8C037"/>
<path fill-rule="evenodd" clip-rule="evenodd" d="M35.474 54.6001C33.7208 56.525 29.8089 54.4544 26.5602 53.3988C18.305 48.1756 16.6923 43.2585 16.5803 38.4348C16.1558 31.5251 18.2882 27.5102 20.9853 26.5596C19.2003 29.9835 18.3681 36.1296 19.1958 40.7C19.8638 43.2427 19.8777 47.5311 24.1533 49.8267C26.247 50.9995 25.6799 51.9126 27.0957 53.0111C28.6472 54.2148 32.9731 55.3592 35.474 54.6001L35.474 54.6001Z" fill="#FCF6A0"/>
<path fill-rule="evenodd" clip-rule="evenodd" d="M38.0933 22.6672C35.125 18.4789 30.9502 16.9067 26.2423 16.7349C27.1858 16.4289 28.1293 16.2695 29.0728 15.8168C29.3039 15.5753 29.2284 15.1502 29.1417 14.7186C24.6099 13.5412 21.7499 12.086 18.1294 10.7371L27.9033 13.071C34.5037 13.3205 33.9369 14.9419 38.0937 22.6674L38.0933 22.6672Z" fill="#FCF6A0"/>
<path fill-rule="evenodd" clip-rule="evenodd" d="M41.2712 20.6475C39.0775 17.5316 36.95 13.75 34.062 11.3449C27.0905 8.21395 20.1942 5.88866 12.1119 3.77269L14.6914 0.472107C23.2678 2.42007 31.3235 5.67974 38.5391 11.0532C39.7599 14.1247 40.574 17.2002 41.2705 20.6471L41.2712 20.6475Z" fill="#FCF6A0"/>
<path fill-rule="evenodd" clip-rule="evenodd" d="M45.6935 15.1414C45.6935 15.1414 44.4638 12.3961 43.865 11.3478C42.476 9.81619 41.7737 6.96208 38.929 5.61725C39.8287 5.85901 40.4444 5.57096 42.2812 7.22784L45.1743 12.6885L45.6935 15.1414Z" fill="#FCF6A0"/>
<path fill-rule="evenodd" clip-rule="evenodd" d="M47.2233 19.8974C47.5069 17.5189 48.0455 13.7036 47.4274 12.1963C45.7078 9.90051 43.976 7.52754 42.2435 5.32457C41.9566 5.05886 41.75 4.69826 41.5239 4.41693C43.9598 5.04488 46.5019 6.7301 49.93 13.3831L47.2233 19.8974Z" fill="#FCF6A0"/>
<path fill-rule="evenodd" clip-rule="evenodd" d="M36.9824 20.1781C36.0122 19.4183 35.1476 16.731 33.6774 16.1723C32.3166 16.059 31.8176 15.633 30.0281 15.9958C30.6772 15.6722 31.2899 15.2582 31.9798 15.0365C32.4471 14.9268 32.8855 15.0484 33.3313 15.1096C33.4414 15.0578 33.5136 14.9934 33.4866 14.896C31.6854 13.7884 27.9902 13.7726 25.4957 13.1404C28.3907 13.2368 31.5939 13.0771 33.7697 13.7714C35.5192 15.3163 36.0876 18.2257 36.9824 20.1781L36.9824 20.1781Z" fill="black"/>
<path fill-rule="evenodd" clip-rule="evenodd" d="M42.2875 7.21881C42.6891 7.25512 44.8506 10.6571 44.9521 11.2232C45.1318 12.4607 45.5751 13.8479 45.6943 15.1426C45.3383 13.9009 44.9504 12.6591 44.4654 11.4174C44.3236 11.0754 43.9652 10.3023 42.9689 9.20892C42.505 8.43823 42.4048 7.83245 42.2875 7.21888L42.2875 7.21881Z" fill="black"/>
<path fill-rule="evenodd" clip-rule="evenodd" d="M49.6119 25.7481H48.6871L49.7092 26.0151L49.6119 25.7481Z" fill="black"/>
<path fill-rule="evenodd" clip-rule="evenodd" d="M43.3024 24.8292C42.3725 24.7154 41.4182 24.7003 40.4884 24.9037C40.1094 25.4103 40.0833 25.9255 39.9176 26.4017C41.048 25.1621 41.4966 25.0863 43.3024 24.8292V24.8292Z" fill="black"/>
<path fill-rule="evenodd" clip-rule="evenodd" d="M55.9849 31.2271C55.4674 31.6381 55.4157 32.0249 53.8856 32.4884C52.7698 32.751 52.1394 32.306 51.6143 31.7076C52.4105 31.9346 52.5378 32.5332 54.6729 31.8621L55.9849 31.2271Z" fill="black"/>
<path fill-rule="evenodd" clip-rule="evenodd" d="M51.3476 31.4844C50.9752 32.5034 50.5737 33.5331 50.1689 34.4875C49.205 35.6123 49.6158 34.9713 48.1729 36.7184C48.6346 36.0096 49.2351 35.3286 49.5495 34.5904C49.7703 34.1044 50.0451 33.5887 50.1668 33.1569C49.7842 32.9668 49.0011 32.9518 48.8949 33.02C47.612 33.7729 47.3805 34.5697 46.6242 35.3455C47.1724 34.4736 47.6406 33.5219 48.2761 32.7371C48.3485 32.6352 48.819 32.6155 49.1083 32.5554C48.6588 32.4787 47.8268 32.3179 47.7598 32.3252C46.9229 32.5253 46.4539 33.2507 45.8326 33.7324C46.2856 33.0817 46.7028 32.4041 47.278 31.8447C47.3349 31.7789 48.8896 31.9145 49.6954 32.2344L49.7114 32.5533L50.1688 32.7371L50.513 31.8791L51.3476 31.4844Z" fill="black"/>
<path fill-rule="evenodd" clip-rule="evenodd" d="M41.1956 37.6278C40.9891 37.5576 39.1651 37.3242 39.1651 37.379C38.4648 37.8749 38.3586 38.3495 38.3736 38.7604C39.5387 37.6199 39.4953 37.6167 41.1956 37.6278L41.1956 37.6278Z" fill="black"/>
<path fill-rule="evenodd" clip-rule="evenodd" d="M39.81 29.4253C39.81 29.4253 41.1262 29.2344 41.1005 29.3567C41.0052 29.8111 41.2617 30.9184 41.2898 30.7639L40.5499 31.3645C42.0995 30.5893 43.7308 30.7451 45.3852 30.6266C45.3852 30.6266 43.9922 30.244 44.0774 30.2319C44.3881 30.1881 43.9947 28.7865 43.8881 28.7561C44.1531 28.6669 44.4119 28.5996 44.6796 28.533C42.6877 28.0143 41.5358 28.32 39.8099 29.4254L39.81 29.4253Z" fill="black"/>
<path fill-rule="evenodd" clip-rule="evenodd" d="M51.2013 30.4028L50.9087 30.5487C50.8672 29.696 49.9469 29.7586 49.1708 29.7508L48.5341 29.5963C48.7277 29.7746 49.3261 29.7606 49.0848 30.1455C48.8816 30.2535 48.7881 30.7171 48.6718 31.1064L48.3276 31.1236C48.9356 31.36 49.4996 31.5672 50.1688 31.8444L50.5646 31.9044L51.511 31.3982L51.2013 30.4028Z" fill="black"/>
<path fill-rule="evenodd" clip-rule="evenodd" d="M42.4772 29.8284C42.3291 29.5368 41.5838 29.5782 41.4231 29.7668C41.2926 29.9201 41.415 30.9038 41.5824 30.7379C41.8244 30.5262 42.1405 30.4377 42.5202 30.4547C42.5681 30.273 42.5512 30.0768 42.4772 29.8284L42.4772 29.8284Z" fill="white"/>
<path fill-rule="evenodd" clip-rule="evenodd" d="M49.6242 31.2938C49.6942 31.2428 49.8423 30.7496 49.7945 30.6021C49.6966 30.2539 49.0036 30.3272 49.0036 30.3272C48.8345 30.4262 48.6863 30.969 48.7481 31.1481C48.7776 31.2997 49.5129 31.3481 49.6241 31.2937L49.6242 31.2938Z" fill="white"/>
<path fill-rule="evenodd" clip-rule="evenodd" d="M19.9891 48.3094L20.4269 48.3521C23.0222 49.62 27.2954 51.5 33.4819 50.4897L34.4527 52.0096C31.7281 53.3269 28.7978 53.0238 26.0518 53.1162L19.9891 48.3094Z" fill="black"/>
<path fill-rule="evenodd" clip-rule="evenodd" d="M16.2628 38.2857L17.5629 43.7163C21.0434 45.8812 26.989 48.3608 31.945 48.1607L30.8498 45.6603C20.5046 43.4743 19.6296 40.711 16.263 38.2853L16.2628 38.2857Z" fill="black"/>
<path fill-rule="evenodd" clip-rule="evenodd" d="M19.498 27.162C20.1334 31.3703 20.9817 34.5609 24.6593 37.2334C26.9134 38.8464 29.1509 40.4526 31.8724 41.7783C31.8724 41.7783 31.6338 43.0137 31.4343 42.9917C23.3353 42.0965 17.4059 35.4143 16.6876 32.3622C17.3833 30.021 18.3812 28.5586 19.4978 27.162H19.498Z" fill="black"/>
<path fill-rule="evenodd" clip-rule="evenodd" d="M23.3913 24.7776C24.4705 29.4418 27.0439 34.1659 29.6017 38.4514C30.5393 39.6352 30.7847 40.1576 32.2298 40.8783C34.1831 41.4937 35.5644 41.3367 36.9822 41.2441C36.5937 40.5286 36.2485 39.7808 35.8024 39.1084C32.6276 36.6102 34.0949 34.3356 34.9381 32.8956C33.1728 32.4517 30.8339 31.5084 30.5117 30.2677C29.9936 26.2546 30.2566 24.9816 30.7752 22.9203C28.3847 23.4219 25.9624 23.9189 23.3911 24.7776L23.3913 24.7776Z" fill="black"/>
<path fill-rule="evenodd" clip-rule="evenodd" d="M14.6218 0.00305176C13.8361 0.513761 13.0792 1.24399 12.2649 2.07397C10.9149 3.46436 10.0175 4.82066 8.64343 5.82619C8.36861 6.06198 7.59738 6.4417 6.62782 6.49802C6.17109 6.5207 5.87355 6.59591 5.0343 6.49106C4.29415 6.09228 3.59098 6.3516 2.90471 7.16837C2.15219 8.24517 1.19915 10.2899 0.802839 11.577C-0.0139334 14.8596 2.06844 17.5642 4.0654 19.6487C5.84188 21.3755 6.8661 22.4547 7.5955 24.0378C8.14777 25.0646 8.5569 26.4737 8.99984 27.4617C9.15956 27.775 9.12635 27.7733 9.55627 27.8677C10.4846 28.0649 11.7723 28.0664 12.9186 28.1644C13.4146 28.1713 14.0958 28.153 14.7412 28.086C15.6305 27.9189 16.6753 27.7552 17.551 27.4538C18.4068 27.2442 19.1692 26.9538 19.8565 26.6865C19.7679 26.9858 19.1131 27.2739 18.8676 27.6533C16.538 30.9715 15.8998 33.9243 16.3054 38.5831C16.5348 40.648 17.0111 42.3598 17.7298 44.3184C18.0586 45.2147 18.7584 46.6342 19.429 47.5771C21.4231 50.3808 25.8844 53.9812 32.0947 55.3671C33.1782 55.5145 34.4079 55.4359 35.5644 55.1294C38.6295 54.2049 44.8765 52.0184 44.8765 52.0184C44.8765 52.0184 39.3313 52.4748 36.7917 52.225C36.2038 52.1335 35.5559 52.1025 35.1463 51.7038C35.0776 51.6155 34.828 51.1153 34.9892 51.1108C35.2091 51.1047 35.8403 50.844 36.815 50.7575C34.7341 50.5346 34.7638 50.5372 34.6119 50.1601C34.3757 49.5746 34.0142 48.7744 33.6419 48.0742C34.5563 48.151 36.5808 48.264 37.2678 47.5585C37.2678 47.5585 36.0698 47.6961 35.0111 47.5726C34.6545 47.5309 34.0467 47.3151 33.8641 47.2484C33.3888 47.0642 32.9975 47.007 32.9064 46.887C32.7413 46.469 32.6295 46.3284 32.4303 45.7685C32.1605 45.0271 32.1391 44.2001 32.0877 43.4431C32.7802 44.2925 33.6627 45.0075 34.831 45.3726C34.8459 45.3412 36.3465 46.0217 37.4363 45.6718L37.6622 45.5993C37.6622 45.6193 36.9402 45.6622 36.6754 45.5318C34.4591 44.5944 34.1255 43.774 33.7677 43.3665L32.8106 41.9401C33.1017 41.3627 33.2662 41.3407 33.6519 41.3354C34.8184 41.4643 35.3259 41.5635 36.0357 41.3931C36.5153 42.3753 36.6449 43.3633 37.7368 44.078C41.3745 45.1524 42.1648 43.7589 43.0459 42.5277C45.6633 44.439 49.9242 45.0283 52.8833 42.5608C56.6454 38.2294 57.8364 31.401 57.5028 31.0111C57.033 30.218 56.4166 29.4001 55.8872 29.5131C54.0006 30.0256 53.3049 30.9779 51.4355 30.7607C51.6581 30.7482 52.0325 30.7422 52.0354 30.721C52.1794 29.146 52.0238 28.3838 51.9543 28.253C51.387 27.0081 50.6421 25.698 50.1229 24.7162C49.989 24.5125 49.5959 22.9656 48.9371 22.3545C48.6546 22.1144 47.9631 21.4815 47.9631 21.4815L47.9045 22.1542C47.9045 22.1542 48.1748 22.1949 48.2777 22.6116C48.6677 24.1916 50.6538 27.9273 50.7996 28.1063C51.5035 29.237 50.8711 30.6455 51.4063 31.4357C51.4577 31.5361 52.498 31.4269 53.3044 31.4762C54.6303 31.1925 54.5744 30.611 55.7198 30.5236C56.4914 30.4648 56.5688 31.9066 56.5586 32.0185C56.4148 33.6105 55.9281 35.4616 55.1832 37.152C53.6345 40.1209 51.9001 42.7874 49.4403 43.1592C46.44 43.6809 44.8808 42.3757 43.2543 41.5446L42.6321 42.0726C40.5183 44.1671 38.0085 43.9811 36.982 41.2444C36.4709 40.1828 35.805 39.5322 35.2348 38.6215L32.211 40.7886C31.9593 41.3023 31.6498 42.1123 31.2738 43.0171C31.0124 43.6462 30.7933 44.7265 30.8075 45.6243C30.4199 46.2813 32.1501 48.9459 33.2433 50.5667C33.5659 51.0449 34.1681 51.8803 34.1883 51.9324C34.4051 52.492 34.8799 52.986 34.9087 53.0463C36.9383 55.6803 32.3485 55.0737 31.4005 54.9146C29.5303 54.6181 27.701 53.8407 25.9815 52.8013C25.8817 52.741 25.7823 52.6798 25.6833 52.6178C23.6398 51.3375 21.7596 49.6995 20.161 48.0794C19.2078 47.0054 18.3001 44.8039 17.6297 43.2432C16.625 39.4908 15.1831 32.9868 19.0891 28.0581C19.3366 27.7764 19.6038 27.3074 19.8313 27.2146C20.9918 26.4336 22.2519 25.9012 23.607 25.6056L23.4702 24.7316C22.7935 24.8846 20.5147 25.7139 19.8705 26.061C18.4052 26.4836 17.1899 26.9249 15.3225 27.3902C14.7155 27.4641 14.1184 27.4654 13.5363 27.3867C12.193 27.2051 9.90331 27.3673 9.75726 27.2323C8.84768 25.9702 8.59865 23.7088 7.76873 22.4985L7.75894 22.4864L7.74843 22.475C7.26462 21.8279 6.7007 21.3001 6.14532 20.7511C4.15647 18.7849 2.4542 16.8838 1.97772 14.8692C1.8579 14.2744 1.54935 13.6583 1.71334 11.8983L1.71636 11.8897L1.71924 11.8811C2.19774 10.2369 2.97617 8.89668 4.29735 7.55346C5.67221 7.57555 7.03309 7.6056 8.09313 7.80708C8.57945 7.88804 9.59079 8.01949 10.6353 8.40667C13.2793 9.38668 16.7726 10.9979 16.7726 10.9979C14.1504 9.56493 11.2182 7.70384 9.36657 7.32826C9.09108 7.28945 8.92176 7.1644 8.83994 6.94611C11.6248 5.31798 12.1343 3.40108 13.966 1.6819C14.8031 1.31932 15.1296 1.13422 15.8408 1.05732C22.4192 2.0923 26.5604 4.6994 29.8363 6.44268C31.1659 7.16214 32.3745 7.70618 33.5289 8.36139C34.5409 8.69258 37.5944 10.9865 38.4881 12.2232C39.3959 14.1305 40.0587 16.1906 40.6632 18.1786C41.0967 20.2005 41.477 21.0207 41.477 21.0207C41.477 21.0207 41.1086 19.3295 41.17 19.0257C41.5519 19.1677 42.455 19.4482 42.8293 19.4047C42.8293 19.4047 41.1572 18.5446 40.9381 17.7845C40.235 15.3454 39.5298 11.5485 39.3397 11.3505C38.8038 10.6796 36.5691 8.97793 35.1984 8.1908C34.6799 7.89304 34.3996 7.70834 34.3777 7.57743C34.8156 7.13727 35.3564 6.55502 35.8413 6.18504C36.3062 5.8304 36.7294 5.43046 37.3772 5.19112C40.2245 3.91512 41.8526 5.68203 42.2389 5.32423C42.2389 5.32423 41.6264 4.62559 41.8985 4.7406C42.1771 4.89077 43.0852 5.06787 43.1848 5.16009C44.2226 5.96784 46.9357 8.92004 48.5709 12.035C48.9636 12.798 49.1233 13.3005 48.9411 14.2192C48.7585 15.1389 48.6172 15.6446 48.418 16.2587C48.238 16.6693 47.2199 19.4802 47.2239 19.8578C47.0188 21.4001 47.8886 23.3309 47.8886 23.3309C47.8969 22.8068 47.8562 22.5275 47.904 22.1527L47.9625 21.483C47.9625 21.483 47.9254 21.3048 47.9321 21.2342C47.9763 20.7711 48.0905 20.3817 48.124 20.1164C48.4509 18.1022 49.0192 16.6522 49.6638 14.8847C49.8554 14.4386 50.1061 14.1906 50.0933 13.8509C50.1038 13.2483 49.5619 12.4394 49.1702 11.6493C48.7751 10.8509 48.303 9.96075 47.6832 9.02257C46.27 7.00056 45.0653 5.41851 42.8594 4.42839C42.2421 4.15888 39.8134 3.89538 38.9746 4.05195C37.9572 4.26287 37.0822 4.47087 36.3846 4.91538C35.2868 5.61486 34.4241 6.69785 33.4125 7.33597C31.1741 6.22225 30.0938 5.38872 29.8924 5.27382C28.5621 4.56454 26.965 3.74146 25.2467 2.96091C24.4229 2.19647 19.3069 0.368113 14.6224 0.0034215L14.6218 0.00305176ZM43.2538 41.5433C41.8743 40.4703 40.713 39.3657 39.9475 38.2283C39.6976 39.566 38.7905 40.5188 38.0895 41.4558C37.9499 41.6756 37.8493 41.9753 38.5365 42.9303C38.7217 43.1847 39.3919 43.2282 39.8443 43.2048C39.384 42.8587 38.6838 42.4925 38.571 42.1752C39.3806 42.7237 40.1303 42.8813 40.8079 42.793C40.9627 42.7757 41.155 42.6123 41.3037 42.3608C41.6057 41.7151 41.8422 41.5596 42.0812 41.3858L42.6318 42.0722L43.2538 41.5433Z" fill="black" stroke="black" stroke-width="0.0550855"/>
</g>
<defs>
<clipPath id="clip0_44_740">
<rect width="64.7667" height="58" fill="white" transform="translate(0.616699 -0.000488281)"/>
</clipPath>
</defs>
</svg>
