<svg width="77" height="20" viewBox="0 0 77 20" fill="none" xmlns="http://www.w3.org/2000/svg">
<g clip-path="url(#clip0_59_693)">
<path d="M3.02495 0.00500488V16.3468H8.70695V19.1615H0V0.00500488H3.02495ZM19.376 8.12984V6.40703H22.2511V19.1686H19.3897V17.4387C18.9945 18.0767 18.4495 18.573 17.7409 18.9275C17.0324 19.3033 16.3102 19.4805 15.5949 19.4805C14.6615 19.4805 13.8099 19.3033 13.04 18.9488C12.2875 18.6094 11.6103 18.1122 11.0506 17.4883C10.4958 16.8693 10.0568 16.1479 9.75615 15.3614C9.44656 14.5395 9.2916 13.6634 9.29968 12.7807C9.29968 11.8874 9.45638 11.0295 9.76296 10.2284C10.06 9.43146 10.4992 8.70018 11.0574 8.07312C11.6119 7.44584 12.2844 6.9439 13.0332 6.59846C13.8099 6.24397 14.6683 6.06673 15.588 6.06673C16.3034 6.06673 17.0188 6.25106 17.7273 6.61264C18.4359 6.9813 18.9809 7.47758 19.3624 8.11566L19.376 8.12984ZM19.1171 14.3475C19.2966 13.8487 19.3889 13.3205 19.3897 12.7878C19.3897 12.2348 19.2943 11.7243 19.1171 11.2281C18.954 10.7505 18.7042 10.3101 18.3813 9.93063C18.0592 9.56561 17.67 9.2715 17.2368 9.06568C16.771 8.84328 16.264 8.72955 15.7515 8.73247C15.2065 8.73247 14.716 8.85299 14.28 9.07277C13.8528 9.27924 13.4686 9.57066 13.149 9.93063C12.827 10.3082 12.5814 10.7495 12.4268 11.2281C12.2578 11.7292 12.1726 12.2567 12.1747 12.7878C12.1747 13.3337 12.2565 13.8513 12.4268 14.3475C12.5903 14.8438 12.8356 15.2692 13.149 15.6237C13.4658 15.9941 13.8503 16.2954 14.28 16.5099C14.716 16.7226 15.2065 16.836 15.7515 16.836C16.2966 16.836 16.7939 16.7297 17.2368 16.5099C17.6713 16.3001 18.0606 16.001 18.3813 15.6308C18.702 15.2577 18.9517 14.8246 19.1171 14.3546V14.3475ZM24.513 19.1686V6.40703H32.2934V9.34218H27.3744V19.1615H24.513V19.1686ZM42.6832 8.12984V6.40703H45.5446V19.1686H42.6832V17.4387C42.3016 18.0767 41.7498 18.573 41.048 18.9275C40.3327 19.3033 39.6173 19.4805 38.8952 19.4805C37.9618 19.4805 37.1102 19.3033 36.3403 18.9488C35.5878 18.6094 34.9106 18.1122 34.3509 17.4883C33.7961 16.8693 33.3571 16.1479 33.0565 15.3614C32.7492 14.539 32.5965 13.6629 32.6068 12.7807C32.6068 11.8874 32.7567 11.0295 33.0633 10.2284C33.3603 9.43146 33.7995 8.70018 34.3577 8.07312C34.9122 7.44584 35.5847 6.9439 36.3335 6.59846C37.1102 6.24397 37.9686 6.06673 38.8883 6.06673C39.6037 6.06673 40.3191 6.25106 41.0276 6.61264C41.7362 6.9813 42.288 7.47758 42.6627 8.11566L42.6832 8.12984ZM42.4243 14.3475C42.5991 13.8478 42.6868 13.3196 42.6832 12.7878C42.6832 12.2348 42.5946 11.7243 42.4243 11.2281C42.2632 10.7511 42.0157 10.3107 41.6953 9.93063C41.3691 9.56407 40.9752 9.26987 40.5371 9.06568C40.0942 8.85299 39.5969 8.73247 39.0587 8.73247C38.5136 8.73247 38.0231 8.85299 37.5803 9.07277C37.1531 9.27924 36.7689 9.57066 36.4493 9.93063C36.1273 10.3082 35.8817 10.7495 35.7271 11.2281C35.5605 11.7296 35.4775 12.2571 35.4819 12.7878C35.4819 13.3337 35.5636 13.8513 35.7271 14.3475C35.8975 14.8438 36.1359 15.2692 36.4493 15.6237C36.7662 15.9941 37.1506 16.2954 37.5803 16.5099C38.0231 16.7226 38.5136 16.836 39.0587 16.836C39.6037 16.836 40.0942 16.7297 40.5439 16.5099C40.9833 16.3017 41.3774 16.0026 41.7021 15.6308C42.0203 15.2571 42.2676 14.8241 42.4311 14.3546L42.4243 14.3475ZM57.0449 6.40703H59.954L55.2531 19.1686H51.6422L46.9413 6.40703H49.8368L53.4476 16.1767L57.0449 6.41412V6.40703ZM66.2015 6.08091C70.1053 6.08091 72.7692 9.68249 72.265 13.8938H62.7473C62.7473 14.9856 63.8238 17.1125 66.3582 17.1125C68.5383 17.1125 70.0031 15.1274 70.0031 15.1274L71.938 16.6871C70.2007 18.6014 68.7836 19.4876 66.5557 19.4876C62.5906 19.4876 59.9063 16.8644 59.9063 12.7736C59.9063 9.06568 62.686 6.06673 66.1947 6.06673L66.2015 6.08091ZM62.7609 11.6818H69.642C69.6148 11.4337 69.2332 8.44888 66.181 8.44888C63.1152 8.44888 62.7882 11.4407 62.7609 11.6818ZM74.1386 19.1473V0.00500488H77V19.1615H74.1386V19.1473Z" fill="#FF2D20"/>
</g>
<defs>
<clipPath id="clip0_59_693">
<rect width="77" height="20" fill="white" transform="translate(0 -0.000488281)"/>
</clipPath>
</defs>
</svg>
