<svg width="50" height="45" viewBox="0 0 50 45" fill="none" xmlns="http://www.w3.org/2000/svg">
<path d="M20.3104 44.8201C19.7102 44.8201 19.1141 44.6626 18.5879 44.3597L13.105 41.1136C12.2861 40.6557 12.6857 40.4937 12.9558 40.4003C14.0477 40.018 14.2693 39.9317 15.4348 39.2698C15.5573 39.1999 15.7176 39.2246 15.843 39.2986L20.0551 41.7981C20.2072 41.8803 20.423 41.8803 20.5641 41.7981L36.9875 32.3181C37.1396 32.2318 37.2383 32.055 37.2383 31.8741V12.9224C37.2383 12.7333 37.1396 12.5647 36.9842 12.4702L20.5673 2.99844C20.4152 2.908 20.2138 2.908 20.0617 2.99844L3.64809 12.4702C3.48899 12.5606 3.38786 12.7374 3.38786 12.9183V31.87C3.38786 32.0509 3.48653 32.2236 3.64275 32.3099L8.14018 34.9081C10.5821 36.129 12.0744 34.6902 12.0744 33.2431V14.538C12.0744 14.2708 12.2841 14.0653 12.5513 14.0653H14.6315C14.8905 14.0653 15.1042 14.2708 15.1042 14.538V33.2513C15.1042 36.5072 13.3283 38.3777 10.2409 38.3777C9.29127 38.3777 8.54306 38.3777 6.45467 37.35L2.14634 34.8669C1.08159 34.2503 0.423828 33.0992 0.423828 31.87V12.9183C0.423828 11.685 1.08159 10.5339 2.14634 9.92548L18.5862 0.441393C19.6263 -0.14648 21.0076 -0.14648 22.0395 0.441393L38.4588 9.92959C39.5195 10.5421 40.1814 11.6891 40.1814 12.9224V31.8741C40.1814 33.1033 39.5195 34.2503 38.4588 34.8669L22.0395 44.351C21.5133 44.6552 20.9172 44.8115 20.3088 44.8115" fill="#689F63"/>
<path d="M25.3834 31.7611C18.1974 31.7611 16.6907 28.4625 16.6907 25.6958C16.6907 25.4327 16.9028 25.223 17.1663 25.223H19.2876C19.5219 25.223 19.7193 25.3936 19.7563 25.6251C20.0769 27.7866 21.0307 28.8769 25.376 28.8769C28.8375 28.8769 30.3092 28.0949 30.3092 26.2594C30.3092 25.2029 29.8899 24.4177 24.5127 23.8914C20.0152 23.4475 17.2362 22.4567 17.2362 18.8596C17.2362 15.5461 20.0317 13.5728 24.7141 13.5728C29.9721 13.5728 32.5785 15.3981 32.9074 19.32C32.9197 19.4557 32.8704 19.5872 32.7799 19.6859C32.6895 19.7804 32.562 19.838 32.4305 19.838H30.2969C30.0749 19.838 29.8817 19.6818 29.8364 19.468C29.3226 17.1946 28.081 16.467 24.7059 16.467C20.9279 16.467 20.488 17.7825 20.488 18.7691C20.488 19.9654 21.006 20.3149 26.1036 20.9891C31.152 21.6592 33.5487 22.6047 33.5487 26.1525C33.5487 29.7291 30.5641 31.7805 25.3596 31.7805L25.3834 31.7611ZM45.3637 11.6818H45.9146C46.3668 11.6818 46.4531 11.3652 46.4531 11.1802C46.4531 10.6951 46.1201 10.6951 45.9351 10.6951H45.3678L45.3637 11.6818ZM44.6936 10.1278H45.9146C46.3339 10.1278 47.1561 10.1278 47.1561 11.0651C47.1561 11.7188 46.7368 11.8544 46.486 11.9366C46.9752 11.9695 47.0081 12.2902 47.0739 12.7424C47.1068 13.0261 47.1602 13.5153 47.2589 13.6797H46.5066C46.486 13.5153 46.3709 12.6108 46.3709 12.5615C46.3216 12.3601 46.2517 12.2614 46.0009 12.2614H45.3801V13.6838H44.6936V10.1278ZM43.226 11.8955C43.226 13.3673 44.4141 14.5595 45.8735 14.5595C47.3452 14.5595 48.5333 13.3426 48.5333 11.8955C48.5333 10.4197 47.3288 9.24805 45.8694 9.24805C44.4305 9.24805 43.2219 10.4032 43.2219 11.8914L43.226 11.8955ZM49.043 11.9038C49.043 13.6468 47.6165 15.0692 45.8776 15.0692C44.1509 15.0692 42.7121 13.6633 42.7121 11.9038C42.7121 10.1114 44.1838 8.73828 45.8776 8.73828C47.5836 8.73828 49.0389 10.1155 49.0389 11.9038" fill="#689F63"/>
</svg>
