<svg width="64" height="35" viewBox="0 0 64 35" fill="none" xmlns="http://www.w3.org/2000/svg">
<path d="M0.899902 17.5003C0.899902 26.6613 14.8242 34.0879 32 34.0879C49.1757 34.0879 63.1001 26.6613 63.1001 17.5003C63.1001 8.33944 49.1757 0.912724 32 0.912724C14.8242 0.912724 0.899902 8.33944 0.899902 17.5003Z" fill="url(#paint0_radial_44_440)"/>
<path d="M32 32.8564C48.5049 32.8564 61.8852 25.9813 61.8852 17.5004C61.8852 9.01961 48.5049 2.14434 32 2.14434C15.495 2.14434 2.11475 9.01961 2.11475 17.5004C2.11475 25.9813 15.495 32.8564 32 32.8564Z" fill="#777BB3"/>
<path d="M17.7968 19.4038C19.1539 19.4038 20.1671 19.1501 20.8081 18.6499C21.4423 18.1548 21.8803 17.297 22.1099 16.1004C22.324 14.9821 22.2424 14.2011 21.8676 13.7797C21.4844 13.3493 20.6558 13.131 19.405 13.131H17.2361L16.0338 19.4038H17.7968ZM10.7031 27.1309C10.6024 27.1309 10.5068 27.0852 10.4428 27.0063C10.3787 26.9275 10.3527 26.8237 10.3719 26.7235L13.5584 10.1003C13.5892 9.9396 13.7282 9.82349 13.8897 9.82349H20.7574C22.9158 9.82349 24.5223 10.4177 25.5321 11.5898C26.5473 12.7681 26.8608 14.4151 26.4638 16.485C26.3023 17.3283 26.0244 18.1115 25.638 18.8127C25.2512 19.5147 24.74 20.1642 24.1182 20.7436C23.374 21.4498 22.5317 21.9619 21.617 22.2632C20.7168 22.5606 19.5607 22.7114 18.1808 22.7114H15.3999L14.6058 26.8539C14.575 27.0148 14.4362 27.1309 14.2746 27.1309H10.7031Z" fill="black"/>
<path d="M17.5144 13.4733H19.4051C20.9147 13.4733 21.4391 13.8092 21.6173 14.0093C21.9129 14.3417 21.9687 15.0424 21.7787 16.0357C21.5652 17.1477 21.1695 17.9361 20.6024 18.3789C20.0217 18.8321 19.0777 19.0618 17.7969 19.0618H16.4432L17.5144 13.4733ZM20.7575 9.48147H13.8897C13.5666 9.48147 13.2889 9.71368 13.2272 10.0352L10.0407 26.6584C10.0023 26.859 10.0542 27.0664 10.1824 27.2242C10.3106 27.3819 10.5016 27.4731 10.7032 27.4731H14.2746C14.5978 27.4731 14.8755 27.2409 14.9371 26.9194L15.6782 23.0536H18.1809C19.5962 23.0536 20.7876 22.8972 21.7218 22.5886C22.6826 22.2722 23.5665 21.7355 24.3488 20.9937C24.9958 20.3902 25.5288 19.7127 25.9326 18.9799C26.3365 18.2469 26.6268 17.4295 26.7951 16.5504C27.213 14.3716 26.8735 12.6268 25.7863 11.3649C24.7095 10.1151 23.0175 9.48147 20.7575 9.48147ZM15.6244 19.7461H17.7969C19.2368 19.7461 20.3093 19.4712 21.0141 18.9211C21.7189 18.3709 22.1943 17.4527 22.4413 16.1659C22.6776 14.9305 22.57 14.0587 22.1183 13.5508C21.6661 13.043 20.7619 12.789 19.4051 12.789H16.958L15.6244 19.7461ZM20.7575 10.1658C22.8235 10.1658 24.3307 10.7155 25.2781 11.8151C26.2253 12.9147 26.5106 14.4495 26.1326 16.4199C25.977 17.2316 25.7139 17.9738 25.3435 18.6461C24.9727 19.3189 24.4884 19.9341 23.89 20.4919C23.1768 21.1686 22.3846 21.6508 21.5128 21.938C20.6411 22.226 19.5307 22.3693 18.1809 22.3693H15.1217L14.2746 26.7888H10.7032L13.8897 10.1658H20.7575Z" fill="white"/>
<path d="M34.6526 22.7114C34.5518 22.7114 34.4563 22.6658 34.3923 22.5869C34.3281 22.5081 34.3021 22.4044 34.3213 22.304L35.7309 14.9489C35.865 14.2495 35.8319 13.7474 35.6378 13.5353C35.5191 13.4056 35.1623 13.1881 34.1073 13.1881H31.5536L29.7814 22.4345C29.7506 22.5953 29.6116 22.7114 29.4501 22.7114H25.9068C25.806 22.7114 25.7105 22.6658 25.6464 22.5869C25.5823 22.5081 25.5563 22.4043 25.5755 22.304L28.762 5.68087C28.7929 5.52017 28.9318 5.40406 29.0933 5.40406H32.6366C32.7374 5.40406 32.8329 5.44968 32.897 5.52849C32.9611 5.60742 32.9871 5.71109 32.9679 5.81146L32.1989 9.82357H34.9461C37.0389 9.82357 38.458 10.1977 39.2845 10.9673C40.127 11.7524 40.3899 13.0078 40.066 14.6989L38.5834 22.4345C38.5526 22.5953 38.4138 22.7114 38.2521 22.7114H34.6526Z" fill="black"/>
<path d="M32.6367 5.06198H29.0934C28.7702 5.06198 28.4925 5.29419 28.4309 5.6157L25.2444 22.2389C25.2059 22.4395 25.2579 22.6469 25.3861 22.8047C25.5143 22.9624 25.7053 23.0536 25.9069 23.0536H29.4502C29.7733 23.0536 30.0511 22.8214 30.1127 22.4999L31.8319 13.5303H34.1073C35.1605 13.5303 35.3816 13.7584 35.3905 13.7682C35.4544 13.8379 35.5384 14.1607 35.3997 14.8838L33.9901 22.2389C33.9517 22.4395 34.0036 22.6469 34.1319 22.8047C34.2601 22.9624 34.4511 23.0536 34.6527 23.0536H38.2522C38.5753 23.0536 38.8531 22.8214 38.9147 22.4999L40.3972 14.7644C40.7451 12.9485 40.4475 11.5864 39.5129 10.7155C38.6212 9.88511 37.1273 9.48149 34.9461 9.48149H32.6082L33.2992 5.87688C33.3376 5.67626 33.2857 5.46869 33.1575 5.31107C33.0293 5.15333 32.8383 5.06198 32.6367 5.06198ZM32.6367 5.74629L31.7896 10.1658H34.9461C36.9323 10.1658 38.3023 10.5173 39.0563 11.2194C39.8102 11.922 40.0361 13.0603 39.7348 14.6339L38.2522 22.3693H34.6527L36.0622 15.0144C36.2226 14.1777 36.1637 13.607 35.8852 13.3027C35.6065 12.9984 35.0139 12.846 34.1073 12.846H31.2754L29.4502 22.3693H25.9069L29.0934 5.74629H32.6367Z" fill="white"/>
<path d="M45.6725 19.4038C47.0296 19.4038 48.0428 19.1501 48.6838 18.6499C49.318 18.1549 49.7561 17.2971 49.9858 16.1004C50.1998 14.9821 50.1183 14.2011 49.7433 13.7797C49.3601 13.3493 48.5315 13.131 47.2807 13.131H45.1119L43.9095 19.4038H45.6725ZM38.5789 27.1309C38.4782 27.1309 38.3826 27.0852 38.3186 27.0063C38.2545 26.9275 38.2284 26.8237 38.2476 26.7235L41.4341 10.1003C41.4651 9.9396 41.6039 9.82349 41.7655 9.82349H48.6331C50.7916 9.82349 52.398 10.4177 53.4079 11.5898C54.4231 12.768 54.7365 14.415 54.3396 16.485C54.1779 17.3283 53.9001 18.1115 53.5138 18.8127C53.1269 19.5147 52.6157 20.1642 51.994 20.7436C51.2498 21.4498 50.4075 21.9619 49.4927 22.2632C48.5925 22.5606 47.4364 22.7114 46.0565 22.7114H43.2755L42.4817 26.8539C42.4508 27.0148 42.312 27.1309 42.1503 27.1309H38.5789Z" fill="black"/>
<path d="M45.3901 13.4733H47.2808C48.7904 13.4733 49.3148 13.8092 49.493 14.0093C49.7887 14.3417 49.8445 15.0424 49.6544 16.0356C49.4409 17.1477 49.0451 17.9361 48.4781 18.3789C47.8974 18.8321 46.9534 19.0618 45.6726 19.0618H44.319L45.3901 13.4733ZM48.6332 9.48147H41.7655C41.4424 9.48147 41.1647 9.71368 41.1031 10.0352L37.9166 26.6584C37.8781 26.859 37.9301 27.0664 38.0582 27.2242C38.1864 27.3819 38.3774 27.4731 38.579 27.4731H42.1504C42.4735 27.4731 42.7513 27.2409 42.8129 26.9194L43.5539 23.0536H46.0566C47.4719 23.0536 48.6633 22.8972 49.5975 22.5886C50.5583 22.2722 51.4424 21.7354 52.2247 20.9935C52.8718 20.3901 53.4045 19.7127 53.8083 18.9799C54.2122 18.2469 54.5025 17.4295 54.6708 16.5504C55.0887 14.3714 54.7493 12.6267 53.662 11.3648C52.5853 10.1151 50.8934 9.48147 48.6332 9.48147ZM43.5002 19.7461H45.6726C47.1125 19.7461 48.185 19.4712 48.8898 18.9211C49.5947 18.3709 50.07 17.4527 50.317 16.1659C50.5534 14.9305 50.4458 14.0587 49.994 13.5508C49.5418 13.043 48.6376 12.789 47.2808 12.789H44.8338L43.5002 19.7461ZM48.6332 10.1658C50.6992 10.1658 52.2064 10.7155 53.1538 11.8151C54.1011 12.9147 54.3863 14.4495 54.0083 16.4199C53.8527 17.2316 53.5896 17.9738 53.2192 18.6461C52.8484 19.3189 52.3641 19.9341 51.7657 20.4919C51.0525 21.1686 50.2603 21.6508 49.3885 21.938C48.5168 22.226 47.4064 22.3693 46.0566 22.3693H42.9974L42.1504 26.7888H38.579L41.7655 10.1658H48.6332Z" fill="white"/>
<defs>
<radialGradient id="paint0_radial_44_440" cx="0" cy="0" r="1" gradientUnits="userSpaceOnUse" gradientTransform="translate(19.5725 6.74441) scale(40.8388 41.4074)">
<stop stop-color="#AEB2D5"/>
<stop offset="0.3" stop-color="#AEB2D5"/>
<stop offset="0.75" stop-color="#484C89"/>
<stop offset="1" stop-color="#484C89"/>
</radialGradient>
</defs>
</svg>
