<svg width="62" height="46" viewBox="0 0 62 46" fill="none" xmlns="http://www.w3.org/2000/svg">
<path d="M53.3869 26.4436C51.2239 26.4548 49.344 26.9702 47.7699 27.732C47.1923 26.6005 46.6148 25.5921 46.5129 24.8527C46.3996 23.99 46.2637 23.4634 46.3996 22.4327C46.5355 21.402 47.147 19.9343 47.1357 19.8222C47.1244 19.7102 46.9998 19.1836 45.7541 19.1724C44.5084 19.1612 43.4326 19.4077 43.308 19.7326C43.1834 20.0575 42.9456 20.797 42.7871 21.5588C42.5719 22.6792 40.2957 26.6789 38.9934 28.774C38.5744 27.9561 38.212 27.2391 38.1327 26.6677C38.0195 25.805 37.8836 25.2784 38.0195 24.2477C38.1553 23.2169 38.7669 21.7493 38.7555 21.6372C38.7442 21.5252 38.6197 20.9986 37.374 20.9874C36.1283 20.9762 35.0524 21.2227 34.9279 21.5476C34.8033 21.8725 34.6674 22.6344 34.4069 23.3738C34.1465 24.1132 31.1228 30.7906 30.3301 32.516C29.9224 33.4011 29.5713 34.1069 29.3222 34.5887C29.3222 34.5887 29.3109 34.6223 29.2769 34.6783C29.0617 35.0928 28.9372 35.3169 28.9372 35.3169C28.9372 35.3169 28.9372 35.3169 28.9372 35.3281C28.7673 35.6306 28.5861 35.9107 28.4955 35.9107C28.4276 35.9107 28.303 35.104 28.5182 34.0061C28.9711 31.6869 30.047 28.0793 30.0357 27.9561C30.0357 27.8889 30.2395 27.2615 29.3335 26.9366C28.4502 26.6117 28.1331 27.1494 28.0539 27.1494C27.9746 27.1494 27.918 27.3399 27.918 27.3399C27.918 27.3399 28.9032 23.2842 26.0381 23.2842C24.2488 23.2842 21.7801 25.2224 20.557 26.9702C19.7869 27.3847 18.1449 28.2698 16.3896 29.2221C15.7214 29.5918 15.0306 29.9616 14.3851 30.3089C14.3398 30.2641 14.2945 30.208 14.2492 30.1632C10.7839 26.4996 4.37424 23.9116 4.64603 18.9932C4.74795 17.2006 5.3708 12.495 16.9558 6.78117C26.4911 2.13165 34.0785 3.42007 35.3922 6.27701C37.272 10.3551 31.3266 17.9288 21.4743 19.0268C17.7146 19.4413 15.7441 18.0072 15.2458 17.4695C14.7249 16.9093 14.6456 16.8757 14.4531 16.9877C14.136 17.1558 14.3398 17.6599 14.4531 17.9512C14.7475 18.7131 15.9592 20.0575 18.009 20.7185C19.8209 21.3011 24.2262 21.626 29.56 19.587C35.5281 17.3014 40.1938 10.9489 38.8235 5.62719C37.4532 0.227028 28.3936 -1.55435 19.8209 1.45943C14.7249 3.25202 9.1985 6.07534 5.22358 9.75014C0.501249 14.1196 -0.246171 17.9176 0.0595919 19.5085C1.15807 25.1552 9.02863 28.83 12.1769 31.5525C12.0183 31.6421 11.8711 31.7205 11.7465 31.7878C10.1724 32.5608 4.1704 35.6642 2.67556 38.9469C0.97688 42.6665 2.94735 45.333 4.24967 45.6915C8.29253 46.8007 12.4486 44.8064 14.6796 41.5125C16.9105 38.2187 16.6387 33.9389 15.6082 31.9782C15.5969 31.9558 15.5855 31.9334 15.5629 31.911C15.9706 31.6757 16.3896 31.4292 16.7973 31.194C17.6013 30.7234 18.394 30.2865 19.0735 29.9279C18.6885 30.9699 18.4053 32.2135 18.2695 34.0061C18.0996 36.1124 18.9716 38.8461 20.1154 39.9216C20.625 40.3922 21.2252 40.4034 21.6102 40.4034C22.9465 40.4034 23.5467 39.3054 24.2148 38.0058C25.0302 36.4149 25.7663 34.5663 25.7663 34.5663C25.7663 34.5663 24.849 39.5631 27.3404 39.5631C28.2464 39.5631 29.1637 38.3979 29.5713 37.8041C29.5713 37.8153 29.5713 37.8153 29.5713 37.8153C29.5713 37.8153 29.594 37.7817 29.6393 37.7033C29.7299 37.5576 29.7865 37.468 29.7865 37.468C29.7865 37.468 29.7865 37.4568 29.7865 37.4456C30.1489 36.8182 30.9643 35.3953 32.176 33.0314C33.7388 29.984 35.2449 26.1747 35.2449 26.1747C35.2449 26.1747 35.3808 27.1046 35.8451 28.6507C36.1169 29.5582 36.6832 30.5553 37.1361 31.5189C36.7738 32.023 36.5473 32.3031 36.5473 32.3031C36.5473 32.3031 36.5473 32.3031 36.5586 32.3143C36.2641 32.6952 35.9471 33.1098 35.596 33.5131C34.3616 34.9696 32.8894 36.6389 32.6856 37.1207C32.4478 37.6921 32.5044 38.1066 32.9574 38.4427C33.2858 38.6892 33.8747 38.7228 34.4749 38.6892C35.5847 38.6108 36.3661 38.3419 36.7511 38.1738C37.3513 37.961 38.0534 37.6361 38.7102 37.1543C39.922 36.2692 40.6581 35.0032 40.5901 33.3339C40.5561 32.4152 40.2504 31.4965 39.8767 30.6338C39.9899 30.4769 40.0918 30.3201 40.2051 30.1632C42.1189 27.3959 43.6025 24.3597 43.6025 24.3597C43.6025 24.3597 43.7383 25.2896 44.2026 26.8357C44.4291 27.62 44.8934 28.4715 45.3011 29.3005C43.5005 30.7458 42.3907 32.4264 41.9944 33.5243C41.2809 35.5634 41.8358 36.4821 42.889 36.695C43.3646 36.7958 44.0441 36.5717 44.5424 36.3588C45.1766 36.1572 45.924 35.8099 46.6374 35.2945C47.8492 34.4094 49.0156 33.177 48.9476 31.5077C48.9137 30.7458 48.7098 29.9952 48.4267 29.2669C49.9555 28.6395 51.926 28.2922 54.44 28.5835C59.8305 29.2109 60.895 32.5384 60.6912 33.9389C60.4873 35.3393 59.3549 36.1012 58.9812 36.3364C58.6075 36.5717 58.4829 36.6501 58.5169 36.8182C58.5622 37.0647 58.7434 37.0535 59.0605 37.0087C59.5021 36.9302 61.8916 35.8771 61.9935 33.3002C62.1634 30.0064 58.9925 26.41 53.3869 26.4436ZM11.8031 40.3137C10.0139 42.2408 7.52246 42.969 6.44663 42.3528C5.29153 41.6918 5.74451 38.8461 7.94147 36.807C9.27777 35.5634 10.9991 34.4094 12.1429 33.7036C12.4033 33.5467 12.7884 33.3227 13.2527 33.0426C13.332 32.9977 13.3773 32.9753 13.3773 32.9753C13.4678 32.9193 13.5584 32.8633 13.649 32.8073C14.4531 35.7202 13.683 38.2859 11.8031 40.3137ZM24.8264 31.5525C24.2035 33.0538 22.9012 36.8966 22.1085 36.6838C21.429 36.5045 21.01 33.5915 21.9726 30.7122C22.4595 29.2669 23.4901 27.5416 24.0903 26.8693C25.0642 25.7938 26.14 25.4353 26.4005 25.8722C26.7289 26.4436 25.2114 30.6114 24.8264 31.5525ZM35.5734 36.6389C35.3129 36.7734 35.0637 36.863 34.9505 36.7958C34.8712 36.751 35.0637 36.5717 35.0637 36.5717C35.0637 36.5717 36.4114 35.1376 36.9436 34.4878C37.2494 34.1069 37.6118 33.6588 37.9968 33.1546C37.9968 33.1994 37.9968 33.2554 37.9968 33.3002C37.9968 35.0144 36.3208 36.1684 35.5734 36.6389ZM43.8629 34.7679C43.6704 34.6335 43.7044 34.1853 44.3499 32.7849C44.599 32.2359 45.1879 31.3172 46.1958 30.4321C46.309 30.7906 46.3883 31.1379 46.377 31.4628C46.3656 33.6251 44.8028 34.4318 43.8629 34.7679Z" fill="#CD6799"/>
</svg>
