<svg width="77" height="39" viewBox="0 0 77 39" fill="none" xmlns="http://www.w3.org/2000/svg">
<g clip-path="url(#clip0_44_1047)">
<path d="M15.5211 26.9328C14.634 26.4587 13.6316 26.1247 12.5421 25.9401C11.472 25.7593 10.3833 25.6677 9.30629 25.6677C8.42603 25.6677 7.53556 25.5913 6.65908 25.4409C5.80567 25.295 5.03284 25.026 4.36063 24.6415C3.70658 24.2677 3.16564 23.7446 2.75217 23.0858C2.34439 22.4377 2.13784 21.5783 2.13784 20.5415C2.15751 19.6259 2.36935 18.8425 2.76806 18.213C3.17207 17.5732 3.70015 17.0535 4.3368 16.6679C4.98972 16.2724 5.74325 15.9818 6.57661 15.804C7.99555 15.5016 9.4943 15.445 11.021 15.6589C11.6168 15.7432 12.2062 15.8925 12.7725 16.1026C13.3286 16.3097 13.8514 16.5934 14.3257 16.9449C14.7933 17.2925 15.2064 17.7286 15.5536 18.2408L15.7481 18.5276L17.181 17.922L16.8769 17.4908C16.4869 16.9377 16.0549 16.4396 15.5926 16.0095C15.1209 15.5722 14.5667 15.2003 13.9448 14.9055C13.3308 14.6149 12.6284 14.3911 11.8559 14.2403C11.0914 14.0913 10.2002 14.0161 9.20681 14.0161C8.25391 14.0161 7.27 14.1255 6.28268 14.3421C5.28061 14.5624 4.35117 14.9264 3.52085 15.4245C2.67274 15.9335 1.97367 16.6117 1.44294 17.4403C0.903888 18.2833 0.630011 19.3235 0.630011 20.5324C0.630011 21.8013 0.883838 22.8814 1.38393 23.7423C1.88099 24.5979 2.54753 25.2912 3.36499 25.8026C4.16544 26.3041 5.09942 26.6646 6.14083 26.8739C7.15841 27.0783 8.22327 27.182 9.30629 27.182C10.1673 27.182 11.0789 27.2474 12.0163 27.3777C12.9283 27.5042 13.7772 27.7595 14.5391 28.1364C15.2813 28.5045 15.8998 29.0163 16.3764 29.6579C16.8375 30.2791 17.0717 31.1179 17.0717 32.1509C17.0717 33.0787 16.8462 33.8697 16.4025 34.5037C15.944 35.1587 15.3486 35.6993 14.6325 36.1104C13.9009 36.5302 13.0729 36.8394 12.1699 37.029C11.2526 37.222 10.3447 37.3197 9.47198 37.3197C8.0069 37.3197 6.55921 37.0385 5.1694 36.4838C3.78564 35.9326 2.55849 35.104 1.52276 34.0212L1.24472 33.7306L0.101929 34.7252L0.422713 35.0474C1.44521 36.0751 2.7151 36.9698 4.19608 37.7076C5.69521 38.4548 7.47049 38.8336 9.47198 38.8336C10.4237 38.8336 11.4338 38.7242 12.4748 38.5088C13.5302 38.2896 14.5205 37.9154 15.4178 37.3953C16.3295 36.8672 17.0879 36.1761 17.6731 35.3414C18.2742 34.484 18.5791 33.4111 18.5791 32.1509C18.5791 30.874 18.2935 29.7928 17.7299 28.9372C17.1734 28.0938 16.4305 27.4191 15.5211 26.9328Z" fill="#241F2B"/>
<path d="M28.9992 37.4863C27.9658 37.4863 27.0208 37.2721 26.1901 36.8496C25.3484 36.4222 24.6055 35.8402 23.9813 35.1187C23.3537 34.3942 22.8552 33.547 22.4996 32.6003C22.1414 31.6493 21.9382 30.6525 21.897 29.6544C21.897 28.7316 22.0672 27.7887 22.4024 26.8514C22.7371 25.9172 23.2248 25.0651 23.8523 24.3189C24.478 23.5754 25.2395 22.9596 26.116 22.4877C26.9777 22.0242 27.9476 21.7891 28.9992 21.7891C29.9881 21.7891 30.922 22.009 31.7751 22.4421C32.6398 22.8817 33.4006 23.4706 34.0364 24.1924C34.6738 24.9173 35.183 25.7649 35.5503 26.712C35.9161 27.658 36.1015 28.648 36.1015 29.6544C36.1015 30.5761 35.9313 31.5194 35.5965 32.457C35.2609 33.3932 34.7733 34.2449 34.1461 34.9903C33.5216 35.7323 32.7613 36.342 31.8859 36.8025C31.0238 37.2565 30.0528 37.4863 28.9992 37.4863ZM35.27 23.2863C34.5203 22.4064 33.609 21.6785 32.5608 21.1231C31.4982 20.56 30.2998 20.2751 28.9992 20.2751C27.8145 20.2751 26.6826 20.53 25.6352 21.0323C24.5953 21.5315 23.6757 22.2199 22.9021 23.0777C22.1315 23.9322 21.5138 24.9385 21.0659 26.0688C20.6173 27.2006 20.3895 28.4072 20.3895 29.6544C20.3895 30.8333 20.5995 31.9871 21.0137 33.0839C21.4272 34.18 22.0158 35.1746 22.7632 36.0412C23.5141 36.9115 24.4273 37.6231 25.4774 38.1558C26.5355 38.693 27.718 38.9771 28.9917 39.0003H28.9996H29.0076C30.2128 38.9771 31.354 38.7047 32.3996 38.1918C33.4376 37.6828 34.3561 36.989 35.1297 36.1312C35.9002 35.2764 36.5127 34.281 36.9492 33.1728C37.3869 32.0619 37.6089 30.8781 37.6089 29.6544C37.6089 28.5462 37.405 27.4167 37.0037 26.2979C36.6016 25.179 36.0183 24.1658 35.27 23.2863Z" fill="#241F2B"/>
<path d="M45.4141 37.0663C45.1607 37.1297 44.9375 37.178 44.7514 37.2091C44.5554 37.2418 44.3428 37.2748 44.114 37.3075C43.9033 37.3375 43.6948 37.3531 43.4943 37.3531C42.9886 37.3531 42.6163 37.1848 42.3557 36.8383C42.0678 36.4569 41.9279 36.0781 41.9279 35.68V13.5169H40.4204V35.68C40.4204 36.5116 40.6818 37.2475 41.1978 37.866C41.7323 38.5084 42.4938 38.8336 43.461 38.8336C43.7644 38.8336 44.0655 38.8158 44.3564 38.7808C44.6371 38.747 44.8894 38.7132 45.1153 38.6794C45.346 38.6444 45.6131 38.592 45.9097 38.5236L46.4207 38.4051L45.7497 36.9819L45.4141 37.0663Z" fill="#241F2B"/>
<path d="M51.9187 21.8003C51.1345 22.3539 50.4419 23.0567 49.8491 23.8982V20.5413H48.3417V38.6674H49.8491V27.3824C50.0579 26.6431 50.3454 25.9497 50.7044 25.321C51.0664 24.6877 51.517 24.1299 52.0428 23.6638C52.5686 23.198 53.1807 22.82 53.8627 22.54C54.5429 22.2604 55.3104 22.097 56.1441 22.0549L56.5451 22.0347V20.5413H56.1229C54.5164 20.5413 53.102 20.9649 51.9187 21.8003Z" fill="#241F2B"/>
<path d="M73.456 4.03181L60.9727 17.586L76.6612 10.3167C76.197 7.91187 75.0607 5.7494 73.456 4.03181Z" fill="#DA3522"/>
<path d="M64.1933 0.000310898C62.4638 0.000310898 60.816 0.348692 59.3135 0.977449L57.6384 15.1536L66.0087 0.132141C65.4155 0.0466604 64.8099 0.000310898 64.1933 0.000310898Z" fill="#DA3522"/>
<path d="M76.7849 11.0982L61.9192 19.4533L75.8665 17.7912C76.5277 16.2468 76.8954 14.5456 76.8954 12.7577C76.8954 12.1947 76.8553 11.6419 76.7849 11.0982Z" fill="#DA3522"/>
<path d="M71.3045 23.3292C72.9655 22.2001 74.3447 20.6857 75.3188 18.9149L62.2457 21.5223L71.3045 23.3292Z" fill="#DA3522"/>
<path d="M66.7743 0.26422L59.4973 16.1047L72.9963 3.56529C71.3035 1.92976 69.1624 0.759249 66.7743 0.26422Z" fill="#DA3522"/>
<path d="M65.2549 25.4666C66.6613 25.3496 68.0027 25.0043 69.242 24.4644L61.9192 23.5917L65.2549 25.4666Z" fill="#DA3522"/>
<path d="M52.615 7.51316C52.0438 8.78321 51.6734 10.1627 51.5448 11.6132L53.5175 15.154L52.615 7.51316Z" fill="#DA3522"/>
<path d="M58.2129 1.50269C56.4206 2.4654 54.8863 3.84676 53.7371 5.51725L55.5782 14.8267L58.2129 1.50269Z" fill="#DA3522"/>
</g>
<defs>
<clipPath id="clip0_44_1047">
<rect width="76.7932" height="38.9997" fill="white" transform="translate(0.103394 0.000305176)"/>
</clipPath>
</defs>
</svg>
