<svg width="83" height="21" viewBox="0 0 83 21" fill="none" xmlns="http://www.w3.org/2000/svg">
<path fill-rule="evenodd" clip-rule="evenodd" d="M18.1199 3.20264H6.10376V9.05419H12.0163C12.2269 9.05419 12.3978 9.22015 12.3978 9.42473V15.088H18.5014V3.57386C18.5015 3.52514 18.4917 3.47689 18.4726 3.43185C18.4535 3.38682 18.4254 3.34589 18.39 3.31141C18.3545 3.27693 18.3124 3.24957 18.2661 3.23091C18.2198 3.21224 18.1701 3.20264 18.1199 3.20264Z" fill="#8E75FF"/>
<path opacity="0.405" fill-rule="evenodd" clip-rule="evenodd" d="M6.10294 3.20264V9.05418H0.465917C0.428042 9.05412 0.391042 9.04313 0.359613 9.0226C0.328183 9.00207 0.303743 8.97294 0.289393 8.93889C0.275044 8.90485 0.271433 8.86743 0.279019 8.83139C0.286605 8.79535 0.305046 8.76232 0.332001 8.73647L6.10294 3.20264ZM12.7227 20.6279C12.6959 20.6535 12.6618 20.6708 12.6249 20.6777C12.588 20.6846 12.5497 20.6808 12.515 20.6667C12.4803 20.6526 12.4507 20.6289 12.4298 20.5984C12.4089 20.568 12.3978 20.5323 12.3977 20.4958V15.088H18.5013L12.7227 20.6272V20.6279Z" fill="#8E75FF"/>
<path opacity="0.405" d="M6.10303 9.0542H12.2074C12.312 9.0542 12.3978 9.13684 12.3978 9.23913V15.088H6.48525C6.38406 15.088 6.28702 15.0489 6.21547 14.9794C6.14392 14.91 6.10373 14.8157 6.10373 14.7174V9.0542H6.10303Z" fill="#8E75FF"/>
<path fill-rule="evenodd" clip-rule="evenodd" d="M80.0502 2.83361C80.3913 3.16148 80.7938 3.32473 81.2583 3.32473C81.7374 3.32473 82.1476 3.16148 82.4886 2.83361C82.8297 2.50573 82.9999 2.11961 82.9999 1.67319C82.9999 1.22744 82.8297 0.837251 82.4886 0.502606C82.3301 0.341237 82.1391 0.213368 81.9274 0.126997C81.7157 0.0406249 81.4879 -0.0023915 81.2583 0.000637853C80.7938 0.000637853 80.3913 0.16796 80.0502 0.501928C79.7092 0.837251 79.539 1.22677 79.539 1.67386C79.539 2.11961 79.7092 2.50573 80.0502 2.83361ZM43.042 7.10948C43.042 7.14335 43.0127 7.1718 42.9771 7.1718H40.5813V11.5208C40.5813 11.8833 40.6762 12.1481 40.8645 12.3154C41.0528 12.4828 41.329 12.5763 41.6917 12.5972C42.0237 12.6169 42.4282 12.6155 42.906 12.5939L42.9737 12.5905C42.9824 12.59 42.9911 12.5913 42.9993 12.5942C43.0075 12.5971 43.015 12.6017 43.0213 12.6075C43.0276 12.6133 43.0327 12.6203 43.0361 12.6281C43.0396 12.6359 43.0413 12.6443 43.0413 12.6528V14.977C43.0414 14.9924 43.0356 15.0073 43.025 15.0189C43.0145 15.0304 42.9999 15.0377 42.9841 15.0393L42.9402 15.0441C41.064 15.2358 39.7367 15.0576 38.9597 14.5103C38.1687 13.9528 37.774 12.9563 37.774 11.5208V7.1718H35.9438C35.9267 7.1718 35.9104 7.16523 35.8984 7.15354C35.8864 7.14186 35.8796 7.12601 35.8796 7.10948V4.64164C35.8796 4.60777 35.9082 4.57931 35.9438 4.57931H37.7733V2.85393C37.7733 2.8038 37.8039 2.75909 37.8507 2.73877L40.4913 1.62306C40.5011 1.61875 40.5119 1.61689 40.5226 1.61766C40.5333 1.61843 40.5436 1.62181 40.5527 1.62747C40.5617 1.63313 40.5691 1.64091 40.5742 1.65008C40.5794 1.65925 40.582 1.66952 40.582 1.67996V4.57931H42.9771C43.012 4.57931 43.0413 4.60709 43.0413 4.64164V7.10948H43.042ZM48.1336 6.37786C48.3945 5.70857 48.8262 5.2066 49.4281 4.87196C50.022 4.54359 50.6935 4.37084 51.3769 4.37067C51.4125 4.37067 51.4417 4.39844 51.4417 4.43367V7.26867C51.4417 7.28286 51.4386 7.29688 51.4327 7.30984C51.4268 7.3228 51.4181 7.33441 51.4072 7.34392C51.3964 7.35342 51.3836 7.36062 51.3698 7.36505C51.3559 7.36947 51.3412 7.37102 51.3267 7.36961C50.5169 7.29915 49.7894 7.47054 49.145 7.88309C48.4705 8.3146 48.1336 9.03267 48.1336 10.0366V14.9709C48.1336 14.9792 48.1319 14.9873 48.1287 14.9949C48.1254 15.0025 48.1206 15.0094 48.1146 15.0152C48.1085 15.021 48.1014 15.0256 48.0935 15.0287C48.0856 15.0318 48.0772 15.0333 48.0687 15.0332H45.389C45.372 15.0332 45.3557 15.0267 45.3437 15.015C45.3316 15.0033 45.3249 14.9875 45.3249 14.9709V4.64096C45.3249 4.60709 45.3535 4.57864 45.389 4.57864H48.0687C48.1036 4.57864 48.1329 4.60641 48.1329 4.64096V6.37651L48.1336 6.37786ZM61.4108 4.57931C61.4023 4.57923 61.3939 4.58077 61.386 4.58386C61.3782 4.58696 61.371 4.59153 61.365 4.59733C61.359 4.60312 61.3542 4.61002 61.3509 4.61763C61.3476 4.62524 61.346 4.6334 61.346 4.64164V5.81357C60.5048 4.79541 59.3219 4.28667 57.7979 4.28667C56.3471 4.28667 55.1021 4.8198 54.065 5.88606C53.0271 6.95231 52.5082 8.25906 52.5082 9.80628C52.5082 11.3535 53.0271 12.6602 54.065 13.7265C55.1021 14.7928 56.3471 15.3259 57.7979 15.3259C59.3219 15.3259 60.5041 14.8172 61.346 13.7997V14.9709C61.346 15.0048 61.3752 15.0332 61.4108 15.0332H64.0898C64.1254 15.0332 64.1547 15.0055 64.1547 14.9709V4.64096C64.1547 4.63272 64.153 4.62456 64.1497 4.61695C64.1465 4.60935 64.1417 4.60245 64.1357 4.59665C64.1296 4.59085 64.1225 4.58628 64.1146 4.58319C64.1067 4.58009 64.0983 4.57855 64.0898 4.57864H61.4108V4.57931ZM56.1658 11.9388C56.7314 12.4828 57.4491 12.7544 58.321 12.7544C59.1914 12.7544 59.9133 12.4787 60.4867 11.928C61.06 11.3779 61.346 10.6707 61.346 9.80628C61.346 8.9419 61.06 8.23467 60.4867 7.68393C59.9133 7.13386 59.1914 6.85815 58.3203 6.85815C57.4498 6.85815 56.7314 7.13386 56.1651 7.68461C55.6001 8.23467 55.3162 8.9419 55.3162 9.80628C55.3162 10.6707 55.5994 11.3813 56.1658 11.9388ZM76.6368 5.88606C75.5989 4.8198 74.347 4.28667 72.8816 4.28667C71.3576 4.28667 70.1823 4.79541 69.3551 5.8129V4.64164C69.3551 4.62511 69.3483 4.60926 69.3363 4.59757C69.3243 4.58588 69.308 4.57931 69.2909 4.57931H66.6112C66.5942 4.57931 66.5779 4.58588 66.5658 4.59757C66.5538 4.60926 66.5471 4.62511 66.5471 4.64164V19.152C66.5471 19.1865 66.5756 19.215 66.6112 19.215H69.2909C69.3258 19.215 69.3551 19.1865 69.3551 19.152V13.7997C70.1823 14.8172 71.3576 15.3259 72.8816 15.3259C74.347 15.3259 75.5989 14.7928 76.6368 13.7265C77.6739 12.6602 78.1929 11.3535 78.1929 9.80628C78.1929 8.25906 77.6739 6.95231 76.6368 5.88606ZM70.2039 11.9388C70.7703 12.4828 71.488 12.7544 72.3591 12.7544C73.2296 12.7544 73.9515 12.4787 74.5248 11.928C75.0981 11.3779 75.3848 10.6707 75.3848 9.80628C75.3848 8.9419 75.0981 8.23467 74.5248 7.68393C73.9515 7.13386 73.2296 6.85815 72.3591 6.85815C71.488 6.85815 70.7703 7.13386 70.2039 7.68461C69.6383 8.23467 69.3551 8.9419 69.3551 9.80628C69.3551 10.6707 69.6383 11.3813 70.2039 11.9388ZM79.9296 15.0332C79.9126 15.0332 79.8962 15.0267 79.8842 15.015C79.8722 15.0033 79.8654 14.9875 79.8654 14.9709V4.64096C79.8654 4.60709 79.894 4.57864 79.9296 4.57864H82.6093C82.6449 4.57864 82.6735 4.60641 82.6735 4.64096V14.9716C82.6735 14.9881 82.6667 15.004 82.6547 15.0157C82.6426 15.0274 82.6263 15.0339 82.6093 15.0339H79.9296V15.0332ZM29.8611 8.2279C29.476 8.0538 29.2842 7.82686 29.2842 7.54844C29.2842 7.28357 29.4035 7.07425 29.6434 6.92115C29.8827 6.76806 30.184 6.69083 30.5467 6.69083C31.2421 6.69083 31.7673 6.95164 32.123 7.47257C32.1348 7.49026 32.1527 7.50334 32.1735 7.50953C32.1943 7.51572 32.2166 7.51463 32.2367 7.50644L34.6067 6.49912C34.6149 6.49555 34.6222 6.49035 34.6282 6.48386C34.6342 6.47736 34.6387 6.46972 34.6415 6.46141C34.6443 6.45311 34.6452 6.44434 34.6443 6.43567C34.6433 6.42699 34.6405 6.41861 34.636 6.41106C34.6087 6.36689 34.5808 6.32308 34.5523 6.27964C34.1471 5.66657 33.6219 5.20931 32.9627 4.8618C32.2374 4.47838 31.4318 4.28667 30.5467 4.28667C29.3707 4.28667 28.388 4.5827 27.5963 5.17544C26.8061 5.76751 26.4106 6.57973 26.4106 7.61077C26.4106 8.29428 26.6031 8.86196 26.9874 9.31515C27.3589 9.75884 27.8427 10.1011 28.3915 10.3083C28.9425 10.5169 29.4942 10.6917 30.0459 10.8305C30.5969 10.9701 31.0656 11.1272 31.4499 11.3013C31.8342 11.4754 32.0267 11.7017 32.0267 11.9808C32.0267 12.5803 31.5259 12.8797 30.5251 12.8797C29.5716 12.8797 28.9111 12.541 28.5435 11.865C28.5288 11.8365 28.5034 11.8145 28.4725 11.8036C28.4417 11.7926 28.4077 11.7935 28.3775 11.806L26.0145 12.812C26.0066 12.8154 25.9995 12.8202 25.9936 12.8263C25.9877 12.8324 25.9831 12.8395 25.9801 12.8474C25.9771 12.8552 25.9757 12.8636 25.9761 12.8719C25.9765 12.8803 25.9787 12.8885 25.9824 12.896L26.0089 12.9482C26.8347 14.5333 28.3399 15.3259 30.5251 15.3259C31.7728 15.3259 32.8142 15.0366 33.6484 14.4588C34.4832 13.8796 34.9003 13.0538 34.9003 11.9808C34.9003 11.2695 34.7078 10.6774 34.3235 10.2032C33.9612 9.74566 33.4751 9.39481 32.9195 9.18983C32.3787 8.99092 31.8263 8.82331 31.2651 8.68786C30.7134 8.55509 30.2454 8.40199 29.8611 8.22722V8.2279Z" fill="#1D1B84"/>
</svg>
