<svg width="44" height="44" viewBox="0 0 44 44" fill="none" xmlns="http://www.w3.org/2000/svg">
<path d="M39.7031 0H4.29688C1.92378 0 0 1.92378 0 4.29688V39.7031C0 42.0762 1.92378 44 4.29688 44H39.7031C42.0762 44 44 42.0762 44 39.7031V4.29688C44 1.92378 42.0762 0 39.7031 0Z" fill="#3178C6"/>
<path fill-rule="evenodd" clip-rule="evenodd" d="M27.2422 34.9766V39.2734C27.9383 39.6344 28.7891 39.9008 29.7344 40.0812C30.6797 40.2617 31.7109 40.3477 32.7422 40.3477C33.7734 40.3477 34.7188 40.2531 35.6641 40.0555C36.6094 39.8578 37.3828 39.5312 38.0703 39.1102C38.7664 38.6547 39.3594 38.0789 39.7031 37.3055C40.0469 36.532 40.3133 35.6727 40.3133 34.5555C40.3133 33.7734 40.193 33.0945 39.9609 32.493C39.7289 31.8914 39.3937 31.3758 38.9297 30.9461C38.4914 30.4906 37.9844 30.0867 37.3828 29.743C36.7812 29.3992 36.0938 29.0383 35.3203 28.7117C34.7531 28.4797 34.2891 28.2562 33.7734 28.0328C33.3266 27.8094 32.9398 27.5859 32.6562 27.3625C32.3383 27.1305 32.0977 26.8898 31.9258 26.6406C31.7539 26.3828 31.668 26.0992 31.668 25.7812C31.668 25.4891 31.7445 25.2227 31.9 24.982C32.0555 24.7414 32.2695 24.5437 32.5445 24.3719C32.8195 24.2 33.1633 24.0711 33.5758 23.9766C33.9797 23.882 34.4266 23.8391 34.9508 23.8391C35.3117 23.8391 35.6898 23.8657 36.068 23.9198C36.4633 23.974 36.8672 24.0573 37.2711 24.1691C37.675 24.2808 38.0703 24.4183 38.4742 24.5902C38.8523 24.762 39.2047 24.9597 39.5055 25.1831V21.1441C38.8523 20.8948 38.1305 20.7058 37.357 20.5855C36.5836 20.4652 35.7242 20.405 34.693 20.405C33.6617 20.405 32.7164 20.5167 31.7711 20.7316C30.8258 20.9464 30.0523 21.2902 29.3648 21.7628C28.6688 22.2269 28.1617 22.7941 27.732 23.5675C27.3281 24.2894 27.1305 25.1144 27.1305 26.1456C27.1305 27.4347 27.5 28.5519 28.2477 29.4112C28.9867 30.3566 30.1383 31.0441 31.5992 31.7316C32.1922 31.9722 32.7164 32.2128 33.232 32.4448C33.7477 32.6769 34.1773 32.9175 34.5211 33.1667C34.8906 33.4159 35.1828 33.6909 35.3805 33.9831C35.5953 34.2753 35.707 34.6191 35.707 35.0144C35.707 35.2894 35.64 35.5472 35.5094 35.7878C35.3788 36.0284 35.1742 36.2347 34.8992 36.4066C34.6242 36.5784 34.2891 36.7159 33.868 36.8191C33.4641 36.9136 33.0086 36.9652 32.407 36.9652C31.4617 36.9652 30.5164 36.8019 29.657 36.4753C28.7117 36.1487 27.8523 35.6589 27.0789 35.0144L27.2422 34.9766ZM20.0234 24.4062H25.5234V20.8828H10.1406V24.4062H15.6406V40.1328H20.0234V24.4062Z" fill="white"/>
</svg>
