<svg width="44" height="43" viewBox="0 0 44 43" fill="none" xmlns="http://www.w3.org/2000/svg">
<path d="M3.05618 21.5C3.05618 28.8005 7.29898 35.1096 13.4514 38.0994L4.65307 13.9937C3.62966 16.2876 3.05618 18.826 3.05618 21.5Z" fill="#464342"/>
<path d="M33.9522 20.5692C33.9522 18.2898 33.1334 16.7112 32.4311 15.4825C31.4961 13.9632 30.6198 12.6766 30.6198 11.1573C30.6198 9.46188 31.9057 7.88364 33.717 7.88364C33.7988 7.88364 33.8764 7.89382 33.956 7.89838C30.6745 4.8921 26.3026 3.05661 21.5007 3.05661C15.057 3.05661 9.38791 6.3626 6.0899 11.37C6.52264 11.383 6.93046 11.3921 7.27686 11.3921C9.20611 11.3921 12.1925 11.158 12.1925 11.158C13.1867 11.0994 13.304 12.5598 12.3107 12.6773C12.3107 12.6773 11.3115 12.7949 10.1997 12.8532L16.9164 32.8312L20.9528 20.7258L18.0792 12.8525C17.0859 12.7942 16.145 12.6766 16.145 12.6766C15.1511 12.6184 15.2676 11.0987 16.2615 11.1573C16.2615 11.1573 19.3075 11.3914 21.1199 11.3914C23.0488 11.3914 26.0355 11.1573 26.0355 11.1573C27.0305 11.0987 27.1473 12.5591 26.1538 12.6766C26.1538 12.6766 25.1525 12.7942 24.0427 12.8525L30.7082 32.6793L32.548 26.5316C33.3453 23.9805 33.9522 22.1482 33.9522 20.5692Z" fill="#464342"/>
<path d="M21.8243 23.1133L16.2903 39.1937C17.9426 39.6794 19.6901 39.9451 21.5007 39.9451C23.6486 39.9451 25.7084 39.5738 27.6257 38.8996C27.5762 38.8206 27.5313 38.7368 27.4945 38.6455L21.8243 23.1133Z" fill="#464342"/>
<path d="M37.6849 12.6509C37.7642 13.2384 37.8092 13.869 37.8092 14.5474C37.8092 16.4191 37.4596 18.523 36.4067 21.1538L30.7727 37.4426C36.2562 34.2451 39.9444 28.3045 39.9444 21.5002C39.9448 18.2935 39.1256 15.2781 37.6849 12.6509Z" fill="#464342"/>
<path d="M21.5007 0.000488281C9.64552 0.000488281 0 9.64507 0 21.5C0 33.3563 9.64552 43.0005 21.5007 43.0005C33.3555 43.0005 43.0025 33.3563 43.0025 21.5C43.0021 9.64507 33.3555 0.000488281 21.5007 0.000488281ZM21.5007 42.015C10.1892 42.015 0.985855 32.8119 0.985855 21.5C0.985855 10.1887 10.1888 0.986319 21.5007 0.986319C32.8119 0.986319 42.0145 10.1887 42.0145 21.5C42.0145 32.8119 32.8119 42.015 21.5007 42.015Z" fill="#464342"/>
</svg>
